<?xml version="1.0" standalone="no"?>
<!DOCTYPE svg PUBLIC "-//W3C//DTD SVG 1.1//EN" "http://www.w3.org/Graphics/SVG/1.1/DTD/svg11.dtd" >
<svg xmlns="http://www.w3.org/2000/svg" xmlns:xlink="http://www.w3.org/1999/xlink" version="1.1">
<metadata>
Created by FontForge 20170731 at Thu Jan 13 13:31:13 2022
 By Aleksey,,,
Copyright (c) 2021 TCS Group Holding PLC. All rights reserved.
</metadata>
<defs>
<font id="TinkoffSans-Medium" horiz-adv-x="509" >
  <font-face 
    font-family="Tinkoff Sans Medium"
    font-weight="500"
    font-stretch="normal"
    units-per-em="1000"
    panose-1="2 0 8 6 5 0 0 2 0 4"
    ascent="800"
    descent="-200"
    x-height="507"
    cap-height="648"
    bbox="-37 -203 1033 879"
    underline-thickness="50"
    underline-position="-150"
    unicode-range="U+000D-FEFF"
  />
<missing-glyph horiz-adv-x="364" 
d="M33 0v666h265v-666h-265zM66 33h199v600h-199v-600z" />
    <glyph glyph-name="ff" unicode="ff" horiz-adv-x="678" 
d="M91 575q0 70 37.5 98t96.5 28q20 0 47 -2t47 -5v-93q-12 2 -25 3t-27 1q-20 0 -35 -7t-15 -30v-61h102v-95h-102v-412h-126v412h-66v95h66v68zM425 575q0 70 37.5 98t96.5 28q20 0 47 -2t47 -5v-93q-12 2 -25 3t-27 1q-20 0 -35 -7t-15 -30v-61h102v-95h-102v-412h-126
v412h-66v95h66v68z" />
    <glyph glyph-name="fi" unicode="fi" horiz-adv-x="585" 
d="M91 575q0 70 37.5 98t96.5 28q20 0 47 -2t47 -5v-93q-12 2 -25 3t-27 1q-20 0 -35 -7t-15 -30v-61h102v-95h-102v-412h-126v412h-66v95h66v68zM399 507q15 -6 31 -8.5t32 -2.5q34 0 63 11v-507h-126v507zM462 530q-33 0 -55 18.5t-22 44.5t22 44t55 18q32 0 54.5 -18
t22.5 -44t-22.5 -44.5t-54.5 -18.5z" />
    <glyph glyph-name="fl" unicode="fl" horiz-adv-x="585" 
d="M91 575q0 70 37.5 98t96.5 28q20 0 47 -2t47 -5v-93q-12 2 -25 3t-27 1q-20 0 -35 -7t-15 -30v-61h102v-95h-102v-412h-126v412h-66v95h66v68zM525 0h-126v690h126v-690z" />
    <glyph glyph-name=".notdef" horiz-adv-x="364" 
d="M33 0v666h265v-666h-265zM66 33h199v600h-199v-600z" />
    <glyph glyph-name="glyph1" horiz-adv-x="0" 
 />
    <glyph glyph-name="glyph1" horiz-adv-x="0" 
 />
    <glyph glyph-name="uni000D" unicode="&#xd;" horiz-adv-x="190" 
 />
    <glyph glyph-name="space" unicode=" " horiz-adv-x="200" 
 />
    <glyph glyph-name="exclam" unicode="!" horiz-adv-x="269" 
d="M208 648l-25 -433h-98l-24 433h147zM134 -10q-32 0 -55.5 23.5t-23.5 65.5t23.5 65.5t55.5 23.5t56 -23.5t24 -65.5t-24 -65.5t-56 -23.5z" />
    <glyph glyph-name="quotedbl" unicode="&#x22;" horiz-adv-x="356" 
d="M159 690v-253h-104v253h104zM301 690v-253h-103v253h103z" />
    <glyph glyph-name="numbersign" unicode="#" horiz-adv-x="629" 
d="M125 179h-80v87h100l28 122h-83v86h102l40 174h93l-39 -174h120l39 174h94l-39 -174h84v-86h-104l-27 -122h86v-87h-106l-40 -179h-94l40 179h-120l-40 -179h-93zM239 266h120l28 122h-120z" />
    <glyph glyph-name="dollar" unicode="$" horiz-adv-x="541" 
d="M172 219q-3 -17 -3 -30q0 -37 24 -58.5t75 -21.5q21 0 39.5 4t32.5 12.5t22.5 22t8.5 33.5q0 33 -23.5 50t-59 28.5t-77 22.5t-77 31t-59 54.5t-23.5 93.5q0 40 13.5 70t36.5 50.5t53.5 32.5t65.5 17v79h96v-79q72 -7 115.5 -46.5t43.5 -103.5q0 -12 -2 -24t-5 -26h-117
q4 13 4 28q0 35 -25.5 57.5t-66.5 22.5q-42 0 -67 -18.5t-25 -52.5q0 -32 24 -48.5t60 -28t78 -23t78 -32t60 -55t24 -92.5q0 -44 -15 -75t-39.5 -51.5t-57 -32t-68.5 -15.5v-79h-95v80q-36 4 -67.5 15.5t-55.5 31t-38 46t-15 61.5q0 11 1 23t5 26h121z" />
    <glyph glyph-name="percent" unicode="%" horiz-adv-x="749" 
d="M606 648l-370 -648h-96l370 648h96zM204 352q-64 0 -106.5 39.5t-42.5 119.5q0 42 12 72t32.5 49.5t47.5 29t57 9.5q31 0 58 -9.5t46.5 -29.5t31 -50t11.5 -71t-11.5 -71t-31.5 -49.5t-47 -29t-57 -9.5zM204 426q26 0 41 21t15 64t-15 64.5t-41 21.5q-27 0 -42.5 -21.5
t-15.5 -64.5t15.5 -64t42.5 -21zM547 -22q-32 0 -59 10t-47 30t-31.5 50t-11.5 70q0 42 12 72t32.5 49.5t47.5 28.5t57 9q31 0 58 -9.5t46.5 -29t31 -49.5t11.5 -71t-11.5 -71.5t-31.5 -50t-47 -29t-57 -9.5zM547 52q26 0 41 21.5t15 64.5q0 42 -15 64t-41 22q-27 0 -42 -22
t-15 -64q0 -43 15 -64.5t42 -21.5z" />
    <glyph glyph-name="ampersand" unicode="&#x26;" horiz-adv-x="617" 
d="M416 42q-29 -24 -70.5 -39t-101.5 -15q-48 0 -87 15t-66 42t-41.5 63.5t-14.5 78.5q0 56 26.5 103t83.5 85q-28 36 -42.5 68t-14.5 67q0 31 12 59t35 48t57 32t78 12q31 0 62 -6.5t55.5 -21.5t39.5 -40.5t15 -62.5q0 -22 -6 -49h-109q3 9 3 21q0 31 -17.5 45.5
t-40.5 14.5q-25 0 -43.5 -15t-18.5 -41q0 -17 9 -34t24 -37l168 -211q2 14 3.5 29t1.5 32q0 13 -1 25.5t-4 25.5h111q2 -12 2 -24v-26q0 -40 -8 -81.5t-27 -77.5l103 -127h-142zM270 93q49 0 80 29l-144 179q-4 -4 -7 -7.5t-6 -7.5q-37 -39 -37 -85q0 -21 7.5 -40.5
t22.5 -34.5t36 -24t48 -9z" />
    <glyph glyph-name="quotesingle" unicode="'" horiz-adv-x="213" 
d="M158 690v-253h-103v253h103z" />
    <glyph glyph-name="parenleft" unicode="(" horiz-adv-x="292" 
d="M257 701q-42 -104 -62.5 -208t-20.5 -203q0 -98 20.5 -202t62.5 -208h-129q-42 104 -62.5 208t-20.5 202q0 99 20.5 203t62.5 208h129z" />
    <glyph glyph-name="parenright" unicode=")" horiz-adv-x="292" 
d="M164 701q42 -104 62.5 -208t20.5 -203q0 -98 -20.5 -202t-62.5 -208h-129q42 104 62.5 208t20.5 202q0 99 -20.5 203t-62.5 208h129z" />
    <glyph glyph-name="asterisk" unicode="*" horiz-adv-x="457" 
d="M108 683q23 -31 46 -54.5t46 -42.5q-4 31 -12.5 63t-23.5 66h129q-17 -35 -25.5 -66t-12.5 -62q24 19 47 42t46 54l64 -111q-40 -4 -70.5 -12.5t-58.5 -19.5q28 -11 59 -19t70 -12l-64 -113q-22 31 -45.5 54.5t-47.5 41.5q4 -31 13 -62t25 -65h-129q16 35 24.5 66.5
t12.5 61.5q-24 -19 -47 -42.5t-46 -53.5l-63 112q38 4 70 12t58 19q-27 11 -58.5 19.5t-69.5 12.5z" />
    <glyph glyph-name="plus" unicode="+" horiz-adv-x="573" 
d="M340 308h183v-100h-183v-194h-108v194h-182v100h182v194h108v-194z" />
    <glyph glyph-name="comma" unicode="," horiz-adv-x="249" 
d="M124 168q31 0 55.5 -21.5t24.5 -70.5q0 -33 -10 -65.5t-25 -60t-32 -49t-30 -32.5l-50 16q10 12 20 27t18.5 30.5t14 29.5t7.5 24q-27 0 -49.5 21t-22.5 66q0 42 23.5 63.5t55.5 21.5z" />
    <glyph glyph-name="hyphen" unicode="-" horiz-adv-x="348" 
d="M303 309v-110h-258v110h258z" />
    <glyph glyph-name="period" unicode="." horiz-adv-x="249" 
d="M124 -10q-32 0 -55.5 23.5t-23.5 65.5t23.5 65.5t55.5 23.5t56 -23.5t24 -65.5t-24 -65.5t-56 -23.5z" />
    <glyph glyph-name="slash" unicode="/" horiz-adv-x="346" 
d="M287 690l-147 -833h-120l147 833h120z" />
    <glyph glyph-name="zero" unicode="0" horiz-adv-x="570" 
d="M286 -14q-48 0 -91.5 20t-77 61.5t-53 105t-19.5 149.5q0 88 19 152.5t52 106.5t77 62t94 20q47 0 90 -20t76 -61t52.5 -104t19.5 -148q0 -89 -19 -153.5t-51 -107t-76 -63t-93 -20.5zM284 96q47 0 74.5 59.5t27.5 165.5q0 109 -27 170.5t-75 61.5q-47 0 -74 -60.5
t-27 -166.5q0 -109 27 -169.5t74 -60.5z" />
    <glyph glyph-name="one" unicode="1" 
d="M213 106v408h-9q-20 -44 -55.5 -68.5t-80.5 -24.5v116q63 4 104.5 35.5t58.5 75.5h112v-542h131v-106h-414v106h153z" />
    <glyph glyph-name="two" unicode="2" horiz-adv-x="516" 
d="M476 106v-106h-408v111q138 78 205.5 166.5t67.5 176.5q0 22 -8 38.5t-21 27.5t-29.5 16.5t-33.5 5.5q-32 0 -58 -19.5t-26 -58.5q0 -15 4 -30h-119q-10 29 -10 58q0 37 16 68.5t44.5 54.5t67.5 35.5t86 12.5q41 0 80.5 -11t70.5 -35t50 -63t19 -94q0 -61 -22.5 -115
t-61 -98t-90.5 -77.5t-111 -53.5v-10h287z" />
    <glyph glyph-name="three" unicode="3" horiz-adv-x="523" 
d="M56 443q-6 25 -6 47q0 40 17 72t46 54.5t68 34.5t83 12q46 0 85.5 -10.5t68.5 -32.5t45.5 -54.5t16.5 -76.5q0 -62 -29.5 -96t-80.5 -54v-11q55 -20 86.5 -60t31.5 -103q0 -46 -18.5 -79.5t-50 -55.5t-73.5 -33t-90 -11q-42 0 -82 11.5t-71 33.5t-49.5 55t-18.5 76
q0 11 1.5 21.5t3.5 22.5h127q-4 -17 -4 -34q0 -23 8 -38.5t21.5 -25t31 -13.5t37.5 -4q19 0 36 5t30 15.5t20.5 28t7.5 42.5q0 51 -28 73t-67 22h-44v100h45q38 0 64 22.5t26 70.5q0 50 -27 71t-64 21t-63.5 -20t-26.5 -62q0 -16 6 -37h-120v0z" />
    <glyph glyph-name="four" unicode="4" horiz-adv-x="571" 
d="M331 648q-9 -60 -26.5 -117t-41.5 -108t-54 -95t-63 -78v-9h179v227h130v-227h91v-105h-91v-136h-130v136h-290v107q65 91 101.5 188.5t50.5 216.5h144z" />
    <glyph glyph-name="five" unicode="5" 
d="M161 367q29 30 57 42t72 12q35 0 68.5 -12t59 -37.5t41 -65t15.5 -94.5q0 -57 -17 -99.5t-47.5 -70.5t-73 -42t-94.5 -14q-41 0 -78.5 10.5t-66 31.5t-45.5 52t-17 71q0 21 6 47h122q-4 -13 -4 -28q0 -35 23 -58t64 -23q40 0 68.5 28.5t28.5 92.5q0 33 -8 55.5
t-21.5 36.5t-30.5 20.5t-35 6.5q-54 0 -79 -52l-119 23l28 348h353v-115h-258l-5 -69q-2 -22 -6 -45.5t-10 -45.5l9 -6v0z" />
    <glyph glyph-name="six" unicode="6" horiz-adv-x="534" 
d="M314 424q35 0 68 -12t59 -37.5t42 -65.5t16 -95q0 -57 -18.5 -99.5t-50 -71t-73 -43t-86.5 -14.5q-49 0 -92 16.5t-75 53.5t-50.5 97.5t-18.5 148.5q0 76 14.5 142t45.5 114.5t80 76.5t118 28q48 0 85 -13.5t60.5 -37.5t32.5 -57.5t3 -72.5h-118q6 42 -14.5 60.5
t-49.5 18.5q-41 0 -67 -21.5t-42 -54.5t-22 -72.5t-6 -74.5l10 -2q22 48 61 68t88 20zM272 90q39 0 68 30.5t29 93.5q0 33 -8 56.5t-21 38.5t-30.5 22t-36.5 7q-43 0 -71.5 -31.5t-28.5 -91.5q0 -27 7.5 -50t21 -39.5t31.5 -26t39 -9.5z" />
    <glyph glyph-name="seven" unicode="7" horiz-adv-x="492" 
d="M111 0q4 87 23.5 163.5t50.5 142.5t72.5 121t88.5 100v10h-311v111h437v-111q-43 -47 -80 -100t-65.5 -117.5t-46 -143t-20.5 -176.5h-149z" />
    <glyph glyph-name="eight" unicode="8" horiz-adv-x="542" 
d="M383 330q57 -19 90.5 -61t33.5 -108q0 -44 -20.5 -77.5t-54.5 -56t-76.5 -33.5t-87.5 -11q-47 0 -89 11t-74 33.5t-51 56t-19 77.5q0 66 33.5 108t90.5 61v9q-25 10 -45 23.5t-34.5 31.5t-22.5 42t-8 56q0 42 17 75t47 55t70.5 33.5t87.5 11.5t87.5 -11.5t70.5 -33.5
t47 -55t17 -75q0 -32 -8 -56t-22.5 -42t-34.5 -31.5t-45 -23.5v-9zM271 566q-18 0 -35.5 -5t-31 -16t-21.5 -28t-8 -42q0 -24 8 -41.5t21 -28t28.5 -15.5t29.5 -5h18q14 0 29.5 5t28 16t20.5 28t8 41q0 25 -8 42t-21.5 28t-30.5 16t-35 5zM272 92q19 0 37 5t32.5 16.5
t23.5 29t9 43.5t-9 44.5t-23 30.5t-30.5 17.5t-30.5 5.5h-19q-15 0 -31.5 -5.5t-31 -17.5t-23.5 -30.5t-9 -44.5t9 -43.5t23.5 -29t33.5 -16.5t39 -5z" />
    <glyph glyph-name="nine" unicode="9" horiz-adv-x="534" 
d="M220 225q-35 0 -68 12t-59 37.5t-42 65.5t-16 95q0 57 18.5 99.5t50 71t73 43t86.5 14.5q49 0 92 -16.5t75 -53.5t50.5 -97.5t18.5 -148.5q0 -76 -14.5 -142t-45.5 -114.5t-80 -76.5t-118 -28q-48 0 -85 13.5t-60.5 37.5t-32.5 57.5t-3 72.5h118q-6 -42 14.5 -60.5
t49.5 -18.5q40 0 66.5 21.5t42.5 54.5t22 72.5t6 74.5l-10 2q-22 -48 -61 -68t-88 -20zM262 559q-39 0 -68 -30.5t-29 -93.5q0 -33 8 -56.5t21 -38.5t30.5 -22t36.5 -7q43 0 71.5 31.5t28.5 91.5q0 27 -7.5 50t-21 39.5t-31.5 26t-39 9.5z" />
    <glyph glyph-name="colon" unicode=":" horiz-adv-x="249" 
d="M124 -10q-32 0 -55.5 23.5t-23.5 65.5t23.5 65.5t55.5 23.5t56 -23.5t24 -65.5t-24 -65.5t-56 -23.5zM124 309q-32 0 -55.5 23.5t-23.5 65.5t23.5 65.5t55.5 23.5t56 -23.5t24 -65.5t-24 -65.5t-56 -23.5z" />
    <glyph glyph-name="semicolon" unicode=";" horiz-adv-x="249" 
d="M124 309q-32 0 -55.5 23.5t-23.5 65.5t23.5 65.5t55.5 23.5t56 -23.5t24 -65.5t-24 -65.5t-56 -23.5zM124 168q31 0 55.5 -21.5t24.5 -70.5q0 -33 -10 -65.5t-25 -60t-32 -49t-30 -32.5l-50 16q10 12 20 27t18.5 30.5t14 29.5t7.5 24q-27 0 -49.5 21t-22.5 66
q0 42 23.5 63.5t55.5 21.5z" />
    <glyph glyph-name="less" unicode="&#x3c;" horiz-adv-x="563" 
d="M50 317l463 126v-107l-203 -49q-49 -12 -95 -20t-80 -11v-11q34 -5 80 -12t96 -19l202 -49v-107l-463 126v133z" />
    <glyph glyph-name="equal" unicode="=" horiz-adv-x="573" 
d="M523 210v-101h-473v101h473zM523 398v-101h-473v101h473z" />
    <glyph glyph-name="greater" unicode="&#x3e;" horiz-adv-x="563" 
d="M513 184l-463 -126v107l203 49q49 12 95 19.5t80 11.5v11q-34 4 -80 11.5t-95 19.5l-203 49v107l463 -126v-133z" />
    <glyph glyph-name="question" unicode="?" horiz-adv-x="429" 
d="M135 215q-1 5 -1 11v11q0 42 21.5 72.5t47.5 58t47.5 57t21.5 70.5q0 27 -16.5 47t-47.5 20q-29 0 -47.5 -16.5t-18.5 -51.5q0 -19 7 -40h-117q-3 11 -5 21t-2 20q0 40 14.5 71.5t39 53t58 32.5t72.5 11t73 -10.5t59 -31t39 -50.5t14 -69q0 -40 -12.5 -70.5t-31.5 -54.5
t-40.5 -43.5t-40.5 -38t-31.5 -38t-12.5 -42.5h-90zM187 -10q-32 0 -55.5 23.5t-23.5 65.5t23.5 65.5t55.5 23.5t56 -23.5t24 -65.5t-24 -65.5t-56 -23.5z" />
    <glyph glyph-name="at" unicode="@" horiz-adv-x="675" 
d="M493 135v5q0 15 4 33.5t11 39.5l-10 4q-7 -16 -18 -32.5t-27 -30t-37.5 -22t-49.5 -8.5q-33 0 -59 11t-44 29.5t-27.5 43.5t-9.5 53q0 53 23 87.5t60.5 55t85 29.5t96.5 11v20q0 54 -33 84.5t-96 30.5q-41 0 -79.5 -17t-68 -52t-47 -88.5t-17.5 -127.5q0 -50 12.5 -99.5
t40 -89t70 -64t102.5 -24.5q45 0 88.5 12t81.5 41l40 -68q-42 -35 -100.5 -53t-118.5 -18q-69 0 -127.5 23t-101.5 69t-67.5 113.5t-24.5 156.5q0 96 27 167t72 117.5t103.5 69.5t121.5 23q56 0 101 -16t76 -43.5t47.5 -65t16.5 -80.5v-330h-117zM411 206q22 0 37.5 11.5
t25 30t13.5 43t4 51.5v37q-42 -1 -71 -8.5t-47 -21t-26 -31t-8 -38.5q0 -32 20 -53t52 -21z" />
    <glyph glyph-name="A" unicode="A" horiz-adv-x="577" 
d="M396 121h-219l-33 -121h-134l188 648h182l187 -648h-137zM281 538q-3 -29 -10.5 -67t-21.5 -90l-40 -145h155l-38 145q-14 56 -22 92t-11 65h-12z" />
    <glyph glyph-name="B" unicode="B" horiz-adv-x="578" 
d="M524 484q0 -18 -4 -39.5t-15 -42t-31 -38t-52 -26.5v-9q31 -7 54 -22t38 -36t22 -46t7 -51q0 -57 -21 -91.5t-57 -53t-84.5 -24t-103.5 -5.5h-207v648h241q32 0 69 -3.5t69 -20t53.5 -49.5t21.5 -91zM315 111q39 0 67 17.5t28 63.5q0 24 -7 39.5t-21 23.5t-34.5 11
t-46.5 3h-101v-158h115zM200 537v-157h100q48 0 70 24t22 57q0 23 -8.5 37.5t-22.5 23t-31 12t-33 3.5h-97z" />
    <glyph glyph-name="C" unicode="C" horiz-adv-x="600" 
d="M559 234q4 -64 -14.5 -111t-53 -77.5t-80.5 -45t-97 -14.5q-63 0 -114.5 23.5t-88 67t-56.5 106.5t-20 141q0 79 20.5 141.5t58 106.5t90 67.5t117.5 23.5q52 0 98.5 -16t79.5 -48t49 -79.5t9 -109.5h-123q8 66 -21 107t-95 41q-74 0 -112 -63.5t-38 -170.5
q0 -109 39.5 -171.5t115.5 -62.5q52 0 84.5 34t31.5 110h120v0z" />
    <glyph glyph-name="D" unicode="D" horiz-adv-x="629" 
d="M295 648q72 0 128 -24t94 -67.5t57.5 -103t19.5 -129.5q0 -73 -21 -133t-60.5 -102.5t-97.5 -65.5t-131 -23h-214v648h225zM200 537v-426h84q175 0 175 213q0 105 -45.5 159t-123.5 54h-90z" />
    <glyph glyph-name="E" unicode="E" horiz-adv-x="511" 
d="M200 269v-158h276v-111h-406v648h396v-111h-266v-157h239v-111h-239z" />
    <glyph glyph-name="F" unicode="F" horiz-adv-x="495" 
d="M200 248v-248h-130v648h400v-111h-270v-178h243v-111h-243z" />
    <glyph glyph-name="G" unicode="G" horiz-adv-x="629" 
d="M328 663q52 0 100.5 -16t84 -47.5t53.5 -78.5t11 -109h-127q8 66 -25.5 106t-100.5 40q-38 0 -67.5 -16.5t-49 -47t-29.5 -73.5t-10 -97q0 -109 41 -171.5t121 -62.5q54 0 90 36.5t40 109.5h-141v101h270v-41q0 -81 -19 -139.5t-53.5 -96t-84.5 -55.5t-111 -18
q-68 0 -121 24t-89.5 68t-56 106t-19.5 139q0 78 20 140.5t57.5 106.5t92 68t123.5 24z" />
    <glyph glyph-name="H" unicode="H" horiz-adv-x="657" 
d="M587 648v-648h-130v269h-257v-269h-130v648h130v-268h257v268h130z" />
    <glyph glyph-name="I" unicode="I" horiz-adv-x="270" 
d="M200 0h-130v648h130v-648z" />
    <glyph glyph-name="J" unicode="J" horiz-adv-x="521" 
d="M163 189q-5 -20 -5 -33q0 -28 18.5 -44t61.5 -16q28 0 45 10t26.5 26.5t13 38t3.5 44.5v433h130v-421q0 -53 -11 -97.5t-36.5 -76.5t-69 -49.5t-107.5 -17.5q-42 0 -78 9t-62.5 27t-41 45t-14.5 63q0 27 9 59h118v0z" />
    <glyph glyph-name="K" unicode="K" horiz-adv-x="593" 
d="M70 0v648h130v-268h63q43 0 63.5 18.5t34.5 56.5q7 21 16.5 48.5t20 54.5t20.5 51t19 39h138q-38 -72 -65 -133t-39 -94q-8 -21 -17 -35.5t-21 -25t-28.5 -17t-39.5 -9.5v-10q48 -8 72 -27t38 -60q7 -20 19 -49t27.5 -62t32.5 -66t34 -60h-148q-8 13 -18.5 34t-21 46
t-20.5 51.5t-17 50.5q-6 21 -14 37.5t-19 27.5t-28 16.5t-41 5.5h-61v-269h-130z" />
    <glyph glyph-name="L" unicode="L" horiz-adv-x="491" 
d="M199 111h267v-111h-396v648h129v-537z" />
    <glyph glyph-name="M" unicode="M" horiz-adv-x="824" 
d="M546 648h183l55 -648h-134l-23 274q-3 41 -5.5 81t-3.5 74.5t-1 61t1 41.5h-13q-2 -24 -7.5 -58t-13.5 -72.5t-17.5 -78t-19.5 -75.5l-63 -221h-146l-62 218q-11 37 -21 78t-18 80t-14 72.5t-7 56.5h-12v-41.5t-1 -61t-3 -74.5t-5 -81l-23 -274h-132l55 648h185
q20 -76 42 -157.5t40.5 -153.5t31 -127t14.5 -79h11q2 25 11 77.5t26 116.5z" />
    <glyph glyph-name="N" unicode="N" horiz-adv-x="659" 
d="M412 313q28 -44 43.5 -84.5t29.5 -75.5l9 3q-12 47 -19 96t-7 81v315h121v-648h-123l-219 335q-28 44 -43.5 84.5t-29.5 75.5l-9 -3q12 -47 19 -96t7 -81v-315h-121v648h123z" />
    <glyph glyph-name="O" unicode="O" horiz-adv-x="642" 
d="M320 -16q-72 0 -125.5 26.5t-89 72.5t-53 108t-17.5 133q0 70 18 132t53.5 108t89 72.5t125.5 26.5t125.5 -26.5t89.5 -72.5t53.5 -108t17.5 -132q0 -71 -18 -133t-53.5 -108t-89.5 -72.5t-126 -26.5zM320 88q75 0 114.5 60.5t39.5 175.5q0 113 -39.5 174t-114.5 61
q-74 0 -113 -61t-39 -174q0 -115 39 -175.5t113 -60.5z" />
    <glyph glyph-name="P" unicode="P" horiz-adv-x="569" 
d="M286 648q55 0 102.5 -12t82 -39.5t54 -71.5t19.5 -107q0 -60 -20.5 -104t-57 -72.5t-86 -42t-107.5 -13.5h-73v-186h-130v648h216zM200 537v-240h70q66 0 104 28t38 94q0 61 -34 89.5t-109 28.5h-69z" />
    <glyph glyph-name="Q" unicode="Q" horiz-adv-x="642" 
d="M320 -16q-72 0 -125.5 26.5t-89 72.5t-53 108t-17.5 133q0 70 18 132t53.5 108t89 72.5t125.5 26.5t125.5 -26.5t89.5 -72.5t53.5 -108t17.5 -132q0 -53 -10 -101.5t-30 -89t-50 -72t-70 -50.5v-14q43 -7 69.5 -31t44 -52t31 -54t30.5 -36h-146q-24 15 -37.5 40.5
t-25.5 50.5t-27.5 45t-43.5 25q-5 0 -11 -0.5t-11 -0.5zM320 88q75 0 114.5 60.5t39.5 175.5q0 113 -39.5 174t-114.5 61q-74 0 -113 -61t-39 -174q0 -115 39 -175.5t113 -60.5z" />
    <glyph glyph-name="R" unicode="R" horiz-adv-x="583" 
d="M70 0v648h230q48 0 90 -11t73.5 -34t50 -60t18.5 -88q0 -40 -15 -69.5t-38 -50.5t-51.5 -33t-56.5 -16v-9q26 -3 45 -12t33 -23.5t24 -33t18 -39.5t16 -46.5t16 -49.5t16.5 -43.5t18.5 -29.5h-153q-9 15 -14.5 34.5t-10 40t-8.5 40t-9 34.5q-6 20 -13 34t-18 22.5
t-27 12.5t-41 4h-64v-222h-130zM397 436q0 32 -11 51.5t-28 30.5t-38.5 15t-43.5 4h-76v-204h73q22 0 44.5 5t40 16.5t28.5 31.5t11 50z" />
    <glyph glyph-name="S" unicode="S" horiz-adv-x="547" 
d="M164 208q-5 -20 -5 -33q0 -22 9.5 -37.5t25 -25.5t36 -15t41.5 -5q22 0 42.5 4t36.5 13t25.5 23.5t9.5 36.5q0 35 -25.5 54t-63.5 32t-82.5 26t-82.5 35t-63.5 58.5t-25.5 98.5q0 49 20 84.5t53 58.5t74 33.5t83 10.5q41 0 80.5 -10.5t70.5 -31.5t50 -52t19 -71
q0 -26 -7 -53h-119q2 10 3.5 18.5t1.5 16.5q0 21 -8.5 36t-22 24t-32 13.5t-37.5 4.5q-42 0 -74 -18.5t-32 -55.5q0 -34 25.5 -52.5t64.5 -32t83.5 -26.5t83.5 -36t64.5 -59.5t25.5 -97.5q0 -53 -22 -89.5t-56.5 -59t-77.5 -32t-85 -9.5q-45 0 -87.5 11t-75.5 32.5t-53 54.5
t-20 77q0 20 6 46h123z" />
    <glyph glyph-name="T" unicode="T" horiz-adv-x="532" 
d="M201 0v537h-186v111h502v-111h-186v-537h-130z" />
    <glyph glyph-name="U" unicode="U" horiz-adv-x="641" 
d="M320 88q37 0 61 10.5t38 29.5t20 46t6 61v413h131v-402q0 -58 -14.5 -105.5t-45.5 -82t-79.5 -53.5t-116.5 -19t-116.5 17t-79 49t-45 78t-14.5 104v414h130v-413q0 -34 5.5 -61t19.5 -46t38 -29.5t62 -10.5z" />
    <glyph glyph-name="V" unicode="V" horiz-adv-x="576" 
d="M295 110q3 22 10 55t16 71.5t19.5 78t19.5 73.5l71 260h135l-188 -648h-182l-186 648h136l73 -260q10 -34 20.5 -73.5t19.5 -78t15.5 -71.5t8.5 -55h12z" />
    <glyph glyph-name="W" unicode="W" horiz-adv-x="875" 
d="M591 329q8 -37 14 -66.5t10.5 -55t7.5 -49t5 -47.5h16q2 51 10 110.5t19 128.5l49 298h133l-113 -648h-198l-70 314q-8 35 -13.5 68.5t-9 61t-5.5 48.5t-3 32h-13q-1 -11 -3.5 -32t-6.5 -48.5t-10 -60.5t-13 -68l-69 -315h-195l-113 648h135l49 -298q11 -69 18.5 -128.5
t9.5 -110.5h16q2 24 5 47.5t7.5 49t10.5 55t14 66.5l67 302h173z" />
    <glyph glyph-name="X" unicode="X" horiz-adv-x="594" 
d="M400 335l179 -335h-148l-59 113q-29 54 -45.5 91t-24.5 62h-12q-5 -17 -20 -51t-44 -88l-68 -127h-143l182 329l-173 319h146l43 -82q16 -31 28.5 -56.5t22 -48.5t17 -43.5t13.5 -41.5h11q9 31 24.5 76t40.5 93l53 103h140z" />
    <glyph glyph-name="Y" unicode="Y" horiz-adv-x="556" 
d="M346 215v-215h-130v218l-206 430h139l49 -107q14 -31 27.5 -63.5t25 -62t19 -52.5t9.5 -35h11q1 12 8 34.5t17.5 51t23.5 60.5t26 62l47 112h134z" />
    <glyph glyph-name="Z" unicode="Z" horiz-adv-x="520" 
d="M486 0h-456v138l243 306q30 38 54 57t47 28v8h-336v111h452v-138l-237 -306q-32 -40 -58.5 -58.5t-48.5 -26.5v-8h340v-111z" />
    <glyph glyph-name="bracketleft" unicode="[" horiz-adv-x="307" 
d="M282 726v-107h-92v-657h92v-108h-222v872h222z" />
    <glyph glyph-name="backslash" unicode="\" horiz-adv-x="309" 
d="M142 690l147 -833h-122l-147 833h122z" />
    <glyph glyph-name="bracketright" unicode="]" horiz-adv-x="307" 
d="M247 726v-872h-222v108h92v657h-92v107h222z" />
    <glyph glyph-name="asciicircum" unicode="^" horiz-adv-x="510" 
d="M352 363l-77 170q-10 23 -16 40t-9 32h-12q-4 -26 -23 -73l-68 -169h-102l135 312h128l148 -312h-104z" />
    <glyph glyph-name="underscore" unicode="_" 
d="M509 -54v-78h-509v78h509z" />
    <glyph glyph-name="grave" unicode="`" horiz-adv-x="442" 
d="M315 541q-23 1 -52 8.5t-58.5 19.5t-57 28t-46.5 35l53 70q13 -14 33 -29t43.5 -29.5t49.5 -26t52 -17.5z" />
    <glyph glyph-name="a" unicode="a" 
d="M58 351q-5 35 5 65t35 52.5t65 35.5t97 13t94.5 -12t59.5 -35t31 -56t9 -74v-340h-122v9q0 25 17 84l-11 3q-8 -21 -20.5 -40.5t-31 -34t-44 -23t-58.5 -8.5q-38 0 -65.5 12.5t-46.5 32.5t-28 46t-9 52q0 61 28.5 97.5t72 55.5t95.5 25.5t100 8.5v28q0 88 -84 88
q-48 0 -67.5 -24.5t-11.5 -60.5h-110zM231 75q26 0 45 11.5t31 31t18 44t6 51.5v43q-52 -2 -86.5 -10.5t-55.5 -22t-29.5 -31.5t-8.5 -39q0 -35 21 -56.5t59 -21.5z" />
    <glyph glyph-name="b" unicode="b" horiz-adv-x="571" 
d="M299 431q-56 0 -81.5 -42.5t-25.5 -138.5t25.5 -136.5t81.5 -40.5q55 0 81 40.5t26 136.5t-26 138.5t-81 42.5zM190 0h-130v690h130v-166q0 -35 -5.5 -60.5t-16.5 -54.5l12 -2q6 18 17.5 37t29.5 35t44.5 26.5t62.5 10.5q42 0 79 -16t64.5 -49t43 -83t15.5 -118
q0 -132 -53 -198t-146 -66q-37 0 -63.5 11.5t-44.5 28.5t-29 37t-17 37l-12 -2q8 -20 13.5 -43.5t5.5 -49.5v-5z" />
    <glyph glyph-name="c" unicode="c" horiz-adv-x="513" 
d="M471 197q4 -46 -6 -84.5t-34.5 -66.5t-63.5 -44t-94 -16q-118 0 -178 69.5t-60 197.5q0 60 15 109t45 84t74.5 54.5t103.5 19.5q50 0 89 -14.5t64.5 -41t37 -65t6.5 -86.5h-111q5 32 -0.5 54.5t-18 37t-30 21t-37.5 6.5q-54 0 -81 -42.5t-27 -136.5q0 -98 28.5 -139
t81.5 -41q18 0 35 5.5t29.5 19t19 37.5t2.5 62h110v0z" />
    <glyph glyph-name="d" unicode="d" horiz-adv-x="571" 
d="M272 431q-55 0 -81 -42.5t-26 -138.5t26 -136.5t81 -40.5q56 0 81.5 40.5t25.5 136.5t-26 138.5t-81 42.5zM381 5q0 26 5.5 49.5t13.5 43.5l-12 2q-6 -17 -17 -37t-29 -37t-44.5 -28.5t-63.5 -11.5q-93 0 -146 66t-53 198q0 68 15.5 118t43 83t64.5 49t79 16
q36 0 62.5 -10.5t44.5 -26.5t29.5 -35t17.5 -37l12 2q-11 29 -16.5 54.5t-5.5 60.5v166h130v-690h-130v5z" />
    <glyph glyph-name="e" unicode="e" horiz-adv-x="517" 
d="M474 169q3 -42 -10 -76t-40 -58t-66.5 -36.5t-89.5 -12.5q-61 0 -105 20.5t-72.5 56.5t-42 85t-13.5 105q0 55 14 103.5t42.5 85t73 57.5t105.5 21q55 0 94 -17.5t64 -47t37 -69t12 -83.5q0 -14 -1 -33t-3 -34h-309q0 -80 28.5 -123t80.5 -43q20 0 37.5 5.5t30 17.5
t19 30.5t4.5 45.5h110zM270 437q-50 0 -76.5 -33.5t-28.5 -93.5h199v6q0 121 -94 121z" />
    <glyph glyph-name="f" unicode="f" horiz-adv-x="344" 
d="M91 575q0 70 37.5 98t96.5 28q20 0 47 -2t47 -5v-93q-12 2 -25 3t-27 1q-20 0 -35 -7t-15 -30v-61h102v-95h-102v-412h-126v412h-66v95h66v68z" />
    <glyph glyph-name="g" unicode="g" horiz-adv-x="564" 
d="M273 107q24 0 43 12t32.5 33.5t20.5 51t7 64.5t-7 65t-20.5 51.5t-32.5 33.5t-43 12q-53 0 -78 -45.5t-25 -116.5q0 -35 6 -64.5t19 -51t32.5 -33.5t45.5 -12zM230 18q-47 0 -83 19t-61 52t-38 79t-13 100q0 53 12 99t36 79.5t60.5 53t84.5 19.5q37 0 63 -11t44 -28
t29 -36.5t17 -36.5l12 2q-8 20 -13.5 43.5t-5.5 49.5v5h130v-451q0 -67 -14 -113.5t-42 -75.5t-71.5 -42t-101.5 -13q-42 0 -81.5 8t-68 28t-41 53t-1.5 83h116q-14 -43 10 -65t68 -22q43 0 70 23.5t27 88.5v12q0 27 5.5 51.5t16.5 53.5l-12 2q-6 -18 -17.5 -37t-29.5 -35.5
t-44.5 -27t-62.5 -10.5z" />
    <glyph glyph-name="h" unicode="h" horiz-adv-x="543" 
d="M488 0h-125v314q0 60 -19 84.5t-61 24.5q-39 0 -68.5 -36.5t-29.5 -109.5v-277h-125v690h125v-192q0 -12 -4.5 -34t-15.5 -51l12 -2q8 19 20 38t30 34t44 24.5t62 9.5q37 0 66 -13t49 -36t30 -55t10 -69v-344z" />
    <glyph glyph-name="i" unicode="i" horiz-adv-x="246" 
d="M60 507q15 -6 31 -8.5t32 -2.5q34 0 63 11v-507h-126v507zM123 540q-33 0 -55 18.5t-22 44.5t22 44t55 18q32 0 54.5 -18t22.5 -44t-22.5 -44.5t-54.5 -18.5z" />
    <glyph glyph-name="j" unicode="j" horiz-adv-x="246" 
d="M185 -16q0 -36 -3.5 -66t-16.5 -52.5t-39 -35t-70 -12.5q-16 0 -32.5 1t-34.5 4v91q8 -2 15.5 -2h14.5q29 0 35 20t6 55v520q15 -6 30.5 -8.5t32.5 -2.5q33 0 62 11v-523zM123 540q-33 0 -55 18.5t-22 44.5t22 44t55 18q32 0 54.5 -18t22.5 -44t-22.5 -44.5t-54.5 -18.5z
" />
    <glyph glyph-name="k" unicode="k" horiz-adv-x="510" 
d="M60 0v690h125v-391h43q28 0 44.5 13.5t25.5 40.5q14 44 31 86.5t37 67.5h133q-17 -18 -29.5 -38t-23 -42t-19 -44t-18.5 -43q-16 -35 -35 -52.5t-59 -24.5v-10q45 -6 66.5 -24.5t35.5 -56.5q16 -42 37 -87.5t51 -84.5h-139q-17 20 -33.5 60t-30.5 85q-11 34 -27.5 49.5
t-54.5 15.5h-35v-210h-125z" />
    <glyph glyph-name="l" unicode="l" horiz-adv-x="246" 
d="M186 0h-126v690h126v-690z" />
    <glyph glyph-name="m" unicode="m" horiz-adv-x="826" 
d="M177 411q20 49 60 77.5t96 28.5q24 0 45.5 -6.5t38 -20t27 -34.5t10.5 -50l13 -3q18 54 61 84t101 30q28 0 54 -8t45.5 -27.5t31 -53.5t11.5 -86v-342h-125v314q0 60 -16.5 84.5t-58.5 24.5q-39 0 -66 -36.5t-27 -109.5v-277h-125v314q0 60 -16.5 84.5t-58.5 24.5
q-39 0 -66 -36.5t-27 -109.5v-277h-125v507h125v-9q0 -12 -4.5 -34t-15.5 -51z" />
    <glyph glyph-name="n" unicode="n" horiz-adv-x="543" 
d="M488 0h-125v314q0 60 -19 84.5t-61 24.5q-39 0 -68.5 -36.5t-29.5 -109.5v-277h-125v507h125v-9q0 -12 -4.5 -34t-15.5 -51l12 -2q8 19 20 38t30 34t44 24.5t62 9.5q37 0 66 -13t49 -36t30 -55t10 -69v-344z" />
    <glyph glyph-name="o" unicode="o" horiz-adv-x="544" 
d="M272 -14q-114 0 -175.5 69t-61.5 197q0 129 61.5 198t175.5 69t175.5 -69t61.5 -198q0 -128 -61.5 -197t-175.5 -69zM272 73q55 0 81 41.5t26 137.5t-26 138t-81 42q-56 0 -81.5 -42t-25.5 -138t25.5 -137.5t81.5 -41.5z" />
    <glyph glyph-name="p" unicode="p" horiz-adv-x="571" 
d="M299 71q55 0 81 41.5t26 137.5t-26 138t-81 42q-56 0 -81.5 -42t-25.5 -138t25.5 -137.5t81.5 -41.5zM190 502q0 -26 -5.5 -49.5t-13.5 -43.5l12 -2q6 17 17 36t29 35.5t44.5 27.5t63.5 11q93 0 146 -67.5t53 -199.5q0 -68 -15.5 -117.5t-43 -82t-64.5 -48.5t-79 -16
q-36 0 -62.5 10.5t-44.5 27t-29.5 35.5t-17.5 37l-12 -2q11 -29 16.5 -54.5t5.5 -60.5v-157h-130v685h130v-5z" />
    <glyph glyph-name="q" unicode="q" horiz-adv-x="571" 
d="M272 71q55 0 81 41.5t26 137.5t-25.5 138t-81.5 42q-55 0 -81 -42t-26 -138t26 -137.5t81 -41.5zM381 507h130v-685h-130v157q0 35 5.5 60.5t16.5 54.5l-12 2q-6 -18 -17.5 -37t-29.5 -35.5t-44.5 -27t-62.5 -10.5q-42 0 -79 16t-64.5 48.5t-43 82t-15.5 117.5
q0 132 53 199.5t146 67.5q37 0 63.5 -11t44.5 -27.5t29 -35.5t17 -36l12 2q-8 20 -13.5 43.5t-5.5 49.5v5z" />
    <glyph glyph-name="r" unicode="r" horiz-adv-x="376" 
d="M169 390q12 30 25 55.5t30 44.5t38.5 29.5t51.5 10.5q8 0 17.5 -1t19.5 -3v-124h-15q-27 11 -52 11q-19 0 -37 -7.5t-31.5 -27.5t-21.5 -54t-8 -88v-236h-126v507h126v-9q0 -21 -9 -51.5t-21 -53.5z" />
    <glyph glyph-name="s" unicode="s" horiz-adv-x="475" 
d="M153 160q-4 -12 -4 -25q0 -32 26.5 -47t60.5 -15q16 0 31 3.5t27 10t19 17.5t7 26q0 25 -20.5 39t-51.5 24.5t-66.5 21t-66.5 29t-51.5 48.5t-20.5 80q0 39 16.5 67t43.5 46t61.5 26.5t70.5 8.5t70.5 -8.5t61 -25.5t42.5 -42t16 -59q0 -17 -5 -40h-110q3 15 3 27
q0 32 -23.5 46.5t-55.5 14.5q-31 0 -52 -14.5t-21 -40.5t20.5 -40.5t51.5 -24.5t67.5 -20.5t67.5 -28.5t51.5 -48t20.5 -79q0 -41 -17.5 -69.5t-46.5 -46.5t-65.5 -26.5t-75.5 -8.5q-38 0 -73.5 8.5t-64 26t-45.5 44t-17 62.5q0 18 4 33h114v0z" />
    <glyph glyph-name="t" unicode="t" horiz-adv-x="344" 
d="M217 125q0 -23 15 -30t35 -7q14 0 27 1t25 3v-93q-20 -3 -47 -5t-47 -2q-29 0 -53.5 5.5t-42.5 20t-28 38.5t-10 62v294h-66v95h66v102h126v-102h102v-95h-102v-287z" />
    <glyph glyph-name="u" unicode="u" horiz-adv-x="538" 
d="M55 507h125v-314q0 -60 17.5 -84.5t59.5 -24.5q39 0 67.5 36.5t28.5 109.5v277h125v-507h-125v9q0 12 4.5 34t15.5 51l-12 2q-8 -20 -19.5 -39t-29.5 -34t-43.5 -24t-61.5 -9q-38 0 -66 13t-47.5 36t-29 54.5t-9.5 69.5v344z" />
    <glyph glyph-name="v" unicode="v" horiz-adv-x="482" 
d="M250 90q3 19 6.5 38t8.5 41.5t11.5 50.5t15.5 64l56 223h126l-148 -507h-171l-147 507h128l55 -214q12 -45 19.5 -76.5t13 -55t8.5 -40t5 -31.5h13v0z" />
    <glyph glyph-name="w" unicode="w" horiz-adv-x="755" 
d="M506 268q5 -28 9 -56t7 -52t5 -42.5t2 -27.5h13q2 26 9.5 74t19.5 103l51 240h125l-118 -507h-172l-50 244q-3 18 -7 39t-7.5 43t-6.5 42.5t-4 36.5h-10q-2 -16 -5 -36.5t-6.5 -42.5t-7.5 -43t-7 -39l-49 -244h-172l-117 507h129l52 -238q12 -57 19 -105t9 -74h13
q1 9 2.5 27.5t4.5 42.5t7.5 52t9.5 56l46 239h159z" />
    <glyph glyph-name="x" unicode="x" horiz-adv-x="477" 
d="M330 258l135 -258h-135l-44 88q-7 14 -14 31t-13 33.5t-10.5 31t-6.5 25.5h-11q-5 -22 -15.5 -52.5t-28.5 -69.5l-42 -87h-132l131 258l-132 249h135l31 -65q21 -45 35.5 -79.5t21.5 -59.5h10q16 52 51 127l36 77h131z" />
    <glyph glyph-name="y" unicode="y" horiz-adv-x="480" 
d="M250 95q2 18 6 41t10 52.5t15 67.5t23 87l44 164h124l-209 -685h-129l44 132l-170 553h128l45 -158q16 -56 26.5 -97.5t16.5 -71.5t9 -50.5t5 -34.5h12v0z" />
    <glyph glyph-name="z" unicode="z" horiz-adv-x="446" 
d="M210 330q15 18 30.5 31t29.5 22t25.5 13.5t17.5 5.5v10h-276v95h373v-110l-180 -220q-15 -18 -30.5 -31t-29.5 -22t-25.5 -13.5t-17.5 -5.5v-10h289v-95h-386v110z" />
    <glyph glyph-name="braceleft" unicode="{" horiz-adv-x="369" 
d="M143 287q51 -14 79.5 -46.5t28.5 -95.5v-156q0 -12 6 -20t20 -8h67v-107h-81q-30 0 -55.5 8.5t-45 26t-30.5 42.5t-11 58v157q0 40 -11.5 63.5t-53.5 23.5h-26v118h26q42 0 53.5 24t11.5 64v154q0 33 11 58t30.5 42.5t45 26t55.5 8.5h81v-107h-67q-14 0 -20 -8t-6 -20
v-153q0 -63 -28.5 -95.5t-79.5 -46.5v-11z" />
    <glyph glyph-name="bar" unicode="|" horiz-adv-x="363" 
d="M243 690v-841h-123v841h123z" />
    <glyph glyph-name="braceright" unicode="}" horiz-adv-x="369" 
d="M226 298q-51 14 -79.5 46.5t-28.5 95.5v153q0 12 -6 20t-20 8h-67v107h81q30 0 55.5 -8.5t45 -26t30.5 -42.5t11 -58v-154q0 -40 11.5 -64t53.5 -24h26v-118h-26q-42 0 -53.5 -23.5t-11.5 -63.5v-157q0 -33 -11 -58t-30.5 -42.5t-45 -26t-55.5 -8.5h-81v107h67q14 0 20 8
t6 20v156q0 63 28.5 95.5t79.5 46.5v11z" />
    <glyph glyph-name="asciitilde" unicode="~" horiz-adv-x="524" 
d="M479 291q-36 -46 -69 -63.5t-62 -17.5q-24 0 -49.5 9t-51 20.5t-50.5 20.5t-47 9q-17 0 -33 -10t-36 -35l-36 68q38 49 73 67.5t65 18.5q24 0 50 -9t51.5 -20t50.5 -20t48 -9q16 0 31.5 9t34.5 30z" />
    <glyph glyph-name="uni00A0" unicode="&#xa0;" horiz-adv-x="190" 
 />
    <glyph glyph-name="exclamdown" unicode="&#xa1;" horiz-adv-x="273" 
d="M61 -139l24 433h98l25 -433h-147zM134 519q32 0 56 -23.5t24 -65.5t-24 -65.5t-56 -23.5t-55.5 23.5t-23.5 65.5t23.5 65.5t55.5 23.5z" />
    <glyph glyph-name="cent" unicode="&#xa2;" horiz-adv-x="461" 
d="M415 200q6 -67 -24 -112.5t-96 -58.5v-74h-97v74q-76 13 -114.5 69t-38.5 149q0 89 38.5 147.5t114.5 72.5v78h97v-78q62 -12 94 -55.5t24 -112.5h-93q4 26 0 44.5t-14 30.5t-23.5 17.5t-29.5 5.5q-48 0 -71.5 -34t-23.5 -115t22 -115t64 -35q14 0 29 3.5t27 14t18 31
t3 53.5h94v0z" />
    <glyph glyph-name="sterling" unicode="&#xa3;" horiz-adv-x="550" 
d="M95 356q-3 24 -6 48.5t-3 47.5q0 98 58 154t165 56q91 0 143.5 -42.5t57.5 -113.5l-111 -25q-1 18 -8.5 32.5t-19.5 24.5t-27.5 15t-31.5 5q-35 0 -60.5 -24t-25.5 -75q0 -23 2.5 -50t5.5 -53h140v-77h-132q2 -44 -1.5 -86.5t-29.5 -81.5v-7h293v-104h-439q28 42 38 88.5
t10 94.5q0 22 -2 49t-5 47h-66v77h55z" />
    <glyph glyph-name="currency" unicode="&#xa4;" horiz-adv-x="580" 
d="M455 48l-81 81q-41 -22 -88 -22q-45 0 -83 20l-79 -79l-69 70l74 74q-25 41 -25 91q0 26 7 48.5t19 41.5l-75 76l69 69l79 -79q19 9 39.5 14.5t43.5 5.5q24 0 46 -6t42 -17l81 82l70 -69l-80 -80q11 -19 17 -40.5t6 -45.5t-6 -45.5t-17 -40.5l80 -79zM285 195
q38 0 62.5 25.5t24.5 62.5t-24.5 62.5t-62.5 25.5q-36 0 -61 -25.5t-25 -62.5t25 -62.5t61 -25.5z" />
    <glyph glyph-name="yen" unicode="&#xa5;" horiz-adv-x="586" 
d="M231 193v25l-11 23h-123v77h86l-158 330h139l49 -107q14 -31 27.5 -63.5t25 -62t19 -52.5t9.5 -35h11q1 12 8 34.5t17.5 51t23.5 60.5t26 62l47 112h134l-153 -330h85v-77h-120l-12 -26v-22h132v-77h-132v-116h-130v116h-134v77h134z" />
    <glyph glyph-name="brokenbar" unicode="&#xa6;" horiz-adv-x="363" 
d="M243 -151h-123v325h123v-325zM120 690h123v-316h-123v316z" />
    <glyph glyph-name="section" unicode="&#xa7;" horiz-adv-x="525" 
d="M267 173q39 0 61.5 22t22.5 59q0 40 -22.5 62.5t-62.5 22.5q-42 0 -65.5 -22t-23.5 -60q0 -39 24.5 -61.5t65.5 -22.5zM332 115q57 -20 89.5 -56.5t32.5 -95.5q0 -37 -15 -65.5t-41.5 -47.5t-62 -29t-75.5 -10q-46 0 -85 10t-66 31t-38.5 53.5t-1.5 77.5h113
q-10 -44 12.5 -64t64.5 -20q73 0 73 59q0 29 -20.5 48.5t-51.5 35.5t-66.5 32t-66.5 38t-51.5 53.5t-20.5 78.5q0 53 35.5 91t101.5 51v10q-57 19 -90 55.5t-33 96.5q0 38 15 66.5t41 47.5t61.5 28.5t76.5 9.5q44 0 82 -10t64.5 -31t38 -54t2.5 -78h-113q9 44 -13.5 64
t-61.5 20q-35 0 -52.5 -16t-17.5 -42q0 -29 20.5 -48.5t51.5 -36t67 -32.5t67 -38t51.5 -53t20.5 -78q0 -53 -35.5 -92t-102.5 -51v-9z" />
    <glyph glyph-name="dieresis" unicode="&#xa8;" horiz-adv-x="517" 
d="M171 548q-31 0 -51 17t-20 41q0 23 20 40t51 17q30 0 50.5 -17t20.5 -40q0 -24 -20.5 -41t-50.5 -17zM346 548q-31 0 -51 17t-20 41q0 23 20 40t51 17q30 0 50.5 -17t20.5 -40q0 -24 -20.5 -41t-50.5 -17z" />
    <glyph glyph-name="copyright" unicode="&#xa9;" horiz-adv-x="824" 
d="M413 -31q-74 0 -139.5 26.5t-114 74t-76.5 113t-28 143.5q0 77 28 142.5t76.5 113t114 74t139.5 26.5q73 0 138 -26.5t113.5 -74t76.5 -113t28 -142.5q0 -78 -28 -143.5t-76.5 -113t-113.5 -74t-138 -26.5zM413 16q63 0 118 23.5t96.5 64.5t65 98t23.5 124
q0 66 -23.5 123t-65 98t-96.5 64.5t-118 23.5q-64 0 -119.5 -23.5t-97 -64.5t-65 -98t-23.5 -123q0 -67 23.5 -124t65 -98t97 -64.5t119.5 -23.5zM594 277q4 -40 -5 -73.5t-31 -57.5t-56 -37.5t-81 -13.5q-103 0 -156 59.5t-53 169.5q0 107 53 169.5t156 62.5
q87 0 134.5 -46.5t37.5 -131.5h-98q7 55 -16.5 77.5t-57.5 22.5q-46 0 -68.5 -35.5t-22.5 -116.5q0 -43 6 -72.5t17.5 -47.5t29 -26t40.5 -8q15 0 30 4t26.5 15.5t16.5 32t0 53.5h98z" />
    <glyph glyph-name="ordfeminine" unicode="&#xaa;" horiz-adv-x="398" 
d="M62 543q-4 24 2.5 46t23.5 38.5t46 26t70 9.5q40 0 67 -9t43 -25t22.5 -38.5t6.5 -49.5v-250h-90v6q0 9 3 25.5t11 38.5h-8q-11 -31 -35 -55t-73 -24q-27 0 -46.5 8.5t-33 23t-20 32.5t-6.5 37q0 44 19.5 70t50 40t67 19t70.5 7v29q0 56 -57 56q-31 0 -44.5 -17.5
t-8.5 -43.5h-80zM185 344q17 0 29.5 7.5t21 19.5t12.5 27t4 31v45q-38 -2 -61.5 -8.5t-37 -17t-18 -23.5t-4.5 -27q0 -26 14.5 -40t39.5 -14z" />
    <glyph glyph-name="guillemotleft" unicode="&#xab;" horiz-adv-x="431" 
d="M223 471l-81 -224l81 -221h-107l-81 221l81 224h107zM396 471l-81 -224l81 -221h-107l-81 221l81 224h107z" />
    <glyph glyph-name="logicalnot" unicode="&#xac;" horiz-adv-x="517" 
d="M467 348v-274h-100v177h-317v97h417z" />
    <glyph glyph-name="uni00AD" unicode="&#xad;" horiz-adv-x="348" 
d="M303 309v-110h-258v110h258z" />
    <glyph glyph-name="registered" unicode="&#xae;" horiz-adv-x="632" 
d="M317 252q-59 0 -110 21t-89.5 58.5t-60.5 89t-22 113.5q0 60 22 111t60.5 88.5t89.5 59t110 21.5q58 0 109 -21.5t89 -59t60 -88.5t22 -111q0 -62 -22 -113.5t-60 -89t-89 -58.5t-109 -21zM317 287q49 0 92.5 17.5t75.5 49.5t50.5 78t18.5 102q0 54 -18.5 99t-50.5 77.5
t-75.5 50.5t-92.5 18q-51 0 -94 -18t-75 -50.5t-50 -77.5t-18 -99q0 -56 18 -102t50 -78t75 -49.5t94 -17.5zM376 592q0 23 -13.5 33.5t-32.5 10.5h-51v-88h48q19 0 34 11t15 33zM387 380q-9 20 -15.5 39.5t-11.5 36.5q-6 23 -15.5 30t-29.5 7h-36v-113h-77v310h141
q22 0 42 -5.5t35.5 -16.5t24.5 -27.5t9 -39.5q0 -14 -5 -27.5t-15.5 -24.5t-28 -18t-41.5 -8v-7q29 -2 45.5 -16t24.5 -39q4 -10 8.5 -22.5t9.5 -24t10 -21t9 -13.5h-84z" />
    <glyph glyph-name="macron" unicode="&#xaf;" horiz-adv-x="458" 
d="M358 650v-85h-258v85h258z" />
    <glyph glyph-name="degree" unicode="&#xb0;" horiz-adv-x="395" 
d="M197 413q-31 0 -58.5 11t-48.5 30.5t-33 46.5t-12 59t12 59t33 46.5t48.5 30.5t58.5 11q32 0 60 -11t48.5 -30.5t32.5 -46.5t12 -59t-12 -59t-32.5 -46.5t-48.5 -30.5t-60 -11zM197 497q27 0 45 17t18 46t-18 46.5t-45 17.5q-26 0 -44 -17.5t-18 -46.5t18 -46t44 -17z
" />
    <glyph glyph-name="plusminus" unicode="&#xb1;" horiz-adv-x="573" 
d="M340 371h183v-100h-183v-125h-108v125h-182v100h182v131h108v-131zM523 100v-100h-473v100h473z" />
    <glyph glyph-name="twosuperior" unicode="&#xb2;" horiz-adv-x="336" 
d="M291 546q0 -57 -41.5 -106t-116.5 -79v-7h163v-69h-244v72q82 51 118.5 95.5t36.5 92.5q0 25 -12 37t-32 12q-23 0 -34 -11t-11 -30q0 -14 4 -26h-77q-5 18 -5 31q0 23 10 42.5t27 33.5t39.5 21.5t47.5 7.5q24 0 47 -6.5t41 -21t28.5 -36.5t10.5 -53z" />
    <glyph glyph-name="threesuperior" unicode="&#xb3;" horiz-adv-x="343" 
d="M238 473q31 -11 48 -33.5t17 -57.5q0 -51 -37.5 -77t-95.5 -26q-25 0 -48.5 6.5t-41.5 20t-28.5 32.5t-10.5 45q0 12 3 27h79q-3 -9 -3 -17q0 -20 15 -34.5t37 -14.5t35.5 11t13.5 36q0 26 -15 38.5t-37 12.5h-27v61h26q23 0 36.5 13.5t13.5 36.5q0 24 -13.5 35t-33.5 11
q-46 0 -46 -41q0 -12 4 -23h-77q-4 13 -4 29q0 22 10 40.5t27 31.5t39.5 20t47.5 7q57 0 92 -25t35 -72q0 -37 -17 -55.5t-44 -30.5v-7v0z" />
    <glyph glyph-name="acute" unicode="&#xb4;" horiz-adv-x="432" 
d="M101 597q25 6 51.5 17.5t50 26t43.5 29.5t33 29l53 -67q-19 -19 -46.5 -35t-57 -28t-59 -19.5t-51.5 -8.5z" />
    <glyph glyph-name="mu" unicode="&#xb5;" horiz-adv-x="544" 
d="M215 -10q-17 0 -35 5v-173h-120v685h128v-298q0 -62 18 -88.5t57 -26.5q38 0 65.5 38t27.5 117v258h128v-507h-121v7q0 16 4.5 40t9.5 47q-4 1 -12 5q-20 -49 -55.5 -79t-94.5 -30z" />
    <glyph glyph-name="paragraph" unicode="&#xb6;" horiz-adv-x="578" 
d="M211 264q-36 0 -68.5 11t-57 34.5t-39.5 60t-15 87.5q0 49 15 85t39.5 59.5t57 35t68.5 11.5h95v-799h-95v415zM445 648v-799h-95v799h95z" />
    <glyph glyph-name="periodcentered" unicode="&#xb7;" horiz-adv-x="290" 
d="M146 239q-30 0 -53 24t-23 67t23 66t53 23q29 0 51.5 -23t22.5 -66t-22.5 -67t-51.5 -24z" />
    <glyph glyph-name="cedilla" unicode="&#xb8;" horiz-adv-x="600" 
d="M336 21l-17 -47q18 0 36 -4t32.5 -12.5t23.5 -22.5t9 -33q0 -21 -9.5 -37t-24.5 -26.5t-34 -15.5t-39 -5q-36 0 -64.5 16t-28.5 46q0 12 4 23h60q-2 -4 -2 -10q0 -11 9.5 -17t21.5 -6t22.5 7t10.5 22q0 18 -17.5 26t-42.5 8q-11 0 -22.5 -1.5t-23.5 -3.5l-4 2l32 90z" />
    <glyph glyph-name="onesuperior" unicode="&#xb9;" horiz-adv-x="255" 
d="M45 590q57 5 77 58h73v-370h-84v273h-5q-8 -22 -25.5 -32.5t-35.5 -10.5v82v0z" />
    <glyph glyph-name="ordmasculine" unicode="&#xba;" horiz-adv-x="421" 
d="M211 282q-83 0 -127 49t-44 141q0 93 44 142t127 49q81 0 125.5 -49t44.5 -142q0 -92 -44.5 -141t-125.5 -49zM211 348q33 0 52 26.5t19 97.5q0 69 -19 97.5t-51 28.5q-35 0 -54 -28t-19 -98q0 -71 19 -97.5t53 -26.5z" />
    <glyph glyph-name="guillemotright" unicode="&#xbb;" horiz-adv-x="431" 
d="M315 471l81 -224l-81 -221h-107l81 221l-81 224h107zM142 471l81 -224l-81 -221h-107l81 221l-81 224h107z" />
    <glyph glyph-name="onequarter" unicode="&#xbc;" horiz-adv-x="741" 
d="M629 648l-458 -648h-87l458 648h87zM45 590q57 5 77 58h72v-370h-84v273h-5q-8 -22 -25 -32.5t-35 -10.5v82zM631 180q31 -11 48 -33.5t17 -57.5q0 -51 -37.5 -77t-95.5 -26q-25 0 -48.5 6.5t-41.5 20t-28.5 32.5t-10.5 45q0 12 3 27h79q-3 -9 -3 -17q0 -20 15 -34.5
t37 -14.5t35.5 11t13.5 36q0 26 -15 38.5t-37 12.5h-27v61h26q23 0 36.5 13.5t13.5 36.5q0 24 -13.5 35t-33.5 11q-46 0 -46 -41q0 -12 4 -23h-77q-4 13 -4 29q0 22 10 40.5t27 31.5t39.5 20t47.5 7q57 0 92 -25t35 -72q0 -37 -17 -55.5t-44 -30.5v-7z" />
    <glyph glyph-name="onehalf" unicode="&#xbd;" horiz-adv-x="750" 
d="M629 648l-458 -648h-87l458 648h87zM45 590q57 5 77 58h72v-370h-84v273h-5q-8 -22 -25 -32.5t-35 -10.5v82zM700 261q0 -57 -41.5 -106t-116.5 -79v-7h163v-69h-244v72q82 51 118.5 95.5t36.5 92.5q0 25 -12 37t-32 12q-23 0 -34 -11t-11 -30q0 -14 4 -26h-77
q-5 18 -5 31q0 23 10 42.5t27 33.5t39.5 21.5t47.5 7.5q24 0 47 -6.5t41 -21t28.5 -36.5t10.5 -53z" />
    <glyph glyph-name="threequarters" unicode="&#xbe;" horiz-adv-x="776" 
d="M736 78h-50v-78h-82v78h-163v58q35 45 56.5 105.5t28.5 123.5h89q-8 -64 -33 -117.5t-53 -95.5v-6h75v118h82v-118h50v-68zM667 648l-458 -648h-87l458 648h87zM238 473q31 -11 48 -33.5t17 -57.5q0 -51 -37.5 -77t-95.5 -26q-25 0 -48.5 6.5t-41.5 20t-28.5 32.5
t-10.5 45q0 12 3 27h79q-3 -9 -3 -17q0 -20 15 -34.5t37 -14.5t35.5 11t13.5 36q0 26 -15 38.5t-37 12.5h-27v61h26q23 0 36.5 13.5t13.5 36.5q0 24 -13.5 35t-33.5 11q-46 0 -46 -41q0 -12 4 -23h-77q-4 13 -4 29q0 22 10 40.5t27 31.5t39.5 20t47.5 7q57 0 92 -25t35 -72
q0 -37 -17 -55.5t-44 -30.5v-7z" />
    <glyph glyph-name="questiondown" unicode="&#xbf;" horiz-adv-x="429" 
d="M294 294q1 -5 1 -11v-11q0 -42 -21.5 -72.5t-47.5 -58t-47.5 -57t-21.5 -70.5q0 -27 16.5 -47t47.5 -20q29 0 47.5 16.5t18.5 51.5q0 19 -7 40h117q3 -11 5 -21t2 -20q0 -40 -14.5 -71.5t-39 -53t-58 -32.5t-72.5 -11t-73 10.5t-59 31t-39 50.5t-14 69q0 40 12.5 70.5
t31.5 54.5t40.5 43.5t40.5 38t31.5 37.5t12.5 43h90zM242 519q32 0 55.5 -23.5t23.5 -65.5t-23.5 -65.5t-55.5 -23.5t-56 23.5t-24 65.5t24 65.5t56 23.5z" />
    <glyph glyph-name="Agrave" unicode="&#xc0;" horiz-adv-x="577" 
d="M396 121h-219l-33 -121h-134l188 648h182l187 -648h-137zM281 538q-3 -29 -10.5 -67t-21.5 -90l-40 -145h155l-38 145q-14 56 -22 92t-11 65h-12zM369 679q-19 0 -48 4t-60.5 12.5t-61.5 20.5t-51 29l49 86q14 -14 39 -29t53 -27t55 -21t46 -11z" />
    <glyph glyph-name="Aacute" unicode="&#xc1;" horiz-adv-x="577" 
d="M396 121h-219l-33 -121h-134l188 648h182l187 -648h-137zM281 538q-3 -29 -10.5 -67t-21.5 -90l-40 -145h155l-38 145q-14 56 -22 92t-11 65h-12zM183 740q19 2 46 11t55 21t53 27t39 29l48 -83q-21 -17 -51 -29t-61.5 -20.5t-60.5 -12.5t-48 -4z" />
    <glyph glyph-name="Acircumflex" unicode="&#xc2;" horiz-adv-x="577" 
d="M396 121h-219l-33 -121h-134l188 648h182l187 -648h-137zM281 538q-3 -29 -10.5 -67t-21.5 -90l-40 -145h155l-38 145q-14 56 -22 92t-11 65h-12zM131 681q15 12 30.5 27t29 30t24.5 30t17 27h106q5 -11 17.5 -27t28 -32.5t31.5 -31t28 -23.5h-108l-47 70h-6l-46 -70
h-105z" />
    <glyph glyph-name="Atilde" unicode="&#xc3;" horiz-adv-x="577" 
d="M396 121h-219l-33 -121h-134l188 648h182l187 -648h-137zM281 538q-3 -29 -10.5 -67t-21.5 -90l-40 -145h155l-38 145q-14 56 -22 92t-11 65h-12zM227 800q26 0 44 -8t31 -17t23 -17t21 -8q6 0 11 5.5t5 18.5q0 4 -0.5 8.5t-1.5 9.5h70q2 -9 3 -17.5t1 -16.5
q0 -44 -25.5 -62t-59.5 -18q-26 0 -44 8t-31 17t-23.5 17t-20.5 8q-16 0 -16 -24q0 -4 0.5 -8.5t1.5 -9.5h-70q-4 16 -4 33q0 44 25.5 62.5t59.5 18.5z" />
    <glyph glyph-name="Adieresis" unicode="&#xc4;" horiz-adv-x="577" 
d="M396 121h-219l-33 -121h-134l188 648h182l187 -648h-137zM281 538q-3 -29 -10.5 -67t-21.5 -90l-40 -145h155l-38 145q-14 56 -22 92t-11 65h-12zM198 682q-31 0 -51 17t-20 41q0 23 20 40t51 17q30 0 50.5 -17t20.5 -40q0 -24 -20.5 -41t-50.5 -17zM373 682
q-31 0 -51 17t-20 41q0 23 20 40t51 17q30 0 50.5 -17t20.5 -40q0 -24 -20.5 -41t-50.5 -17z" />
    <glyph glyph-name="Aring" unicode="&#xc5;" horiz-adv-x="577" 
d="M396 121h-219l-33 -121h-134l188 648h182l187 -648h-137zM281 538q-3 -29 -10.5 -67t-21.5 -90l-40 -145h155l-38 145q-14 56 -22 92t-11 65h-12zM288 656q-22 0 -42 6.5t-35 18.5t-24 28.5t-9 36.5q0 19 9 35.5t24 28t35 18t42 6.5q21 0 41 -6.5t35 -18t24 -28t9 -35.5
q0 -20 -9 -36.5t-24 -28.5t-35 -18.5t-41 -6.5zM288 703q17 0 29 12t12 32q0 16 -12 27.5t-29 11.5q-18 0 -30 -11.5t-12 -27.5q0 -20 12 -32t30 -12z" />
    <glyph glyph-name="AE" unicode="&#xc6;" horiz-adv-x="774" 
d="M484 269l36 -158h224v-111h-335l-28 121h-202l-33 -121h-136l188 648h531v-111h-307l35 -157h222v-111h-195zM283 547q-2 -21 -9.5 -67t-22.5 -100l-40 -144h142l-32 144q-12 54 -18 100t-8 67h-12z" />
    <glyph glyph-name="Ccedilla" unicode="&#xc7;" horiz-adv-x="600" 
d="M559 234q4 -64 -14.5 -111t-53 -77.5t-80.5 -45t-97 -14.5q-63 0 -114.5 23.5t-88 67t-56.5 106.5t-20 141q0 79 20.5 141.5t58 106.5t90 67.5t117.5 23.5q52 0 98.5 -16t79.5 -48t49 -79.5t9 -109.5h-123q8 66 -21 107t-95 41q-74 0 -112 -63.5t-38 -170.5
q0 -109 39.5 -171.5t115.5 -62.5q52 0 84.5 34t31.5 110h120v0zM343 17l-17 -47q18 0 36 -4t32.5 -12.5t23.5 -22.5t9 -33q0 -21 -9.5 -37t-24.5 -26.5t-34 -15.5t-39 -5q-36 0 -64.5 16t-28.5 46q0 12 4 23h60q-2 -4 -2 -10q0 -11 9.5 -17t21.5 -6t22.5 7t10.5 22
q0 18 -17.5 26t-42.5 8q-11 0 -22.5 -1.5t-23.5 -3.5l-4 2l32 90z" />
    <glyph glyph-name="Egrave" unicode="&#xc8;" horiz-adv-x="516" 
d="M200 269v-158h276v-111h-406v648h396v-111h-266v-157h239v-111h-239zM354 679q-19 0 -48 4t-60.5 12.5t-61.5 20.5t-51 29l49 86q14 -14 39 -29t53 -27t55 -21t46 -11z" />
    <glyph glyph-name="Eacute" unicode="&#xc9;" horiz-adv-x="511" 
d="M200 269v-158h276v-111h-406v648h396v-111h-266v-157h239v-111h-239zM173 740q19 2 46 11t55 21t53 27t39 29l48 -83q-21 -17 -51 -29t-61.5 -20.5t-60.5 -12.5t-48 -4z" />
    <glyph glyph-name="Ecircumflex" unicode="&#xca;" horiz-adv-x="511" 
d="M200 269v-158h276v-111h-406v648h396v-111h-266v-157h239v-111h-239zM117 681q15 12 30.5 27t29 30t24.5 30t17 27h106q5 -11 17.5 -27t28 -32.5t31.5 -31t28 -23.5h-108l-47 70h-6l-46 -70h-105z" />
    <glyph glyph-name="Edieresis" unicode="&#xcb;" horiz-adv-x="516" 
d="M200 269v-158h276v-111h-406v648h396v-111h-266v-157h239v-111h-239zM186 682q-31 0 -51 17t-20 41q0 23 20 40t51 17q30 0 50.5 -17t20.5 -40q0 -24 -20.5 -41t-50.5 -17zM361 682q-31 0 -51 17t-20 41q0 23 20 40t51 17q30 0 50.5 -17t20.5 -40q0 -24 -20.5 -41
t-50.5 -17z" />
    <glyph glyph-name="Igrave" unicode="&#xcc;" horiz-adv-x="270" 
d="M200 0h-130v648h130v-648zM210 679q-19 0 -48 4t-60.5 12.5t-61.5 20.5t-51 29l49 86q14 -14 39 -29t53 -27t55 -21t46 -11z" />
    <glyph glyph-name="Iacute" unicode="&#xcd;" horiz-adv-x="270" 
d="M200 0h-130v648h130v-648zM42 740q19 2 46 11t55 21t53 27t39 29l48 -83q-21 -17 -51 -29t-61.5 -20.5t-60.5 -12.5t-48 -4z" />
    <glyph glyph-name="Icircumflex" unicode="&#xce;" horiz-adv-x="270" 
d="M200 0h-130v648h130v-648zM-20 681q15 12 30.5 27t29 30t24.5 30t17 27h106q5 -11 17.5 -27t28 -32.5t31.5 -31t28 -23.5h-108l-47 70h-6l-46 -70h-105z" />
    <glyph glyph-name="Idieresis" unicode="&#xcf;" horiz-adv-x="270" 
d="M200 0h-130v648h130v-648zM53 682q-31 0 -51 17t-20 41q0 23 20 40t51 17q30 0 50.5 -17t20.5 -40q0 -24 -20.5 -41t-50.5 -17zM228 682q-31 0 -51 17t-20 41q0 23 20 40t51 17q30 0 50.5 -17t20.5 -40q0 -24 -20.5 -41t-50.5 -17z" />
    <glyph glyph-name="Eth" unicode="&#xd0;" horiz-adv-x="631" 
d="M297 648q72 0 128 -24t94 -67.5t57.5 -103t19.5 -129.5q0 -73 -21 -133t-60.5 -102.5t-97.5 -65.5t-131 -23h-214v275h-62v92h62v281h225zM202 275v-164h84q175 0 175 213q0 105 -45.5 159t-123.5 54h-90v-170h110v-92h-110z" />
    <glyph glyph-name="Ntilde" unicode="&#xd1;" horiz-adv-x="659" 
d="M412 313q28 -44 43.5 -84.5t29.5 -75.5l9 3q-12 47 -19 96t-7 81v315h121v-648h-123l-219 335q-28 44 -43.5 84.5t-29.5 75.5l-9 -3q12 -47 19 -96t7 -81v-315h-121v648h123zM268 800q26 0 44 -8t31 -17t23 -17t21 -8q6 0 11 5.5t5 18.5q0 4 -0.5 8.5t-1.5 9.5h70
q2 -9 3 -17.5t1 -16.5q0 -44 -25.5 -62t-59.5 -18q-26 0 -44 8t-31 17t-23.5 17t-20.5 8q-16 0 -16 -24q0 -4 0.5 -8.5t1.5 -9.5h-70q-4 16 -4 33q0 44 25.5 62.5t59.5 18.5z" />
    <glyph glyph-name="Ograve" unicode="&#xd2;" horiz-adv-x="642" 
d="M320 -16q-72 0 -125.5 26.5t-89 72.5t-53 108t-17.5 133q0 70 18 132t53.5 108t89 72.5t125.5 26.5t125.5 -26.5t89.5 -72.5t53.5 -108t17.5 -132q0 -71 -18 -133t-53.5 -108t-89.5 -72.5t-126 -26.5zM320 88q75 0 114.5 60.5t39.5 175.5q0 113 -39.5 174t-114.5 61
q-74 0 -113 -61t-39 -174q0 -115 39 -175.5t113 -60.5zM397 679q-19 0 -48 4t-60.5 12.5t-61.5 20.5t-51 29l49 86q14 -14 39 -29t53 -27t55 -21t46 -11z" />
    <glyph glyph-name="Oacute" unicode="&#xd3;" horiz-adv-x="642" 
d="M320 -16q-72 0 -125.5 26.5t-89 72.5t-53 108t-17.5 133q0 70 18 132t53.5 108t89 72.5t125.5 26.5t125.5 -26.5t89.5 -72.5t53.5 -108t17.5 -132q0 -71 -18 -133t-53.5 -108t-89.5 -72.5t-126 -26.5zM320 88q75 0 114.5 60.5t39.5 175.5q0 113 -39.5 174t-114.5 61
q-74 0 -113 -61t-39 -174q0 -115 39 -175.5t113 -60.5zM234 740q19 2 46 11t55 21t53 27t39 29l48 -83q-21 -17 -51 -29t-61.5 -20.5t-60.5 -12.5t-48 -4z" />
    <glyph glyph-name="Ocircumflex" unicode="&#xd4;" horiz-adv-x="642" 
d="M320 -16q-72 0 -125.5 26.5t-89 72.5t-53 108t-17.5 133q0 70 18 132t53.5 108t89 72.5t125.5 26.5t125.5 -26.5t89.5 -72.5t53.5 -108t17.5 -132q0 -71 -18 -133t-53.5 -108t-89.5 -72.5t-126 -26.5zM320 88q75 0 114.5 60.5t39.5 175.5q0 113 -39.5 174t-114.5 61
q-74 0 -113 -61t-39 -174q0 -115 39 -175.5t113 -60.5zM470 795q-15 -12 -30.5 -27t-29 -30t-24.5 -30t-17 -27h-106q-5 11 -17.5 27t-28 32.5t-31.5 31t-28 23.5h108l47 -70h6l46 70h105z" />
    <glyph glyph-name="Otilde" unicode="&#xd5;" horiz-adv-x="642" 
d="M320 -16q-72 0 -125.5 26.5t-89 72.5t-53 108t-17.5 133q0 70 18 132t53.5 108t89 72.5t125.5 26.5t125.5 -26.5t89.5 -72.5t53.5 -108t17.5 -132q0 -71 -18 -133t-53.5 -108t-89.5 -72.5t-126 -26.5zM320 88q75 0 114.5 60.5t39.5 175.5q0 113 -39.5 174t-114.5 61
q-74 0 -113 -61t-39 -174q0 -115 39 -175.5t113 -60.5zM260 800q26 0 44 -8t31 -17t23 -17t21 -8q6 0 11 5.5t5 18.5q0 4 -0.5 8.5t-1.5 9.5h70q2 -9 3 -17.5t1 -16.5q0 -44 -25.5 -62t-59.5 -18q-26 0 -44 8t-31 17t-23.5 17t-20.5 8q-16 0 -16 -24q0 -4 0.5 -8.5t1.5 -9.5
h-70q-4 16 -4 33q0 44 25.5 62.5t59.5 18.5z" />
    <glyph glyph-name="Odieresis" unicode="&#xd6;" horiz-adv-x="642" 
d="M320 -16q-72 0 -125.5 26.5t-89 72.5t-53 108t-17.5 133q0 70 18 132t53.5 108t89 72.5t125.5 26.5t125.5 -26.5t89.5 -72.5t53.5 -108t17.5 -132q0 -71 -18 -133t-53.5 -108t-89.5 -72.5t-126 -26.5zM320 88q75 0 114.5 60.5t39.5 175.5q0 113 -39.5 174t-114.5 61
q-74 0 -113 -61t-39 -174q0 -115 39 -175.5t113 -60.5zM234 682q-31 0 -51 17t-20 41q0 23 20 40t51 17q30 0 50.5 -17t20.5 -40q0 -24 -20.5 -41t-50.5 -17zM409 682q-31 0 -51 17t-20 41q0 23 20 40t51 17q30 0 50.5 -17t20.5 -40q0 -24 -20.5 -41t-50.5 -17z" />
    <glyph glyph-name="multiply" unicode="&#xd7;" horiz-adv-x="562" 
d="M280 188l-145 -144l-72 71l145 145l-145 145l76 77l146 -145l143 144l73 -72l-145 -145l145 -144l-76 -77z" />
    <glyph glyph-name="Oslash" unicode="&#xd8;" horiz-adv-x="642" 
d="M320 -16q-51 0 -93 13.5t-75 38.5l-35 -46l-82 20l63 83q-32 46 -47.5 104.5t-15.5 126.5q0 70 18 132t53.5 108t89 72.5t125.5 26.5q51 0 93.5 -13.5t75.5 -39.5l36 48l81 -20l-64 -84q32 -46 48 -104.5t16 -125.5q0 -71 -18 -133t-53.5 -108t-89.5 -72.5t-126 -26.5z
M320 88q75 0 114.5 60.5t39.5 175.5q0 68 -15 118l-237 -313q38 -41 98 -41zM168 324q0 -69 14 -120l237 313q-39 42 -99 42q-74 0 -113 -61t-39 -174z" />
    <glyph glyph-name="Ugrave" unicode="&#xd9;" horiz-adv-x="641" 
d="M320 88q37 0 61 10.5t38 29.5t20 46t6 61v413h131v-402q0 -58 -14.5 -105.5t-45.5 -82t-79.5 -53.5t-116.5 -19t-116.5 17t-79 49t-45 78t-14.5 104v414h130v-413q0 -34 5.5 -61t19.5 -46t38 -29.5t62 -10.5zM396 679q-19 0 -48 4t-60.5 12.5t-61.5 20.5t-51 29l49 86
q14 -14 39 -29t53 -27t55 -21t46 -11z" />
    <glyph glyph-name="Uacute" unicode="&#xda;" horiz-adv-x="641" 
d="M320 88q37 0 61 10.5t38 29.5t20 46t6 61v413h131v-402q0 -58 -14.5 -105.5t-45.5 -82t-79.5 -53.5t-116.5 -19t-116.5 17t-79 49t-45 78t-14.5 104v414h130v-413q0 -34 5.5 -61t19.5 -46t38 -29.5t62 -10.5zM220 740q19 2 46 11t55 21t53 27t39 29l48 -83
q-21 -17 -51 -29t-61.5 -20.5t-60.5 -12.5t-48 -4z" />
    <glyph glyph-name="Ucircumflex" unicode="&#xdb;" horiz-adv-x="641" 
d="M320 88q37 0 61 10.5t38 29.5t20 46t6 61v413h131v-402q0 -58 -14.5 -105.5t-45.5 -82t-79.5 -53.5t-116.5 -19t-116.5 17t-79 49t-45 78t-14.5 104v414h130v-413q0 -34 5.5 -61t19.5 -46t38 -29.5t62 -10.5zM166 681q15 12 30.5 27t29 30t24.5 30t17 27h106
q5 -11 17.5 -27t28 -32.5t31.5 -31t28 -23.5h-108l-47 70h-6l-46 -70h-105z" />
    <glyph glyph-name="Udieresis" unicode="&#xdc;" horiz-adv-x="641" 
d="M320 88q37 0 61 10.5t38 29.5t20 46t6 61v413h131v-402q0 -58 -14.5 -105.5t-45.5 -82t-79.5 -53.5t-116.5 -19t-116.5 17t-79 49t-45 78t-14.5 104v414h130v-413q0 -34 5.5 -61t19.5 -46t38 -29.5t62 -10.5zM233 682q-31 0 -51 17t-20 41q0 23 20 40t51 17
q30 0 50.5 -17t20.5 -40q0 -24 -20.5 -41t-50.5 -17zM408 682q-31 0 -51 17t-20 41q0 23 20 40t51 17q30 0 50.5 -17t20.5 -40q0 -24 -20.5 -41t-50.5 -17z" />
    <glyph glyph-name="Yacute" unicode="&#xdd;" horiz-adv-x="556" 
d="M346 215v-215h-130v218l-206 430h139l49 -107q14 -31 27.5 -63.5t25 -62t19 -52.5t9.5 -35h11q1 12 8 34.5t17.5 51t23.5 60.5t26 62l47 112h134zM179 740q19 2 46 11t55 21t53 27t39 29l48 -83q-21 -17 -51 -29t-61.5 -20.5t-60.5 -12.5t-48 -4z" />
    <glyph glyph-name="Thorn" unicode="&#xde;" horiz-adv-x="587" 
d="M200 648v-78h69q59 0 109 -12t86.5 -39.5t57 -71.5t20.5 -107q0 -61 -21 -105.5t-58.5 -73.5t-88 -43t-110.5 -14h-64v-104h-130v648h130zM200 459v-244h68q62 0 100 29.5t38 95.5q0 62 -35.5 90.5t-104.5 28.5h-66z" />
    <glyph glyph-name="germandbls" unicode="&#xdf;" horiz-adv-x="643" 
d="M449 507q1 6 1.5 12.5t0.5 11.5q0 36 -27 56t-94 20q-23 0 -45 -3.5t-39 -12.5t-27 -26t-10 -44v-521h-126v412h-68v95h68v17q0 51 19 86t52 57t78 31.5t96 9.5q49 0 92.5 -12.5t76 -36.5t51.5 -59.5t19 -81.5q0 -49 -22 -103q-13 2 -29 4t-33 2q-44 0 -69 -13.5
t-25 -39.5q0 -22 17.5 -34t43.5 -22t56 -20.5t56 -29t43.5 -48t17.5 -76.5q0 -39 -15.5 -68t-41 -47.5t-58.5 -27.5t-68 -9t-68 7t-58.5 23t-41 40t-15.5 59q0 17 6 38h114q-2 -5 -3 -10t-2 -9q0 -29 18.5 -44.5t48.5 -15.5q24 0 42.5 13t18.5 36q0 27 -17 43.5t-43 28
t-55.5 22.5t-55.5 28.5t-43 44.5t-17 72q0 34 13 60t37 44.5t57 28.5t73 12z" />
    <glyph glyph-name="agrave" unicode="&#xe0;" 
d="M58 351q-5 35 5 65t35 52.5t65 35.5t97 13t94.5 -12t59.5 -35t31 -56t9 -74v-340h-122v9q0 25 17 84l-11 3q-8 -21 -20.5 -40.5t-31 -34t-44 -23t-58.5 -8.5q-38 0 -65.5 12.5t-46.5 32.5t-28 46t-9 52q0 61 28.5 97.5t72 55.5t95.5 25.5t100 8.5v28q0 88 -84 88
q-48 0 -67.5 -24.5t-11.5 -60.5h-110zM231 75q26 0 45 11.5t31 31t18 44t6 51.5v43q-52 -2 -86.5 -10.5t-55.5 -22t-29.5 -31.5t-8.5 -39q0 -35 21 -56.5t59 -21.5zM300 541q-23 1 -52 8.5t-58.5 19.5t-57 28t-46.5 35l53 70q13 -14 33 -29t43.5 -29.5t49.5 -26t52 -17.5z
" />
    <glyph glyph-name="aacute" unicode="&#xe1;" 
d="M58 351q-5 35 5 65t35 52.5t65 35.5t97 13t94.5 -12t59.5 -35t31 -56t9 -74v-340h-122v9q0 25 17 84l-11 3q-8 -21 -20.5 -40.5t-31 -34t-44 -23t-58.5 -8.5q-38 0 -65.5 12.5t-46.5 32.5t-28 46t-9 52q0 61 28.5 97.5t72 55.5t95.5 25.5t100 8.5v28q0 88 -84 88
q-48 0 -67.5 -24.5t-11.5 -60.5h-110zM231 75q26 0 45 11.5t31 31t18 44t6 51.5v43q-52 -2 -86.5 -10.5t-55.5 -22t-29.5 -31.5t-8.5 -39q0 -35 21 -56.5t59 -21.5zM167 597q25 6 51.5 17.5t50 26t43.5 29.5t33 29l53 -67q-19 -19 -46.5 -35t-57 -28t-59 -19.5t-51.5 -8.5z
" />
    <glyph glyph-name="acircumflex" unicode="&#xe2;" 
d="M58 351q-5 35 5 65t35 52.5t65 35.5t97 13t94.5 -12t59.5 -35t31 -56t9 -74v-340h-122v9q0 25 17 84l-11 3q-8 -21 -20.5 -40.5t-31 -34t-44 -23t-58.5 -8.5q-38 0 -65.5 12.5t-46.5 32.5t-28 46t-9 52q0 61 28.5 97.5t72 55.5t95.5 25.5t100 8.5v28q0 88 -84 88
q-48 0 -67.5 -24.5t-11.5 -60.5h-110zM231 75q26 0 45 11.5t31 31t18 44t6 51.5v43q-52 -2 -86.5 -10.5t-55.5 -22t-29.5 -31.5t-8.5 -39q0 -35 21 -56.5t59 -21.5zM103 544q13 13 28 32t29.5 39t27.5 41t22 39h82q9 -18 21.5 -39t27.5 -41t30 -39t28 -32h-98l-47 96h-6
l-47 -96h-98v0z" />
    <glyph glyph-name="atilde" unicode="&#xe3;" 
d="M58 351q-5 35 5 65t35 52.5t65 35.5t97 13t94.5 -12t59.5 -35t31 -56t9 -74v-340h-122v9q0 25 17 84l-11 3q-8 -21 -20.5 -40.5t-31 -34t-44 -23t-58.5 -8.5q-38 0 -65.5 12.5t-46.5 32.5t-28 46t-9 52q0 61 28.5 97.5t72 55.5t95.5 25.5t100 8.5v28q0 88 -84 88
q-48 0 -67.5 -24.5t-11.5 -60.5h-110zM231 75q26 0 45 11.5t31 31t18 44t6 51.5v43q-52 -2 -86.5 -10.5t-55.5 -22t-29.5 -31.5t-8.5 -39q0 -35 21 -56.5t59 -21.5zM192 669q26 0 44 -8t31 -17t23 -17t21 -8q6 0 11 5.5t5 18.5q0 4 -0.5 8.5t-1.5 9.5h70q2 -9 3 -17.5
t1 -16.5q0 -44 -25.5 -62t-59.5 -18q-26 0 -44 8t-31 17t-23.5 17t-20.5 8q-16 0 -16 -24q0 -4 0.5 -8.5t1.5 -9.5h-70q-4 16 -4 33q0 44 25.5 62.5t59.5 18.5z" />
    <glyph glyph-name="adieresis" unicode="&#xe4;" 
d="M58 351q-5 35 5 65t35 52.5t65 35.5t97 13t94.5 -12t59.5 -35t31 -56t9 -74v-340h-122v9q0 25 17 84l-11 3q-8 -21 -20.5 -40.5t-31 -34t-44 -23t-58.5 -8.5q-38 0 -65.5 12.5t-46.5 32.5t-28 46t-9 52q0 61 28.5 97.5t72 55.5t95.5 25.5t100 8.5v28q0 88 -84 88
q-48 0 -67.5 -24.5t-11.5 -60.5h-110zM231 75q26 0 45 11.5t31 31t18 44t6 51.5v43q-52 -2 -86.5 -10.5t-55.5 -22t-29.5 -31.5t-8.5 -39q0 -35 21 -56.5t59 -21.5zM165 548q-31 0 -51 17t-20 41q0 23 20 40t51 17q30 0 50.5 -17t20.5 -40q0 -24 -20.5 -41t-50.5 -17z
M340 548q-31 0 -51 17t-20 41q0 23 20 40t51 17q30 0 50.5 -17t20.5 -40q0 -24 -20.5 -41t-50.5 -17z" />
    <glyph glyph-name="aring" unicode="&#xe5;" 
d="M58 351q-5 35 5 65t35 52.5t65 35.5t97 13t94.5 -12t59.5 -35t31 -56t9 -74v-340h-122v9q0 25 17 84l-11 3q-8 -21 -20.5 -40.5t-31 -34t-44 -23t-58.5 -8.5q-38 0 -65.5 12.5t-46.5 32.5t-28 46t-9 52q0 61 28.5 97.5t72 55.5t95.5 25.5t100 8.5v28q0 88 -84 88
q-48 0 -67.5 -24.5t-11.5 -60.5h-110zM231 75q26 0 45 11.5t31 31t18 44t6 51.5v43q-52 -2 -86.5 -10.5t-55.5 -22t-29.5 -31.5t-8.5 -39q0 -35 21 -56.5t59 -21.5zM249 525q-22 0 -42 6.5t-35 18.5t-24 28.5t-9 36.5q0 19 9 35.5t24 28t35 18t42 6.5q21 0 41 -6.5t35 -18
t24 -28t9 -35.5q0 -20 -9 -36.5t-24 -28.5t-35 -18.5t-41 -6.5zM249 572q17 0 29 12t12 32q0 16 -12 27.5t-29 11.5q-18 0 -30 -11.5t-12 -27.5q0 -20 12 -32t30 -12z" />
    <glyph glyph-name="ae" unicode="&#xe6;" horiz-adv-x="815" 
d="M771 168q1 -4 1 -8v-8q0 -77 -52 -120.5t-152 -43.5q-72 0 -116.5 26.5t-67.5 73.5q-14 -26 -34.5 -45t-44.5 -31t-51 -18t-53 -6q-33 0 -63.5 10t-53 28.5t-36 45.5t-13.5 62q0 59 30 93.5t75 52.5t97 23.5t95 6.5v39q0 88 -83 88q-42 0 -62 -19.5t-20 -48.5
q0 -5 0.5 -9.5t1.5 -9.5h-110q0 5 -0.5 10.5t-0.5 10.5q0 31 11 58.5t34.5 47.5t60 31.5t87.5 11.5q63 0 98.5 -19t55.5 -52q26 32 67 51.5t98 19.5q55 0 94 -18t64 -48t36 -70t11 -84q0 -13 -1 -32t-4 -34h-309q1 -79 28 -120.5t80 -41.5q44 0 67 22.5t23 73.5h112z
M566 436q-50 0 -76 -34.5t-29 -92.5h199v1v4q0 122 -94 122zM232 75q26 0 45 11.5t31 31t18 44t6 51.5v27q-52 -2 -86.5 -8t-55.5 -17t-29.5 -27.5t-8.5 -39.5q0 -31 21 -52t59 -21z" />
    <glyph glyph-name="ccedilla" unicode="&#xe7;" horiz-adv-x="513" 
d="M471 197q4 -46 -6 -84.5t-34.5 -66.5t-63.5 -44t-94 -16q-118 0 -178 69.5t-60 197.5q0 60 15 109t45 84t74.5 54.5t103.5 19.5q50 0 89 -14.5t64.5 -41t37 -65t6.5 -86.5h-111q5 32 -0.5 54.5t-18 37t-30 21t-37.5 6.5q-54 0 -81 -42.5t-27 -136.5q0 -98 28.5 -139
t81.5 -41q18 0 35 5.5t29.5 19t19 37.5t2.5 62h110v0zM289 21l-17 -47q18 0 36 -4t32.5 -12.5t23.5 -22.5t9 -33q0 -21 -9.5 -37t-24.5 -26.5t-34 -15.5t-39 -5q-36 0 -64.5 16t-28.5 46q0 12 4 23h60q-2 -4 -2 -10q0 -11 9.5 -17t21.5 -6t22.5 7t10.5 22q0 18 -17.5 26
t-42.5 8q-11 0 -22.5 -1.5t-23.5 -3.5l-4 2l32 90z" />
    <glyph glyph-name="egrave" unicode="&#xe8;" horiz-adv-x="517" 
d="M474 169q3 -42 -10 -76t-40 -58t-66.5 -36.5t-89.5 -12.5q-61 0 -105 20.5t-72.5 56.5t-42 85t-13.5 105q0 55 14 103.5t42.5 85t73 57.5t105.5 21q55 0 94 -17.5t64 -47t37 -69t12 -83.5q0 -14 -1 -33t-3 -34h-309q0 -80 28.5 -123t80.5 -43q20 0 37.5 5.5t30 17.5
t19 30.5t4.5 45.5h110zM270 437q-50 0 -76.5 -33.5t-28.5 -93.5h199v6q0 121 -94 121zM332 541q-23 1 -52 8.5t-58.5 19.5t-57 28t-46.5 35l53 70q13 -14 33 -29t43.5 -29.5t49.5 -26t52 -17.5z" />
    <glyph glyph-name="eacute" unicode="&#xe9;" horiz-adv-x="517" 
d="M474 169q3 -42 -10 -76t-40 -58t-66.5 -36.5t-89.5 -12.5q-61 0 -105 20.5t-72.5 56.5t-42 85t-13.5 105q0 55 14 103.5t42.5 85t73 57.5t105.5 21q55 0 94 -17.5t64 -47t37 -69t12 -83.5q0 -14 -1 -33t-3 -34h-309q0 -80 28.5 -123t80.5 -43q20 0 37.5 5.5t30 17.5
t19 30.5t4.5 45.5h110zM270 437q-50 0 -76.5 -33.5t-28.5 -93.5h199v6q0 121 -94 121zM190 597q25 6 51.5 17.5t50 26t43.5 29.5t33 29l53 -67q-19 -19 -46.5 -35t-57 -28t-59 -19.5t-51.5 -8.5z" />
    <glyph glyph-name="ecircumflex" unicode="&#xea;" horiz-adv-x="517" 
d="M474 169q3 -42 -10 -76t-40 -58t-66.5 -36.5t-89.5 -12.5q-61 0 -105 20.5t-72.5 56.5t-42 85t-13.5 105q0 55 14 103.5t42.5 85t73 57.5t105.5 21q55 0 94 -17.5t64 -47t37 -69t12 -83.5q0 -14 -1 -33t-3 -34h-309q0 -80 28.5 -123t80.5 -43q20 0 37.5 5.5t30 17.5
t19 30.5t4.5 45.5h110zM270 437q-50 0 -76.5 -33.5t-28.5 -93.5h199v6q0 121 -94 121zM124 544q13 13 28 32t29.5 39t27.5 41t22 39h82q9 -18 21.5 -39t27.5 -41t30 -39t28 -32h-98l-47 96h-6l-47 -96h-98v0z" />
    <glyph glyph-name="edieresis" unicode="&#xeb;" horiz-adv-x="517" 
d="M474 169q3 -42 -10 -76t-40 -58t-66.5 -36.5t-89.5 -12.5q-61 0 -105 20.5t-72.5 56.5t-42 85t-13.5 105q0 55 14 103.5t42.5 85t73 57.5t105.5 21q55 0 94 -17.5t64 -47t37 -69t12 -83.5q0 -14 -1 -33t-3 -34h-309q0 -80 28.5 -123t80.5 -43q20 0 37.5 5.5t30 17.5
t19 30.5t4.5 45.5h110zM270 437q-50 0 -76.5 -33.5t-28.5 -93.5h199v6q0 121 -94 121zM182 548q-31 0 -51 17t-20 41q0 23 20 40t51 17q30 0 50.5 -17t20.5 -40q0 -24 -20.5 -41t-50.5 -17zM357 548q-31 0 -51 17t-20 41q0 23 20 40t51 17q30 0 50.5 -17t20.5 -40
q0 -24 -20.5 -41t-50.5 -17z" />
    <glyph glyph-name="igrave" unicode="&#xec;" horiz-adv-x="246" 
d="M60 507q15 -6 31 -8.5t32 -2.5q34 0 63 11v-507h-126v507v0zM188 541q-23 1 -52 8.5t-58.5 19.5t-57 28t-46.5 35l53 70q13 -14 33 -29t43.5 -29.5t49.5 -26t52 -17.5z" />
    <glyph glyph-name="iacute" unicode="&#xed;" horiz-adv-x="246" 
d="M60 507q15 -6 31 -8.5t32 -2.5q34 0 63 11v-507h-126v507v0zM46 597q25 6 51.5 17.5t50 26t43.5 29.5t33 29l53 -67q-19 -19 -46.5 -35t-57 -28t-59 -19.5t-51.5 -8.5z" />
    <glyph glyph-name="icircumflex" unicode="&#xee;" horiz-adv-x="246" 
d="M60 507q15 -6 31 -8.5t32 -2.5q34 0 63 11v-507h-126v507v0zM-23 544q13 13 28 32t29.5 39t27.5 41t22 39h82q9 -18 21.5 -39t27.5 -41t30 -39t28 -32h-98l-47 96h-6l-47 -96h-98v0z" />
    <glyph glyph-name="idieresis" unicode="&#xef;" horiz-adv-x="246" 
d="M60 507q15 -6 31 -8.5t32 -2.5q34 0 63 11v-507h-126v507v0zM34 548q-31 0 -51 17t-20 41q0 23 20 40t51 17q30 0 50.5 -17t20.5 -40q0 -24 -20.5 -41t-50.5 -17zM209 548q-31 0 -51 17t-20 41q0 23 20 40t51 17q30 0 50.5 -17t20.5 -40q0 -24 -20.5 -41t-50.5 -17z" />
    <glyph glyph-name="eth" unicode="&#xf0;" horiz-adv-x="562" 
d="M230 613q-25 18 -59 40.5t-60 36.5h187q14 -11 31.5 -26.5t29.5 -26.5l118 22v-86l-55 -10q37 -54 56.5 -124.5t19.5 -149.5q0 -57 -13.5 -111.5t-42 -96.5t-73 -67.5t-105.5 -25.5q-57 0 -100.5 21t-72 56t-43 80.5t-14.5 95.5q0 48 13.5 92t39.5 77.5t64 53.5t87 20
q51 0 89 -27.5t55 -68.5l11 4q-11 45 -33.5 81t-50.5 68l-157 -27v86zM267 73q49 0 72.5 42t23.5 110q0 72 -24 118.5t-72 46.5q-49 0 -73 -43.5t-24 -112.5q0 -70 24.5 -115.5t72.5 -45.5z" />
    <glyph glyph-name="ntilde" unicode="&#xf1;" horiz-adv-x="543" 
d="M488 0h-125v314q0 60 -19 84.5t-61 24.5q-39 0 -68.5 -36.5t-29.5 -109.5v-277h-125v507h125v-9q0 -12 -4.5 -34t-15.5 -51l12 -2q8 19 20 38t30 34t44 24.5t62 9.5q37 0 66 -13t49 -36t30 -55t10 -69v-344zM216 669q26 0 44 -8t31 -17t23 -17t21 -8q6 0 11 5.5t5 18.5
q0 4 -0.5 8.5t-1.5 9.5h70q2 -9 3 -17.5t1 -16.5q0 -44 -25.5 -62t-59.5 -18q-26 0 -44 8t-31 17t-23.5 17t-20.5 8q-16 0 -16 -24q0 -4 0.5 -8.5t1.5 -9.5h-70q-4 16 -4 33q0 44 25.5 62.5t59.5 18.5z" />
    <glyph glyph-name="ograve" unicode="&#xf2;" horiz-adv-x="544" 
d="M272 -14q-114 0 -175.5 69t-61.5 197q0 129 61.5 198t175.5 69t175.5 -69t61.5 -198q0 -128 -61.5 -197t-175.5 -69zM272 73q55 0 81 41.5t26 137.5t-26 138t-81 42q-56 0 -81.5 -42t-25.5 -138t25.5 -137.5t81.5 -41.5zM337 541q-23 1 -52 8.5t-58.5 19.5t-57 28
t-46.5 35l53 70q13 -14 33 -29t43.5 -29.5t49.5 -26t52 -17.5z" />
    <glyph glyph-name="oacute" unicode="&#xf3;" horiz-adv-x="544" 
d="M272 -14q-114 0 -175.5 69t-61.5 197q0 129 61.5 198t175.5 69t175.5 -69t61.5 -198q0 -128 -61.5 -197t-175.5 -69zM272 73q55 0 81 41.5t26 137.5t-26 138t-81 42q-56 0 -81.5 -42t-25.5 -138t25.5 -137.5t81.5 -41.5zM193 597q25 6 51.5 17.5t50 26t43.5 29.5t33 29
l53 -67q-19 -19 -46.5 -35t-57 -28t-59 -19.5t-51.5 -8.5z" />
    <glyph glyph-name="ocircumflex" unicode="&#xf4;" horiz-adv-x="544" 
d="M272 -14q-114 0 -175.5 69t-61.5 197q0 129 61.5 198t175.5 69t175.5 -69t61.5 -198q0 -128 -61.5 -197t-175.5 -69zM272 73q55 0 81 41.5t26 137.5t-26 138t-81 42q-56 0 -81.5 -42t-25.5 -138t25.5 -137.5t81.5 -41.5zM125 544q13 13 28 32t29.5 39t27.5 41t22 39h82
q9 -18 21.5 -39t27.5 -41t30 -39t28 -32h-98l-47 96h-6l-47 -96h-98v0z" />
    <glyph glyph-name="otilde" unicode="&#xf5;" horiz-adv-x="544" 
d="M272 -14q-114 0 -175.5 69t-61.5 197q0 129 61.5 198t175.5 69t175.5 -69t61.5 -198q0 -128 -61.5 -197t-175.5 -69zM272 73q55 0 81 41.5t26 137.5t-26 138t-81 42q-56 0 -81.5 -42t-25.5 -138t25.5 -137.5t81.5 -41.5zM211 669q26 0 44 -8t31 -17t23 -17t21 -8
q6 0 11 5.5t5 18.5q0 4 -0.5 8.5t-1.5 9.5h70q2 -9 3 -17.5t1 -16.5q0 -44 -25.5 -62t-59.5 -18q-26 0 -44 8t-31 17t-23.5 17t-20.5 8q-16 0 -16 -24q0 -4 0.5 -8.5t1.5 -9.5h-70q-4 16 -4 33q0 44 25.5 62.5t59.5 18.5z" />
    <glyph glyph-name="odieresis" unicode="&#xf6;" horiz-adv-x="544" 
d="M272 -14q-114 0 -175.5 69t-61.5 197q0 129 61.5 198t175.5 69t175.5 -69t61.5 -198q0 -128 -61.5 -197t-175.5 -69zM272 73q55 0 81 41.5t26 137.5t-26 138t-81 42q-56 0 -81.5 -42t-25.5 -138t25.5 -137.5t81.5 -41.5zM191 548q-31 0 -51 17t-20 41q0 23 20 40t51 17
q30 0 50.5 -17t20.5 -40q0 -24 -20.5 -41t-50.5 -17zM366 548q-31 0 -51 17t-20 41q0 23 20 40t51 17q30 0 50.5 -17t20.5 -40q0 -24 -20.5 -41t-50.5 -17z" />
    <glyph glyph-name="divide" unicode="&#xf7;" horiz-adv-x="573" 
d="M523 308v-100h-473v100h473zM286 349q-29 0 -49.5 20t-20.5 57t20.5 57.5t49.5 20.5q28 0 49 -20.5t21 -57.5t-21 -57t-49 -20zM286 13q-29 0 -49.5 20.5t-20.5 56.5q0 37 20.5 57.5t49.5 20.5q28 0 49 -20.5t21 -57.5q0 -36 -21 -56.5t-49 -20.5z" />
    <glyph glyph-name="oslash" unicode="&#xf8;" horiz-adv-x="544" 
d="M272 -14q-80 0 -136 36l-33 -42l-68 20l52 67q-52 67 -52 185q0 129 61.5 198t175.5 69q83 0 139 -38l30 38l67 -20l-50 -64q51 -68 51 -183q0 -128 -61.5 -197t-175.5 -69zM165 252q0 -23 1 -42.5t4 -36.5l177 226q-27 33 -75 33q-56 0 -81.5 -42t-25.5 -138zM272 73
q55 0 81 41.5t26 137.5q0 22 -1.5 40t-3.5 35l-175 -224q24 -30 73 -30z" />
    <glyph glyph-name="ugrave" unicode="&#xf9;" horiz-adv-x="538" 
d="M55 507h125v-314q0 -60 17.5 -84.5t59.5 -24.5q39 0 67.5 36.5t28.5 109.5v277h125v-507h-125v9q0 12 4.5 34t15.5 51l-12 2q-8 -20 -19.5 -39t-29.5 -34t-43.5 -24t-61.5 -9q-38 0 -66 13t-47.5 36t-29 54.5t-9.5 69.5v344zM322 541q-23 1 -52 8.5t-58.5 19.5t-57 28
t-46.5 35l53 70q13 -14 33 -29t43.5 -29.5t49.5 -26t52 -17.5z" />
    <glyph glyph-name="uacute" unicode="&#xfa;" horiz-adv-x="538" 
d="M55 507h125v-314q0 -60 17.5 -84.5t59.5 -24.5q39 0 67.5 36.5t28.5 109.5v277h125v-507h-125v9q0 12 4.5 34t15.5 51l-12 2q-8 -20 -19.5 -39t-29.5 -34t-43.5 -24t-61.5 -9q-38 0 -66 13t-47.5 36t-29 54.5t-9.5 69.5v344zM177 597q25 6 51.5 17.5t50 26t43.5 29.5
t33 29l53 -67q-19 -19 -46.5 -35t-57 -28t-59 -19.5t-51.5 -8.5z" />
    <glyph glyph-name="ucircumflex" unicode="&#xfb;" horiz-adv-x="538" 
d="M55 507h125v-314q0 -60 17.5 -84.5t59.5 -24.5q39 0 67.5 36.5t28.5 109.5v277h125v-507h-125v9q0 12 4.5 34t15.5 51l-12 2q-8 -20 -19.5 -39t-29.5 -34t-43.5 -24t-61.5 -9q-38 0 -66 13t-47.5 36t-29 54.5t-9.5 69.5v344zM117 544q13 13 28 32t29.5 39t27.5 41t22 39
h82q9 -18 21.5 -39t27.5 -41t30 -39t28 -32h-98l-47 96h-6l-47 -96h-98v0z" />
    <glyph glyph-name="udieresis" unicode="&#xfc;" horiz-adv-x="538" 
d="M55 507h125v-314q0 -60 17.5 -84.5t59.5 -24.5q39 0 67.5 36.5t28.5 109.5v277h125v-507h-125v9q0 12 4.5 34t15.5 51l-12 2q-8 -20 -19.5 -39t-29.5 -34t-43.5 -24t-61.5 -9q-38 0 -66 13t-47.5 36t-29 54.5t-9.5 69.5v344zM176 548q-31 0 -51 17t-20 41q0 23 20 40
t51 17q30 0 50.5 -17t20.5 -40q0 -24 -20.5 -41t-50.5 -17zM351 548q-31 0 -51 17t-20 41q0 23 20 40t51 17q30 0 50.5 -17t20.5 -40q0 -24 -20.5 -41t-50.5 -17z" />
    <glyph glyph-name="yacute" unicode="&#xfd;" horiz-adv-x="480" 
d="M250 95q2 18 6 41t10 52.5t15 67.5t23 87l44 164h124l-209 -685h-129l44 132l-170 553h128l45 -158q16 -56 26.5 -97.5t16.5 -71.5t9 -50.5t5 -34.5h12v0zM150 597q25 6 51.5 17.5t50 26t43.5 29.5t33 29l53 -67q-19 -19 -46.5 -35t-57 -28t-59 -19.5t-51.5 -8.5z" />
    <glyph glyph-name="thorn" unicode="&#xfe;" horiz-adv-x="595" 
d="M299 71q55 0 81 41.5t26 137.5t-26 138t-81 42q-56 0 -81.5 -42t-25.5 -138t25.5 -137.5t81.5 -41.5zM190 502q0 -26 -5.5 -49.5t-13.5 -43.5l12 -2q6 17 17 36t29 35.5t44.5 27.5t63.5 11q93 0 146 -67.5t53 -199.5q0 -68 -15.5 -117.5t-43 -82t-64.5 -48.5t-79 -16
q-36 0 -62.5 10.5t-44.5 27t-29.5 35.5t-17.5 37l-12 -2q11 -29 16.5 -54.5t5.5 -60.5v-157h-130v841h130v-161z" />
    <glyph glyph-name="ydieresis" unicode="&#xff;" horiz-adv-x="480" 
d="M250 95q2 18 6 41t10 52.5t15 67.5t23 87l44 164h124l-209 -685h-129l44 132l-170 553h128l45 -158q16 -56 26.5 -97.5t16.5 -71.5t9 -50.5t5 -34.5h12v0zM159 548q-31 0 -51 17t-20 41q0 23 20 40t51 17q30 0 50.5 -17t20.5 -40q0 -24 -20.5 -41t-50.5 -17zM334 548
q-31 0 -51 17t-20 41q0 23 20 40t51 17q30 0 50.5 -17t20.5 -40q0 -24 -20.5 -41t-50.5 -17z" />
    <glyph glyph-name="Amacron" unicode="&#x100;" horiz-adv-x="577" 
d="M396 121h-219l-33 -121h-134l188 648h182l187 -648h-137zM281 538q-3 -29 -10.5 -67t-21.5 -90l-40 -145h155l-38 145q-14 56 -22 92t-11 65h-12zM417 773v-85h-258v85h258z" />
    <glyph glyph-name="amacron" unicode="&#x101;" 
d="M58 351q-5 35 5 65t35 52.5t65 35.5t97 13t94.5 -12t59.5 -35t31 -56t9 -74v-340h-122v9q0 25 17 84l-11 3q-8 -21 -20.5 -40.5t-31 -34t-44 -23t-58.5 -8.5q-38 0 -65.5 12.5t-46.5 32.5t-28 46t-9 52q0 61 28.5 97.5t72 55.5t95.5 25.5t100 8.5v28q0 88 -84 88
q-48 0 -67.5 -24.5t-11.5 -60.5h-110zM231 75q26 0 45 11.5t31 31t18 44t6 51.5v43q-52 -2 -86.5 -10.5t-55.5 -22t-29.5 -31.5t-8.5 -39q0 -35 21 -56.5t59 -21.5zM384 650v-85h-258v85h258z" />
    <glyph glyph-name="Abreve" unicode="&#x102;" horiz-adv-x="577" 
d="M396 121h-219l-33 -121h-134l188 648h182l187 -648h-137zM281 538q-3 -29 -10.5 -67t-21.5 -90l-40 -145h155l-38 145q-14 56 -22 92t-11 65h-12zM209 806q11 -26 33 -40.5t48 -14.5q27 0 48.5 14.5t33.5 40.5l66 -41q-21 -44 -57 -65t-92 -21q-110 0 -150 86l70 41v0z
" />
    <glyph glyph-name="abreve" unicode="&#x103;" 
d="M58 351q-5 35 5 65t35 52.5t65 35.5t97 13t94.5 -12t59.5 -35t31 -56t9 -74v-340h-122v9q0 25 17 84l-11 3q-8 -21 -20.5 -40.5t-31 -34t-44 -23t-58.5 -8.5q-38 0 -65.5 12.5t-46.5 32.5t-28 46t-9 52q0 61 28.5 97.5t72 55.5t95.5 25.5t100 8.5v28q0 88 -84 88
q-48 0 -67.5 -24.5t-11.5 -60.5h-110zM231 75q26 0 45 11.5t31 31t18 44t6 51.5v43q-52 -2 -86.5 -10.5t-55.5 -22t-29.5 -31.5t-8.5 -39q0 -35 21 -56.5t59 -21.5zM169 683q11 -27 33 -41.5t48 -14.5t48.5 14.5t34.5 41.5l67 -41q-22 -45 -58.5 -66.5t-93.5 -21.5
t-93.5 21.5t-58.5 66.5l73 41v0z" />
    <glyph glyph-name="Aogonek" unicode="&#x104;" horiz-adv-x="577" 
d="M396 121h-219l-33 -121h-134l188 648h182l187 -648h-19q-26 -10 -39.5 -29.5t-13.5 -36.5q0 -16 10 -26.5t30 -10.5q16 0 33 6v-72q-10 -3 -23.5 -5.5t-33.5 -2.5q-44 0 -68 24t-24 58q0 25 14 50t43 45h-46zM281 538q-3 -29 -10.5 -67t-21.5 -90l-40 -145h155l-38 145
q-14 56 -22 92t-11 65h-12z" />
    <glyph glyph-name="aogonek" unicode="&#x105;" 
d="M58 351q-1 5 -1.5 11t-0.5 11q0 31 12.5 57t37.5 45.5t63.5 30.5t90.5 11q57 0 94.5 -12t59.5 -35t31 -56t9 -74v-340h-20q-26 -10 -39.5 -29.5t-13.5 -36.5q0 -16 10 -26.5t30 -10.5q16 0 33 6v-72q-10 -3 -23.5 -5.5t-33.5 -2.5q-44 0 -68 24t-24 58q0 25 14 50t43 45
h-30v9q0 25 17 84l-11 3q-8 -21 -20.5 -40.5t-31 -34t-44 -23t-58.5 -8.5q-38 0 -65.5 12.5t-46.5 32.5t-28 46t-9 52q0 61 28.5 97.5t72 55.5t95.5 25.5t100 8.5v28q0 88 -84 88q-41 0 -61 -18.5t-20 -47.5v-9.5t2 -9.5h-110zM231 75q26 0 45 11.5t31 31t18 44t6 51.5v43
q-52 -2 -86.5 -10.5t-55.5 -22t-29.5 -31.5t-8.5 -39q0 -35 21 -56.5t59 -21.5z" />
    <glyph glyph-name="Cacute" unicode="&#x106;" horiz-adv-x="600" 
d="M559 234q4 -64 -14.5 -111t-53 -77.5t-80.5 -45t-97 -14.5q-63 0 -114.5 23.5t-88 67t-56.5 106.5t-20 141q0 79 20.5 141.5t58 106.5t90 67.5t117.5 23.5q52 0 98.5 -16t79.5 -48t49 -79.5t9 -109.5h-123q8 66 -21 107t-95 41q-74 0 -112 -63.5t-38 -170.5
q0 -109 39.5 -171.5t115.5 -62.5q52 0 84.5 34t31.5 110h120v0zM235 740q19 2 46 11t55 21t53 27t39 29l48 -83q-21 -17 -51 -29t-61.5 -20.5t-60.5 -12.5t-48 -4z" />
    <glyph glyph-name="cacute" unicode="&#x107;" horiz-adv-x="513" 
d="M471 197q4 -46 -6 -84.5t-34.5 -66.5t-63.5 -44t-94 -16q-118 0 -178 69.5t-60 197.5q0 60 15 109t45 84t74.5 54.5t103.5 19.5q50 0 89 -14.5t64.5 -41t37 -65t6.5 -86.5h-111q5 32 -0.5 54.5t-18 37t-30 21t-37.5 6.5q-54 0 -81 -42.5t-27 -136.5q0 -98 28.5 -139
t81.5 -41q18 0 35 5.5t29.5 19t19 37.5t2.5 62h110v0zM178 597q25 6 51.5 17.5t50 26t43.5 29.5t33 29l53 -67q-19 -19 -46.5 -35t-57 -28t-59 -19.5t-51.5 -8.5z" />
    <glyph glyph-name="Cdotaccent" unicode="&#x10a;" horiz-adv-x="600" 
d="M559 234q4 -64 -14.5 -111t-53 -77.5t-80.5 -45t-97 -14.5q-63 0 -114.5 23.5t-88 67t-56.5 106.5t-20 141q0 79 20.5 141.5t58 106.5t90 67.5t117.5 23.5q52 0 98.5 -16t79.5 -48t49 -79.5t9 -109.5h-123q8 66 -21 107t-95 41q-74 0 -112 -63.5t-38 -170.5
q0 -109 39.5 -171.5t115.5 -62.5q52 0 84.5 34t31.5 110h120v0zM327 681q-33 0 -55 18.5t-22 44.5t22 44t55 18q32 0 54.5 -18t22.5 -44t-22.5 -44.5t-54.5 -18.5z" />
    <glyph glyph-name="cdotaccent" unicode="&#x10b;" horiz-adv-x="513" 
d="M471 197q4 -46 -6 -84.5t-34.5 -66.5t-63.5 -44t-94 -16q-118 0 -178 69.5t-60 197.5q0 60 15 109t45 84t74.5 54.5t103.5 19.5q50 0 89 -14.5t64.5 -41t37 -65t6.5 -86.5h-111q5 32 -0.5 54.5t-18 37t-30 21t-37.5 6.5q-54 0 -81 -42.5t-27 -136.5q0 -98 28.5 -139
t81.5 -41q18 0 35 5.5t29.5 19t19 37.5t2.5 62h110v0zM273 548q-33 0 -55 18.5t-22 44.5t22 44t55 18q32 0 54.5 -18t22.5 -44t-22.5 -44.5t-54.5 -18.5z" />
    <glyph glyph-name="Ccaron" unicode="&#x10c;" horiz-adv-x="600" 
d="M559 234q4 -64 -14.5 -111t-53 -77.5t-80.5 -45t-97 -14.5q-63 0 -114.5 23.5t-88 67t-56.5 106.5t-20 141q0 79 20.5 141.5t58 106.5t90 67.5t117.5 23.5q52 0 98.5 -16t79.5 -48t49 -79.5t9 -109.5h-123q8 66 -21 107t-95 41q-74 0 -112 -63.5t-38 -170.5
q0 -109 39.5 -171.5t115.5 -62.5q52 0 84.5 34t31.5 110h120v0zM475 795q-15 -12 -30.5 -27t-29 -30t-24.5 -30t-17 -27h-106q-5 11 -17.5 27t-28 32.5t-31.5 31t-28 23.5h108l47 -70h6l46 70h105z" />
    <glyph glyph-name="ccaron" unicode="&#x10d;" horiz-adv-x="513" 
d="M471 197q4 -46 -6 -84.5t-34.5 -66.5t-63.5 -44t-94 -16q-118 0 -178 69.5t-60 197.5q0 60 15 109t45 84t74.5 54.5t103.5 19.5q50 0 89 -14.5t64.5 -41t37 -65t6.5 -86.5h-111q5 32 -0.5 54.5t-18 37t-30 21t-37.5 6.5q-54 0 -81 -42.5t-27 -136.5q0 -98 28.5 -139
t81.5 -41q18 0 35 5.5t29.5 19t19 37.5t2.5 62h110v0zM420 695q-13 -14 -28 -32.5t-29.5 -38.5t-27.5 -41t-22 -39h-82q-9 18 -21.5 39t-27.5 41t-30 38.5t-28 32.5h98l47 -96h6l47 96h98z" />
    <glyph glyph-name="Dcaron" unicode="&#x10e;" horiz-adv-x="629" 
d="M295 648q72 0 128 -24t94 -67.5t57.5 -103t19.5 -129.5q0 -73 -21 -133t-60.5 -102.5t-97.5 -65.5t-131 -23h-214v648h225zM200 537v-426h84q175 0 175 213q0 105 -45.5 159t-123.5 54h-90zM423 795q-15 -12 -30.5 -27t-29 -30t-24.5 -30t-17 -27h-106q-5 11 -17.5 27
t-28 32.5t-31.5 31t-28 23.5h108l47 -70h6l46 70h105z" />
    <glyph glyph-name="dcaron" unicode="&#x10f;" horiz-adv-x="648" 
d="M272 431q-55 0 -81 -42.5t-26 -138.5t26 -136.5t81 -40.5q56 0 81.5 40.5t25.5 136.5t-26 138.5t-81 42.5zM381 5q0 26 5.5 49.5t13.5 43.5l-12 2q-6 -17 -17 -37t-29 -37t-44.5 -28.5t-63.5 -11.5q-93 0 -146 66t-53 198q0 68 15.5 118t43 83t64.5 49t79 16
q36 0 62.5 -10.5t44.5 -26.5t29.5 -35t17.5 -37l12 2q-11 29 -16.5 54.5t-5.5 60.5v166h130v-690h-130v5zM623 700q25 0 45 -16.5t20 -54.5q0 -23 -7.5 -46.5t-19 -44t-25 -36.5t-24.5 -24l-42 12q17 19 30.5 41.5t15.5 37.5q-23 0 -41 16t-18 50q0 32 19.5 48.5t46.5 16.5z
" />
    <glyph glyph-name="Dcroat" unicode="&#x110;" horiz-adv-x="621" 
d="M297 648q72 0 128 -24t94 -67.5t57.5 -103t19.5 -129.5q0 -73 -21 -133t-60.5 -102.5t-97.5 -65.5t-131 -23h-214v275h-62v92h62v281h225zM202 275v-164h84q175 0 175 213q0 105 -45.5 159t-123.5 54h-90v-170h110v-92h-110z" />
    <glyph glyph-name="dcroat" unicode="&#x111;" horiz-adv-x="595" 
d="M381 631v59h130v-59h56v-101h-56v-530h-130v5q0 26 5.5 49.5t13.5 43.5l-12 2q-6 -17 -17 -37t-29 -37t-44.5 -28.5t-63.5 -11.5q-50 0 -86.5 20.5t-61 54t-36.5 76.5t-12 88q0 47 13 92.5t38 81t62 57.5t86 22q36 0 62.5 -10.5t44.5 -26.5t29.5 -35t17.5 -37l12 2
q-11 29 -16.5 54.5t-5.5 60.5v44h-135v101h135zM272 393q-27 0 -47 -14t-33.5 -36.5t-20 -51.5t-6.5 -59t6.5 -58.5t20 -51t33.5 -36t47 -13.5t47 14t33.5 37t20.5 52.5t7 59.5q0 32 -7 60.5t-20.5 50t-34 34t-46.5 12.5z" />
    <glyph glyph-name="Emacron" unicode="&#x112;" horiz-adv-x="511" 
d="M200 269v-158h276v-111h-406v648h396v-111h-266v-157h239v-111h-239zM392 782v-85h-258v85h258z" />
    <glyph glyph-name="emacron" unicode="&#x113;" horiz-adv-x="517" 
d="M474 169q3 -42 -10 -76t-40 -58t-66.5 -36.5t-89.5 -12.5q-61 0 -105 20.5t-72.5 56.5t-42 85t-13.5 105q0 55 14 103.5t42.5 85t73 57.5t105.5 21q55 0 94 -17.5t64 -47t37 -69t12 -83.5q0 -14 -1 -33t-3 -34h-309q0 -80 28.5 -123t80.5 -43q20 0 37.5 5.5t30 17.5
t19 30.5t4.5 45.5h110zM270 437q-50 0 -76.5 -33.5t-28.5 -93.5h199v6q0 121 -94 121zM395 650v-85h-258v85h258z" />
    <glyph glyph-name="Edotaccent" unicode="&#x116;" horiz-adv-x="511" 
d="M200 269v-158h276v-111h-406v648h396v-111h-266v-157h239v-111h-239zM266 681q-33 0 -55 18.5t-22 44.5t22 44t55 18q32 0 54.5 -18t22.5 -44t-22.5 -44.5t-54.5 -18.5z" />
    <glyph glyph-name="edotaccent" unicode="&#x117;" horiz-adv-x="517" 
d="M474 169q3 -42 -10 -76t-40 -58t-66.5 -36.5t-89.5 -12.5q-61 0 -105 20.5t-72.5 56.5t-42 85t-13.5 105q0 55 14 103.5t42.5 85t73 57.5t105.5 21q55 0 94 -17.5t64 -47t37 -69t12 -83.5q0 -14 -1 -33t-3 -34h-309q0 -80 28.5 -123t80.5 -43q20 0 37.5 5.5t30 17.5
t19 30.5t4.5 45.5h110zM270 437q-50 0 -76.5 -33.5t-28.5 -93.5h199v6q0 121 -94 121zM266 548q-33 0 -55 18.5t-22 44.5t22 44t55 18q32 0 54.5 -18t22.5 -44t-22.5 -44.5t-54.5 -18.5z" />
    <glyph glyph-name="Eogonek" unicode="&#x118;" horiz-adv-x="516" 
d="M200 269v-158h276v-111h-15q-26 -10 -39.5 -29.5t-13.5 -36.5q0 -16 10 -26.5t30 -10.5q16 0 33 6v-72q-10 -3 -23.5 -5.5t-33.5 -2.5q-44 0 -68 24t-24 58q0 25 14 50t43 45h-319v648h396v-111h-266v-157h239v-111h-239z" />
    <glyph glyph-name="eogonek" unicode="&#x119;" horiz-adv-x="517" 
d="M474 169q5 -67 -29 -111.5t-98 -61.5q-21 -11 -32 -28.5t-11 -33.5t10 -26.5t30 -10.5q16 0 33 6v-72q-10 -3 -23.5 -5.5t-33.5 -2.5q-44 0 -68 24t-24 58q0 20 9.5 41t29.5 40q-61 0 -104.5 20.5t-72 56.5t-42 85t-13.5 105q0 55 14 103.5t42.5 85t73 57.5t105.5 21
q55 0 94 -17.5t64 -47t37 -69t12 -83.5q0 -14 -1 -33t-3 -34h-309q0 -80 28.5 -123t80.5 -43q20 0 37.5 5.5t30 17.5t19 30.5t4.5 45.5h110zM270 437q-50 0 -76.5 -33.5t-28.5 -93.5h199v6q0 121 -94 121z" />
    <glyph glyph-name="Ecaron" unicode="&#x11a;" horiz-adv-x="511" 
d="M200 269v-158h276v-111h-406v648h396v-111h-266v-157h239v-111h-239zM418 795q-15 -12 -30.5 -27t-29 -30t-24.5 -30t-17 -27h-106q-5 11 -17.5 27t-28 32.5t-31.5 31t-28 23.5h108l47 -70h6l46 70h105z" />
    <glyph glyph-name="ecaron" unicode="&#x11b;" horiz-adv-x="517" 
d="M474 169q3 -42 -10 -76t-40 -58t-66.5 -36.5t-89.5 -12.5q-61 0 -105 20.5t-72.5 56.5t-42 85t-13.5 105q0 55 14 103.5t42.5 85t73 57.5t105.5 21q55 0 94 -17.5t64 -47t37 -69t12 -83.5q0 -14 -1 -33t-3 -34h-309q0 -80 28.5 -123t80.5 -43q20 0 37.5 5.5t30 17.5
t19 30.5t4.5 45.5h110zM270 437q-50 0 -76.5 -33.5t-28.5 -93.5h199v6q0 121 -94 121zM420 695q-13 -14 -28 -32.5t-29.5 -38.5t-27.5 -41t-22 -39h-82q-9 18 -21.5 39t-27.5 41t-30 38.5t-28 32.5h98l47 -96h6l47 96h98z" />
    <glyph glyph-name="Gbreve" unicode="&#x11e;" horiz-adv-x="629" 
d="M328 663q52 0 100.5 -16t84 -47.5t53.5 -78.5t11 -109h-127q8 66 -25.5 106t-100.5 40q-38 0 -67.5 -16.5t-49 -47t-29.5 -73.5t-10 -97q0 -109 41 -171.5t121 -62.5q54 0 90 36.5t40 109.5h-141v101h270v-41q0 -81 -19 -139.5t-53.5 -96t-84.5 -55.5t-111 -18
q-68 0 -121 24t-89.5 68t-56 106t-19.5 139q0 78 20 140.5t57.5 106.5t92 68t123.5 24zM233 806q11 -26 33 -40.5t48 -14.5q27 0 48.5 14.5t33.5 40.5l66 -41q-21 -44 -57 -65t-92 -21q-110 0 -150 86l70 41v0z" />
    <glyph glyph-name="gbreve" unicode="&#x11f;" horiz-adv-x="564" 
d="M273 107q24 0 43 12t32.5 33.5t20.5 51t7 64.5t-7 65t-20.5 51.5t-32.5 33.5t-43 12q-53 0 -78 -45.5t-25 -116.5q0 -35 6 -64.5t19 -51t32.5 -33.5t45.5 -12zM230 18q-47 0 -83 19t-61 52t-38 79t-13 100q0 53 12 99t36 79.5t60.5 53t84.5 19.5q37 0 63 -11t44 -28
t29 -36.5t17 -36.5l12 2q-8 20 -13.5 43.5t-5.5 49.5v5h130v-451q0 -67 -14 -113.5t-42 -75.5t-71.5 -42t-101.5 -13q-42 0 -81.5 8t-68 28t-41 53t-1.5 83h116q-14 -43 10 -65t68 -22q43 0 70 23.5t27 88.5v12q0 27 5.5 51.5t16.5 53.5l-12 2q-6 -18 -17.5 -37t-29.5 -35.5
t-44.5 -27t-62.5 -10.5zM190 683q11 -27 33 -41.5t48 -14.5t48.5 14.5t34.5 41.5l67 -41q-22 -45 -58.5 -66.5t-93.5 -21.5t-93.5 21.5t-58.5 66.5l73 41v0z" />
    <glyph glyph-name="Gdotaccent" unicode="&#x120;" horiz-adv-x="629" 
d="M328 663q52 0 100.5 -16t84 -47.5t53.5 -78.5t11 -109h-127q8 66 -25.5 106t-100.5 40q-38 0 -67.5 -16.5t-49 -47t-29.5 -73.5t-10 -97q0 -109 41 -171.5t121 -62.5q54 0 90 36.5t40 109.5h-141v101h270v-41q0 -81 -19 -139.5t-53.5 -96t-84.5 -55.5t-111 -18
q-68 0 -121 24t-89.5 68t-56 106t-19.5 139q0 78 20 140.5t57.5 106.5t92 68t123.5 24zM319 681q-33 0 -55 18.5t-22 44.5t22 44t55 18q32 0 54.5 -18t22.5 -44t-22.5 -44.5t-54.5 -18.5z" />
    <glyph glyph-name="gdotaccent" unicode="&#x121;" horiz-adv-x="564" 
d="M273 107q24 0 43 12t32.5 33.5t20.5 51t7 64.5t-7 65t-20.5 51.5t-32.5 33.5t-43 12q-53 0 -78 -45.5t-25 -116.5q0 -35 6 -64.5t19 -51t32.5 -33.5t45.5 -12zM230 18q-47 0 -83 19t-61 52t-38 79t-13 100q0 53 12 99t36 79.5t60.5 53t84.5 19.5q37 0 63 -11t44 -28
t29 -36.5t17 -36.5l12 2q-8 20 -13.5 43.5t-5.5 49.5v5h130v-451q0 -67 -14 -113.5t-42 -75.5t-71.5 -42t-101.5 -13q-42 0 -81.5 8t-68 28t-41 53t-1.5 83h116q-14 -43 10 -65t68 -22q43 0 70 23.5t27 88.5v12q0 27 5.5 51.5t16.5 53.5l-12 2q-6 -18 -17.5 -37t-29.5 -35.5
t-44.5 -27t-62.5 -10.5zM268 548q-33 0 -55 18.5t-22 44.5t22 44t55 18q32 0 54.5 -18t22.5 -44t-22.5 -44.5t-54.5 -18.5z" />
    <glyph glyph-name="uni0122" unicode="&#x122;" horiz-adv-x="629" 
d="M328 663q52 0 100.5 -16t84 -47.5t53.5 -78.5t11 -109h-127q8 66 -25.5 106t-100.5 40q-38 0 -67.5 -16.5t-49 -47t-29.5 -73.5t-10 -97q0 -109 41 -171.5t121 -62.5q54 0 90 36.5t40 109.5h-141v101h270v-41q0 -81 -19 -139.5t-53.5 -96t-84.5 -55.5t-111 -18
q-68 0 -121 24t-89.5 68t-56 106t-19.5 139q0 78 20 140.5t57.5 106.5t92 68t123.5 24zM318 -24q26 0 47.5 -14.5t21.5 -46.5q0 -20 -7.5 -38.5t-19.5 -34.5t-26 -27.5t-27 -17.5l-33 11q17 16 29 33.5t15 26.5q-11 0 -23 2.5t-21.5 8.5t-16 16t-6.5 25q0 29 20.5 42.5
t46.5 13.5z" />
    <glyph glyph-name="uni0123" unicode="&#x123;" horiz-adv-x="564" 
d="M273 107q24 0 43 12t32.5 33.5t20.5 51t7 64.5t-7 65t-20.5 51.5t-32.5 33.5t-43 12q-53 0 -78 -45.5t-25 -116.5q0 -35 6 -64.5t19 -51t32.5 -33.5t45.5 -12zM230 18q-47 0 -83 19t-61 52t-38 79t-13 100q0 53 12 99t36 79.5t60.5 53t84.5 19.5q37 0 63 -11t44 -28
t29 -36.5t17 -36.5l12 2q-8 20 -13.5 43.5t-5.5 49.5v5h130v-451q0 -67 -14 -113.5t-42 -75.5t-71.5 -42t-101.5 -13q-42 0 -81.5 8t-68 28t-41 53t-1.5 83h116q-14 -43 10 -65t68 -22q43 0 70 23.5t27 88.5v12q0 27 5.5 51.5t16.5 53.5l-12 2q-6 -18 -17.5 -37t-29.5 -35.5
t-44.5 -27t-62.5 -10.5zM252.01 542.998q-25.998 0 -47.4971 14.5q-21.498 14.499 -21.498 46.4971q0 19.998 7.49902 38.4971q7.5 18.499 19.499 34.498t25.998 27.498q14 11.5 26.999 17.499l32.998 -10.999q-16.999 -15.999 -28.998 -33.498q-12 -17.499 -15 -26.498
q11 0 22.999 -2.5t21.499 -8.5q9.49902 -5.99902 15.999 -15.999q6.49902 -9.99902 6.49902 -24.998q0 -28.998 -20.498 -42.4971q-20.499 -13.5 -46.498 -13.5z" />
    <glyph glyph-name="Hbar" unicode="&#x126;" horiz-adv-x="656" 
d="M586 648v-92h50v-101h-50v-455h-130v263h-257v-263h-130v455h-49v101h49v92h130v-92h257v92h130zM456 377v78h-257v-78h257z" />
    <glyph glyph-name="hbar" unicode="&#x127;" horiz-adv-x="561" 
d="M511 0h-125v256q0 60 -19 84.5t-61 24.5q-39 0 -68.5 -36.5t-29.5 -109.5v-219h-125v530h-58v101h58v59h125v-59h153v-101h-153v-77q0 -22 -4.5 -45.5t-15.5 -52.5l12 -2q8 19 20 38t30 34t44 24.5t62 9.5q37 0 66 -13t49 -36t30 -55t10 -69v-286z" />
    <glyph glyph-name="Imacron" unicode="&#x12a;" horiz-adv-x="270" 
d="M200 0h-130v648h130v-648zM265 782v-85h-258v85h258z" />
    <glyph glyph-name="imacron" unicode="&#x12b;" horiz-adv-x="246" 
d="M60 507q15 -6 31 -8.5t32 -2.5q34 0 63 11v-507h-126v507v0zM253 650v-85h-258v85h258z" />
    <glyph glyph-name="Iogonek" unicode="&#x12e;" horiz-adv-x="270" 
d="M200 0h-20q-26 -10 -39.5 -29.5t-13.5 -36.5q0 -16 10 -26.5t30 -10.5q16 0 33 6v-72q-10 -3 -23.5 -5.5t-33.5 -2.5q-44 0 -68 24t-24 58q0 25 14 50t43 45h-38v648h130v-648z" />
    <glyph glyph-name="iogonek" unicode="&#x12f;" horiz-adv-x="246" 
d="M60 507q15 -6 31 -8.5t32 -2.5q34 0 63 11v-507h-20q-26 -10 -39.5 -29.5t-13.5 -36.5q0 -16 10 -26.5t30 -10.5q16 0 33 6v-72q-10 -3 -23.5 -5.5t-33.5 -2.5q-44 0 -68 24t-24 58q0 25 14 50t43 45h-34v507zM123 540q-33 0 -55 18.5t-22 44.5t22 44t55 18
q32 0 54.5 -18t22.5 -44t-22.5 -44.5t-54.5 -18.5z" />
    <glyph glyph-name="Idotaccent" unicode="&#x130;" horiz-adv-x="270" 
d="M200 0h-130v648h130v-648zM136 681q-33 0 -55 18.5t-22 44.5t22 44t55 18q32 0 54.5 -18t22.5 -44t-22.5 -44.5t-54.5 -18.5z" />
    <glyph glyph-name="dotlessi" unicode="&#x131;" horiz-adv-x="246" 
d="M60 507q15 -6 31 -8.5t32 -2.5q34 0 63 11v-507h-126v507v0z" />
    <glyph glyph-name="uni0136" unicode="&#x136;" horiz-adv-x="593" 
d="M70 0v648h130v-268h63q43 0 63.5 18.5t34.5 56.5q7 21 16.5 48.5t20 54.5t20.5 51t19 39h138q-38 -72 -65 -133t-39 -94q-8 -21 -17 -35.5t-21 -25t-28.5 -17t-39.5 -9.5v-10q48 -8 72 -27t38 -60q7 -20 19 -49t27.5 -62t32.5 -66t34 -60h-148q-8 13 -18.5 34t-21 46
t-20.5 51.5t-17 50.5q-6 21 -14 37.5t-19 27.5t-28 16.5t-41 5.5h-61v-269h-130zM295 -24q26 0 47.5 -14.5t21.5 -46.5q0 -20 -7.5 -38.5t-19.5 -34.5t-26 -27.5t-27 -17.5l-33 11q17 16 29 33.5t15 26.5q-11 0 -23 2.5t-21.5 8.5t-16 16t-6.5 25q0 29 20.5 42.5t46.5 13.5z
" />
    <glyph glyph-name="uni0137" unicode="&#x137;" horiz-adv-x="510" 
d="M60 0v690h125v-391h43q28 0 44.5 13.5t25.5 40.5q14 44 31 86.5t37 67.5h133q-17 -18 -29.5 -38t-23 -42t-19 -44t-18.5 -43q-16 -35 -35 -52.5t-59 -24.5v-10q45 -6 66.5 -24.5t35.5 -56.5q16 -42 37 -87.5t51 -84.5h-139q-17 20 -33.5 60t-30.5 85q-11 34 -27.5 49.5
t-54.5 15.5h-35v-210h-125zM249 -24q26 0 47.5 -14.5t21.5 -46.5q0 -20 -7.5 -38.5t-19.5 -34.5t-26 -27.5t-27 -17.5l-33 11q17 16 29 33.5t15 26.5q-11 0 -23 2.5t-21.5 8.5t-16 16t-6.5 25q0 29 20.5 42.5t46.5 13.5z" />
    <glyph glyph-name="Lacute" unicode="&#x139;" horiz-adv-x="498" 
d="M192 111h267v-111h-396v648h129v-537zM72 740q19 2 46 11t55 21t53 27t39 29l48 -83q-21 -17 -51 -29t-61.5 -20.5t-60.5 -12.5t-48 -4z" />
    <glyph glyph-name="lacute" unicode="&#x13a;" horiz-adv-x="246" 
d="M186 0h-126v690h126v-690zM50 791q19 2 46 11t55 21t53 27t39 29l48 -83q-21 -17 -51 -29t-61.5 -20.5t-60.5 -12.5t-48 -4z" />
    <glyph glyph-name="uni013B" unicode="&#x13b;" horiz-adv-x="498" 
d="M192 111h267v-111h-396v648h129v-537zM248 -24q26 0 47.5 -14.5t21.5 -46.5q0 -20 -7.5 -38.5t-19.5 -34.5t-26 -27.5t-27 -17.5l-33 11q17 16 29 33.5t15 26.5q-11 0 -23 2.5t-21.5 8.5t-16 16t-6.5 25q0 29 20.5 42.5t46.5 13.5z" />
    <glyph glyph-name="uni013C" unicode="&#x13c;" horiz-adv-x="246" 
d="M186 0h-126v690h126v-690zM123 -24q26 0 47.5 -14.5t21.5 -46.5q0 -20 -7.5 -38.5t-19.5 -34.5t-26 -27.5t-27 -17.5l-33 11q17 16 29 33.5t15 26.5q-11 0 -23 2.5t-21.5 8.5t-16 16t-6.5 25q0 29 20.5 42.5t46.5 13.5z" />
    <glyph glyph-name="Lcaron" unicode="&#x13d;" horiz-adv-x="498" 
d="M192 111h267v-111h-396v648h129v-537zM370 700q25 0 45 -16.5t20 -54.5q0 -23 -7.5 -46.5t-19 -44t-25 -36.5t-24.5 -24l-42 12q17 19 30.5 41.5t15.5 37.5q-23 0 -41 16t-18 50q0 32 19.5 48.5t46.5 16.5z" />
    <glyph glyph-name="lcaron" unicode="&#x13e;" horiz-adv-x="318" 
d="M186 0h-126v690h126v-690zM293 700q25 0 45 -16.5t20 -54.5q0 -23 -7.5 -46.5t-19 -44t-25 -36.5t-24.5 -24l-42 12q17 19 30.5 41.5t15.5 37.5q-23 0 -41 16t-18 50q0 32 19.5 48.5t46.5 16.5z" />
    <glyph glyph-name="Lslash" unicode="&#x141;" horiz-adv-x="517" 
d="M224 446l135 63v-110l-135 -63v-225h268v-111h-397v277l-80 -36v108l80 37v262h129v-202z" />
    <glyph glyph-name="lslash" unicode="&#x142;" horiz-adv-x="282" 
d="M204 471l63 33v-109l-63 -33v-362h-126v297l-63 -32v108l63 33v284h126v-219z" />
    <glyph glyph-name="Nacute" unicode="&#x143;" horiz-adv-x="659" 
d="M412 313q28 -44 43.5 -84.5t29.5 -75.5l9 3q-12 47 -19 96t-7 81v315h121v-648h-123l-219 335q-28 44 -43.5 84.5t-29.5 75.5l-9 -3q12 -47 19 -96t7 -81v-315h-121v648h123zM227 740q19 2 46 11t55 21t53 27t39 29l48 -83q-21 -17 -51 -29t-61.5 -20.5t-60.5 -12.5
t-48 -4z" />
    <glyph glyph-name="nacute" unicode="&#x144;" horiz-adv-x="543" 
d="M488 0h-125v314q0 60 -19 84.5t-61 24.5q-39 0 -68.5 -36.5t-29.5 -109.5v-277h-125v507h125v-9q0 -12 -4.5 -34t-15.5 -51l12 -2q8 19 20 38t30 34t44 24.5t62 9.5q37 0 66 -13t49 -36t30 -55t10 -69v-344zM193 597q25 6 51.5 17.5t50 26t43.5 29.5t33 29l53 -67
q-19 -19 -46.5 -35t-57 -28t-59 -19.5t-51.5 -8.5z" />
    <glyph glyph-name="uni0145" unicode="&#x145;" horiz-adv-x="659" 
d="M412 313q28 -44 43.5 -84.5t29.5 -75.5l9 3q-12 47 -19 96t-7 81v315h121v-648h-123l-219 335q-28 44 -43.5 84.5t-29.5 75.5l-9 -3q12 -47 19 -96t7 -81v-315h-121v648h123zM328 -24q26 0 47.5 -14.5t21.5 -46.5q0 -20 -7.5 -38.5t-19.5 -34.5t-26 -27.5t-27 -17.5
l-33 11q17 16 29 33.5t15 26.5q-11 0 -23 2.5t-21.5 8.5t-16 16t-6.5 25q0 29 20.5 42.5t46.5 13.5z" />
    <glyph glyph-name="uni0146" unicode="&#x146;" horiz-adv-x="543" 
d="M488 0h-125v314q0 60 -19 84.5t-61 24.5q-39 0 -68.5 -36.5t-29.5 -109.5v-277h-125v507h125v-9q0 -12 -4.5 -34t-15.5 -51l12 -2q8 19 20 38t30 34t44 24.5t62 9.5q37 0 66 -13t49 -36t30 -55t10 -69v-344zM270 -24q26 0 47.5 -14.5t21.5 -46.5q0 -20 -7.5 -38.5
t-19.5 -34.5t-26 -27.5t-27 -17.5l-33 11q17 16 29 33.5t15 26.5q-11 0 -23 2.5t-21.5 8.5t-16 16t-6.5 25q0 29 20.5 42.5t46.5 13.5z" />
    <glyph glyph-name="Ncaron" unicode="&#x147;" horiz-adv-x="659" 
d="M412 313q28 -44 43.5 -84.5t29.5 -75.5l9 3q-12 47 -19 96t-7 81v315h121v-648h-123l-219 335q-28 44 -43.5 84.5t-29.5 75.5l-9 -3q12 -47 19 -96t7 -81v-315h-121v648h123zM470 795q-15 -12 -30.5 -27t-29 -30t-24.5 -30t-17 -27h-106q-5 11 -17.5 27t-28 32.5
t-31.5 31t-28 23.5h108l47 -70h6l46 70h105z" />
    <glyph glyph-name="ncaron" unicode="&#x148;" horiz-adv-x="543" 
d="M488 0h-125v314q0 60 -19 84.5t-61 24.5q-39 0 -68.5 -36.5t-29.5 -109.5v-277h-125v507h125v-9q0 -12 -4.5 -34t-15.5 -51l12 -2q8 19 20 38t30 34t44 24.5t62 9.5q37 0 66 -13t49 -36t30 -55t10 -69v-344zM433 695q-13 -14 -28 -32.5t-29.5 -38.5t-27.5 -41t-22 -39
h-82q-9 18 -21.5 39t-27.5 41t-30 38.5t-28 32.5h98l47 -96h6l47 96h98z" />
    <glyph glyph-name="Eng" unicode="&#x14a;" horiz-adv-x="659" 
d="M463 4l-216 331q-28 44 -43.5 84.5t-29.5 75.5l-9 -3q12 -47 19 -96t7 -81v-315h-121v648h123l219 -335q28 -44 43.5 -84.5t29.5 -75.5l9 3q-12 47 -19 96t-7 81v315h121v-654q0 -36 -3.5 -66t-17 -52.5t-39.5 -35t-70 -12.5q-16 0 -32.5 1t-34.5 4v91q8 -2 15.5 -2h14.5
q29 0 35 20t6 55v7z" />
    <glyph glyph-name="eng" unicode="&#x14b;" horiz-adv-x="543" 
d="M363 314q0 60 -19 84.5t-61 24.5q-39 0 -68.5 -36.5t-29.5 -109.5v-277h-125v507h125v-9q0 -12 -4.5 -34t-15.5 -51l12 -2q8 19 20 38t30 34t44 24.5t62 9.5q37 0 66 -13t49 -36t30 -55t10 -69v-350q0 -36 -3.5 -66t-16.5 -52.5t-39 -35t-70 -12.5q-16 0 -32.5 1t-34.5 4
v91q8 -2 15.5 -2h14.5q29 0 35 20t6 55v317z" />
    <glyph glyph-name="Omacron" unicode="&#x14c;" horiz-adv-x="642" 
d="M320 -16q-72 0 -125.5 26.5t-89 72.5t-53 108t-17.5 133q0 70 18 132t53.5 108t89 72.5t125.5 26.5t125.5 -26.5t89.5 -72.5t53.5 -108t17.5 -132q0 -71 -18 -133t-53.5 -108t-89.5 -72.5t-126 -26.5zM320 88q75 0 114.5 60.5t39.5 175.5q0 113 -39.5 174t-114.5 61
q-74 0 -113 -61t-39 -174q0 -115 39 -175.5t113 -60.5zM450 782v-85h-258v85h258z" />
    <glyph glyph-name="omacron" unicode="&#x14d;" horiz-adv-x="544" 
d="M272 -14q-114 0 -175.5 69t-61.5 197q0 129 61.5 198t175.5 69t175.5 -69t61.5 -198q0 -128 -61.5 -197t-175.5 -69zM272 73q55 0 81 41.5t26 137.5t-26 138t-81 42q-56 0 -81.5 -42t-25.5 -138t25.5 -137.5t81.5 -41.5zM401 650v-85h-258v85h258z" />
    <glyph glyph-name="Ohungarumlaut" unicode="&#x150;" horiz-adv-x="642" 
d="M320 -16q-72 0 -125.5 26.5t-89 72.5t-53 108t-17.5 133q0 70 18 132t53.5 108t89 72.5t125.5 26.5t125.5 -26.5t89.5 -72.5t53.5 -108t17.5 -132q0 -71 -18 -133t-53.5 -108t-89.5 -72.5t-126 -26.5zM320 88q75 0 114.5 60.5t39.5 175.5q0 113 -39.5 174t-114.5 61
q-74 0 -113 -61t-39 -174q0 -115 39 -175.5t113 -60.5zM174 738q18 6 38 15.5t39 21t35 25t25 27.5l56 -65q-18 -17 -40.5 -31t-46.5 -24t-46.5 -16.5t-40.5 -7.5zM345 738q36 12 73.5 36.5t63.5 52.5l56 -65q-18 -17 -40.5 -31t-46.5 -24t-46.5 -16.5t-40.5 -7.5z" />
    <glyph glyph-name="ohungarumlaut" unicode="&#x151;" horiz-adv-x="544" 
d="M272 -14q-114 0 -175.5 69t-61.5 197q0 129 61.5 198t175.5 69t175.5 -69t61.5 -198q0 -128 -61.5 -197t-175.5 -69zM272 73q55 0 81 41.5t26 137.5t-26 138t-81 42q-56 0 -81.5 -42t-25.5 -138t25.5 -137.5t81.5 -41.5zM118 606q18 6 38 17t39 24.5t35 28.5t25 29
l61 -65q-18 -17 -40.5 -32.5t-46.5 -27.5t-46.5 -20t-40.5 -9zM289 606q18 6 36.5 17t36.5 24.5t34.5 28.5t29.5 29l61 -65q-18 -17 -40.5 -32.5t-46.5 -27.5t-46.5 -20t-40.5 -9z" />
    <glyph glyph-name="OE" unicode="&#x152;" horiz-adv-x="888" 
d="M593 269q-2 -21 -7 -44t-13.5 -44.5t-21 -40.5t-28.5 -34l3 -7q17 4 44 8t65 4h218v-111h-532q-72 0 -125.5 24t-89 67.5t-53.5 102.5t-18 130q0 68 17.5 127t53.5 103t90 69t127 25h520v-111h-208q-38 0 -65 4t-44 8l-3 -7q34 -29 50 -73t19 -89h223v-111h-222zM317 88
q75 0 114.5 60.5t39.5 175.5q0 113 -39.5 174t-114.5 61q-74 0 -113 -61t-39 -174q0 -115 39 -175.5t113 -60.5z" />
    <glyph glyph-name="oe" unicode="&#x153;" horiz-adv-x="862" 
d="M819 166q3 -42 -10 -76t-40 -58t-66.5 -36.5t-89.5 -12.5q-60 0 -102 19t-68 54q-58 -70 -171 -70q-114 0 -175.5 69t-61.5 197q0 129 61.5 198t175.5 69q116 0 174 -75q27 34 68.5 53.5t100.5 19.5q55 0 94 -17.5t64 -47t37 -69t12 -83.5q0 -14 -1 -33t-3 -34h-309
q0 -80 28.5 -123t80.5 -43q20 0 37.5 5.5t30 17.5t19 30.5t4.5 45.5h110zM272 73q55 0 81 41.5t26 137.5t-26 138t-81 42q-56 0 -81.5 -42t-25.5 -138t25.5 -137.5t81.5 -41.5zM615 434q-50 0 -76.5 -33.5t-28.5 -93.5h199v6q0 121 -94 121z" />
    <glyph glyph-name="Racute" unicode="&#x154;" horiz-adv-x="588" 
d="M75 0v648h230q48 0 90 -11t73.5 -34t50 -60t18.5 -88q0 -40 -15 -69.5t-38 -50.5t-51.5 -33t-56.5 -16v-9q26 -3 45 -12t33 -23.5t24 -33t18 -39.5t16 -46.5t16 -49.5t16.5 -43.5t18.5 -29.5h-153q-9 15 -14.5 34.5t-10 40t-8.5 40t-9 34.5q-6 20 -13 34t-18 22.5
t-27 12.5t-41 4h-64v-222h-130zM402 436q0 32 -11 51.5t-28 30.5t-38.5 15t-43.5 4h-76v-204h73q22 0 44.5 5t40 16.5t28.5 31.5t11 50zM169 740q19 2 46 11t55 21t53 27t39 29l48 -83q-21 -17 -51 -29t-61.5 -20.5t-60.5 -12.5t-48 -4z" />
    <glyph glyph-name="racute" unicode="&#x155;" horiz-adv-x="376" 
d="M169 390q12 30 25 55.5t30 44.5t38.5 29.5t51.5 10.5q8 0 17.5 -1t19.5 -3v-124h-15q-27 11 -52 11q-19 0 -37 -7.5t-31.5 -27.5t-21.5 -54t-8 -88v-236h-126v507h126v-9q0 -21 -9 -51.5t-21 -53.5zM104 597q25 6 51.5 17.5t50 26t43.5 29.5t33 29l53 -67
q-19 -19 -46.5 -35t-57 -28t-59 -19.5t-51.5 -8.5z" />
    <glyph glyph-name="uni0156" unicode="&#x156;" horiz-adv-x="588" 
d="M75 0v648h230q48 0 90 -11t73.5 -34t50 -60t18.5 -88q0 -40 -15 -69.5t-38 -50.5t-51.5 -33t-56.5 -16v-9q26 -3 45 -12t33 -23.5t24 -33t18 -39.5t16 -46.5t16 -49.5t16.5 -43.5t18.5 -29.5h-153q-9 15 -14.5 34.5t-10 40t-8.5 40t-9 34.5q-6 20 -13 34t-18 22.5
t-27 12.5t-41 4h-64v-222h-130zM402 436q0 32 -11 51.5t-28 30.5t-38.5 15t-43.5 4h-76v-204h73q22 0 44.5 5t40 16.5t28.5 31.5t11 50zM295 -24q26 0 47.5 -14.5t21.5 -46.5q0 -20 -7.5 -38.5t-19.5 -34.5t-26 -27.5t-27 -17.5l-33 11q17 16 29 33.5t15 26.5q-11 0 -23 2.5
t-21.5 8.5t-16 16t-6.5 25q0 29 20.5 42.5t46.5 13.5z" />
    <glyph glyph-name="uni0157" unicode="&#x157;" horiz-adv-x="376" 
d="M169 390q12 30 25 55.5t30 44.5t38.5 29.5t51.5 10.5q8 0 17.5 -1t19.5 -3v-124h-15q-27 11 -52 11q-19 0 -37 -7.5t-31.5 -27.5t-21.5 -54t-8 -88v-236h-126v507h126v-9q0 -21 -9 -51.5t-21 -53.5zM137 -24q26 0 47.5 -14.5t21.5 -46.5q0 -20 -7.5 -38.5t-19.5 -34.5
t-26 -27.5t-27 -17.5l-33 11q17 16 29 33.5t15 26.5q-11 0 -23 2.5t-21.5 8.5t-16 16t-6.5 25q0 29 20.5 42.5t46.5 13.5z" />
    <glyph glyph-name="Rcaron" unicode="&#x158;" horiz-adv-x="588" 
d="M75 0v648h230q48 0 90 -11t73.5 -34t50 -60t18.5 -88q0 -40 -15 -69.5t-38 -50.5t-51.5 -33t-56.5 -16v-9q26 -3 45 -12t33 -23.5t24 -33t18 -39.5t16 -46.5t16 -49.5t16.5 -43.5t18.5 -29.5h-153q-9 15 -14.5 34.5t-10 40t-8.5 40t-9 34.5q-6 20 -13 34t-18 22.5
t-27 12.5t-41 4h-64v-222h-130zM402 436q0 32 -11 51.5t-28 30.5t-38.5 15t-43.5 4h-76v-204h73q22 0 44.5 5t40 16.5t28.5 31.5t11 50zM419 795q-15 -12 -30.5 -27t-29 -30t-24.5 -30t-17 -27h-106q-5 11 -17.5 27t-28 32.5t-31.5 31t-28 23.5h108l47 -70h6l46 70h105z" />
    <glyph glyph-name="rcaron" unicode="&#x159;" horiz-adv-x="376" 
d="M169 390q12 30 25 55.5t30 44.5t38.5 29.5t51.5 10.5q8 0 17.5 -1t19.5 -3v-124h-15q-27 11 -52 11q-19 0 -37 -7.5t-31.5 -27.5t-21.5 -54t-8 -88v-236h-126v507h126v-9q0 -21 -9 -51.5t-21 -53.5zM351 695q-13 -14 -28 -32.5t-29.5 -38.5t-27.5 -41t-22 -39h-82
q-9 18 -21.5 39t-27.5 41t-30 38.5t-28 32.5h98l47 -96h6l47 96h98z" />
    <glyph glyph-name="Sacute" unicode="&#x15a;" horiz-adv-x="547" 
d="M164 208q-5 -20 -5 -33q0 -22 9.5 -37.5t25 -25.5t36 -15t41.5 -5q22 0 42.5 4t36.5 13t25.5 23.5t9.5 36.5q0 35 -25.5 54t-63.5 32t-82.5 26t-82.5 35t-63.5 58.5t-25.5 98.5q0 49 20 84.5t53 58.5t74 33.5t83 10.5q41 0 80.5 -10.5t70.5 -31.5t50 -52t19 -71
q0 -26 -7 -53h-119q2 10 3.5 18.5t1.5 16.5q0 21 -8.5 36t-22 24t-32 13.5t-37.5 4.5q-42 0 -74 -18.5t-32 -55.5q0 -34 25.5 -52.5t64.5 -32t83.5 -26.5t83.5 -36t64.5 -59.5t25.5 -97.5q0 -53 -22 -89.5t-56.5 -59t-77.5 -32t-85 -9.5q-45 0 -87.5 11t-75.5 32.5t-53 54.5
t-20 77q0 20 6 46h123zM167 740q19 2 46 11t55 21t53 27t39 29l48 -83q-21 -17 -51 -29t-61.5 -20.5t-60.5 -12.5t-48 -4z" />
    <glyph glyph-name="sacute" unicode="&#x15b;" horiz-adv-x="490" 
d="M151 160q-4 -12 -4 -25q0 -32 26.5 -47t60.5 -15q16 0 31 3.5t27 10t19 17.5t7 26q0 25 -20.5 39t-51.5 24.5t-66.5 21t-66.5 29t-51.5 48.5t-20.5 80q0 39 16.5 67t43.5 46t61.5 26.5t70.5 8.5t70.5 -8.5t61 -25.5t42.5 -42t16 -59q0 -17 -5 -40h-110q3 15 3 27
q0 32 -23.5 46.5t-55.5 14.5q-31 0 -52 -14.5t-21 -40.5t20.5 -40.5t51.5 -24.5t67.5 -20.5t67.5 -28.5t51.5 -48t20.5 -79q0 -41 -17.5 -69.5t-46.5 -46.5t-65.5 -26.5t-75.5 -8.5q-38 0 -73.5 8.5t-64 26t-45.5 44t-17 62.5q0 18 4 33h114v0zM135 597q25 6 51.5 17.5
t50 26t43.5 29.5t33 29l53 -67q-19 -19 -46.5 -35t-57 -28t-59 -19.5t-51.5 -8.5z" />
    <glyph glyph-name="Scedilla" unicode="&#x15e;" horiz-adv-x="547" 
d="M164 208q-5 -20 -5 -33q0 -22 9.5 -37.5t25 -25.5t36 -15t41.5 -5q22 0 42.5 4t36.5 13t25.5 23.5t9.5 36.5q0 35 -25.5 54t-63.5 32t-82.5 26t-82.5 35t-63.5 58.5t-25.5 98.5q0 49 20 84.5t53 58.5t74 33.5t83 10.5q41 0 80.5 -10.5t70.5 -31.5t50 -52t19 -71
q0 -26 -7 -53h-119q2 10 3.5 18.5t1.5 16.5q0 21 -8.5 36t-22 24t-32 13.5t-37.5 4.5q-42 0 -74 -18.5t-32 -55.5q0 -34 25.5 -52.5t64.5 -32t83.5 -26.5t83.5 -36t64.5 -59.5t25.5 -97.5q0 -53 -21 -88.5t-55 -58t-76 -32.5t-84 -11l-4 -13q18 0 36 -4t32.5 -12.5
t23.5 -22.5t9 -33q0 -21 -9.5 -37t-24.5 -26.5t-34 -15.5t-39 -5q-36 0 -64.5 16t-28.5 46q0 12 4 23h60q-2 -4 -2 -10q0 -11 9.5 -17t21.5 -6t22.5 7t10.5 22q0 18 -17.5 26t-42.5 8q-11 0 -22.5 -1.5t-23.5 -3.5l-4 2l22 62q-36 6 -68 19.5t-56 35t-38 50.5t-14 65
q0 20 6 46h123z" />
    <glyph glyph-name="scedilla" unicode="&#x15f;" horiz-adv-x="490" 
d="M150 160q-4 -12 -4 -25q0 -32 26.5 -47t60.5 -15q16 0 31 3.5t27 10t19 17.5t7 26q0 25 -20.5 39t-51.5 24.5t-66.5 21t-66.5 29t-51.5 48.5t-20.5 80q0 39 16.5 67t43.5 46t61.5 26.5t70.5 8.5t70.5 -8.5t61 -25.5t42.5 -42t16 -59q0 -17 -5 -40h-110q3 15 3 27
q0 32 -23.5 46.5t-55.5 14.5q-31 0 -52 -14.5t-21 -40.5t20.5 -40.5t51.5 -24.5t67.5 -20.5t67.5 -28.5t51.5 -48t20.5 -79q0 -39 -16 -66.5t-42 -45.5t-60.5 -27.5t-70.5 -10.5l-4 -13q18 0 36 -4t32.5 -12.5t23.5 -22.5t9 -33q0 -21 -9.5 -37t-24.5 -26.5t-34 -15.5
t-39 -5q-36 0 -64.5 16t-28.5 46q0 12 4 23h60q-2 -4 -2 -10q0 -11 9.5 -17t21.5 -6t22.5 7t10.5 22q0 18 -17.5 26t-42.5 8q-11 0 -22.5 -1.5t-23.5 -3.5l-4 2l21 60q-30 4 -57.5 15t-48 28.5t-32.5 40.5t-12 53q0 18 4 33h114v0z" />
    <glyph glyph-name="Scaron" unicode="&#x160;" horiz-adv-x="547" 
d="M164 208q-5 -20 -5 -33q0 -22 9.5 -37.5t25 -25.5t36 -15t41.5 -5q22 0 42.5 4t36.5 13t25.5 23.5t9.5 36.5q0 35 -25.5 54t-63.5 32t-82.5 26t-82.5 35t-63.5 58.5t-25.5 98.5q0 49 20 84.5t53 58.5t74 33.5t83 10.5q41 0 80.5 -10.5t70.5 -31.5t50 -52t19 -71
q0 -26 -7 -53h-119q2 10 3.5 18.5t1.5 16.5q0 21 -8.5 36t-22 24t-32 13.5t-37.5 4.5q-42 0 -74 -18.5t-32 -55.5q0 -34 25.5 -52.5t64.5 -32t83.5 -26.5t83.5 -36t64.5 -59.5t25.5 -97.5q0 -53 -22 -89.5t-56.5 -59t-77.5 -32t-85 -9.5q-45 0 -87.5 11t-75.5 32.5t-53 54.5
t-20 77q0 20 6 46h123zM417 795q-15 -12 -30.5 -27t-29 -30t-24.5 -30t-17 -27h-106q-5 11 -17.5 27t-28 32.5t-31.5 31t-28 23.5h108l47 -70h6l46 70h105z" />
    <glyph glyph-name="scaron" unicode="&#x161;" horiz-adv-x="490" 
d="M151 160q-4 -12 -4 -25q0 -32 26.5 -47t60.5 -15q16 0 31 3.5t27 10t19 17.5t7 26q0 25 -20.5 39t-51.5 24.5t-66.5 21t-66.5 29t-51.5 48.5t-20.5 80q0 39 16.5 67t43.5 46t61.5 26.5t70.5 8.5t70.5 -8.5t61 -25.5t42.5 -42t16 -59q0 -17 -5 -40h-110q3 15 3 27
q0 32 -23.5 46.5t-55.5 14.5q-31 0 -52 -14.5t-21 -40.5t20.5 -40.5t51.5 -24.5t67.5 -20.5t67.5 -28.5t51.5 -48t20.5 -79q0 -41 -17.5 -69.5t-46.5 -46.5t-65.5 -26.5t-75.5 -8.5q-38 0 -73.5 8.5t-64 26t-45.5 44t-17 62.5q0 18 4 33h114v0zM385 695q-13 -14 -28 -32.5
t-29.5 -38.5t-27.5 -41t-22 -39h-82q-9 18 -21.5 39t-27.5 41t-30 38.5t-28 32.5h98l47 -96h6l47 96h98z" />
    <glyph glyph-name="uni0162" unicode="&#x162;" horiz-adv-x="532" 
d="M293 0l-9 -26q18 0 36 -4t32.5 -12.5t23.5 -22.5t9 -33q0 -21 -9.5 -37t-24.5 -26.5t-34 -15.5t-39 -5q-36 0 -64.5 16t-28.5 46q0 12 4 23h60q-2 -4 -2 -10q0 -11 9.5 -17t21.5 -6t22.5 7t10.5 22q0 18 -17.5 26t-42.5 8q-11 0 -22.5 -1.5t-23.5 -3.5l-4 2l25 70h-25
v537h-186v111h502v-111h-186v-537h-38z" />
    <glyph glyph-name="uni0163" unicode="&#x163;" horiz-adv-x="334" 
d="M207 125q0 -23 15 -30t35 -7q14 0 27 1t25 3v-93q-20 -3 -47 -5t-47 -2h-4l-6 -18q18 0 36 -4t32.5 -12.5t23.5 -22.5t9 -33q0 -21 -9.5 -37t-24.5 -26.5t-34 -15.5t-39 -5q-36 0 -64.5 16t-28.5 46q0 12 4 23h60q-2 -4 -2 -10q0 -11 9.5 -17t21.5 -6t22.5 7t10.5 22
q0 18 -17.5 26t-42.5 8q-11 0 -22.5 -1.5t-23.5 -3.5l-4 2l25 72q-31 11 -48.5 38t-17.5 78v294h-66v95h66v102h126v-102h102v-95h-102v-287z" />
    <glyph glyph-name="Tcaron" unicode="&#x164;" horiz-adv-x="532" 
d="M201 0v537h-186v111h502v-111h-186v-537h-130zM415 795q-15 -12 -30.5 -27t-29 -30t-24.5 -30t-17 -27h-106q-5 11 -17.5 27t-28 32.5t-31.5 31t-28 23.5h108l47 -70h6l46 70h105z" />
    <glyph glyph-name="tcaron" unicode="&#x165;" horiz-adv-x="412" 
d="M208 125q0 -23 15 -30t35 -7q14 0 27 1t25 3v-93q-20 -3 -47 -5t-47 -2q-29 0 -53.5 5.5t-42.5 20t-28 38.5t-10 62v294h-66v95h66v102h126v-102h102v-95h-102v-287zM384 700q25 0 45 -16.5t20 -54.5q0 -23 -7.5 -46.5t-19 -44t-25 -36.5t-24.5 -24l-42 12
q17 19 30.5 41.5t15.5 37.5q-23 0 -41 16t-18 50q0 32 19.5 48.5t46.5 16.5z" />
    <glyph glyph-name="Tbar" unicode="&#x166;" horiz-adv-x="532" 
d="M201 0v266h-124v101h124v170h-186v111h502v-111h-186v-170h122v-101h-122v-266h-130z" />
    <glyph glyph-name="tbar" unicode="&#x167;" horiz-adv-x="344" 
d="M217 338h102v-90h-102v-123q0 -23 15 -30t35 -7q14 0 27 1t25 3v-93q-20 -3 -47 -5t-47 -2q-29 0 -53.5 5.5t-42.5 20t-28 38.5t-10 62v130h-66v90h66v74h-66v95h66v102h126v-102h102v-95h-102v-74z" />
    <glyph glyph-name="Umacron" unicode="&#x16a;" horiz-adv-x="641" 
d="M320 88q37 0 61 10.5t38 29.5t20 46t6 61v413h131v-402q0 -58 -14.5 -105.5t-45.5 -82t-79.5 -53.5t-116.5 -19t-116.5 17t-79 49t-45 78t-14.5 104v414h130v-413q0 -34 5.5 -61t19.5 -46t38 -29.5t62 -10.5zM449 782v-85h-258v85h258z" />
    <glyph glyph-name="umacron" unicode="&#x16b;" horiz-adv-x="538" 
d="M55 507h125v-314q0 -60 17.5 -84.5t59.5 -24.5q39 0 67.5 36.5t28.5 109.5v277h125v-507h-125v9q0 12 4.5 34t15.5 51l-12 2q-8 -20 -19.5 -39t-29.5 -34t-43.5 -24t-61.5 -9q-38 0 -66 13t-47.5 36t-29 54.5t-9.5 69.5v344zM399 650v-85h-258v85h258z" />
    <glyph glyph-name="Uring" unicode="&#x16e;" horiz-adv-x="641" 
d="M320 88q37 0 61 10.5t38 29.5t20 46t6 61v413h131v-402q0 -58 -14.5 -105.5t-45.5 -82t-79.5 -53.5t-116.5 -19t-116.5 17t-79 49t-45 78t-14.5 104v414h130v-413q0 -34 5.5 -61t19.5 -46t38 -29.5t62 -10.5zM321 668q-22 0 -42 6.5t-35 18.5t-24 28.5t-9 36.5
q0 19 9 35.5t24 28t35 18t42 6.5q21 0 41 -6.5t35 -18t24 -28t9 -35.5q0 -20 -9 -36.5t-24 -28.5t-35 -18.5t-41 -6.5zM321 715q17 0 29 12t12 32q0 16 -12 27.5t-29 11.5q-18 0 -30 -11.5t-12 -27.5q0 -20 12 -32t30 -12z" />
    <glyph glyph-name="uring" unicode="&#x16f;" horiz-adv-x="538" 
d="M55 507h125v-314q0 -60 17.5 -84.5t59.5 -24.5q39 0 67.5 36.5t28.5 109.5v277h125v-507h-125v9q0 12 4.5 34t15.5 51l-12 2q-8 -20 -19.5 -39t-29.5 -34t-43.5 -24t-61.5 -9q-38 0 -66 13t-47.5 36t-29 54.5t-9.5 69.5v344zM263 525q-22 0 -42 6.5t-35 18.5t-24 28.5
t-9 36.5q0 19 9 35.5t24 28t35 18t42 6.5q21 0 41 -6.5t35 -18t24 -28t9 -35.5q0 -20 -9 -36.5t-24 -28.5t-35 -18.5t-41 -6.5zM263 572q17 0 29 12t12 32q0 16 -12 27.5t-29 11.5q-18 0 -30 -11.5t-12 -27.5q0 -20 12 -32t30 -12z" />
    <glyph glyph-name="Uhungarumlaut" unicode="&#x170;" horiz-adv-x="641" 
d="M320 88q37 0 61 10.5t38 29.5t20 46t6 61v413h131v-402q0 -58 -14.5 -105.5t-45.5 -82t-79.5 -53.5t-116.5 -19t-116.5 17t-79 49t-45 78t-14.5 104v414h130v-413q0 -34 5.5 -61t19.5 -46t38 -29.5t62 -10.5zM164 738q18 6 38 15.5t39 21t35 25t25 27.5l56 -65
q-18 -17 -40.5 -31t-46.5 -24t-46.5 -16.5t-40.5 -7.5zM335 738q36 12 73.5 36.5t63.5 52.5l56 -65q-18 -17 -40.5 -31t-46.5 -24t-46.5 -16.5t-40.5 -7.5z" />
    <glyph glyph-name="uhungarumlaut" unicode="&#x171;" horiz-adv-x="538" 
d="M55 507h125v-314q0 -60 17.5 -84.5t59.5 -24.5q39 0 67.5 36.5t28.5 109.5v277h125v-507h-125v9q0 12 4.5 34t15.5 51l-12 2q-8 -20 -19.5 -39t-29.5 -34t-43.5 -24t-61.5 -9q-38 0 -66 13t-47.5 36t-29 54.5t-9.5 69.5v344zM94 606q18 6 38 17t39 24.5t35 28.5t25 29
l61 -65q-18 -17 -40.5 -32.5t-46.5 -27.5t-46.5 -20t-40.5 -9zM265 606q18 6 36.5 17t36.5 24.5t34.5 28.5t29.5 29l61 -65q-18 -17 -40.5 -32.5t-46.5 -27.5t-46.5 -20t-40.5 -9z" />
    <glyph glyph-name="Uogonek" unicode="&#x172;" horiz-adv-x="641" 
d="M320 88q37 0 61 10.5t38 29.5t20 46t6 61v413h131v-402q0 -50 -11 -92.5t-34 -75.5t-58.5 -55t-85.5 -31q-17 -11 -26.5 -27.5t-9.5 -30.5q0 -16 10 -26.5t30 -10.5q16 0 33 6v-72q-10 -3 -23.5 -5.5t-33.5 -2.5q-44 0 -68 24t-24 58q0 20 9.5 41t29.5 40
q-66 1 -113.5 18t-77.5 49t-44 78t-14 103v414h130v-413q0 -34 5.5 -61t19.5 -46t38 -29.5t62 -10.5z" />
    <glyph glyph-name="uogonek" unicode="&#x173;" horiz-adv-x="538" 
d="M55 507h125v-314q0 -60 17.5 -84.5t59.5 -24.5q39 0 67.5 36.5t28.5 109.5v277h125v-507h-20q-26 -10 -39.5 -29.5t-13.5 -36.5q0 -16 10 -26.5t30 -10.5q16 0 33 6v-72q-10 -3 -23.5 -5.5t-33.5 -2.5q-44 0 -68 24t-24 58q0 25 14 50t43 45h-33v9q0 12 4.5 34t15.5 51
l-12 2q-8 -20 -19.5 -39t-29.5 -34t-43.5 -24t-61.5 -9q-38 0 -66 13t-47.5 36t-29 54.5t-9.5 69.5v344z" />
    <glyph glyph-name="Wcircumflex" unicode="&#x174;" horiz-adv-x="875" 
d="M591 329q8 -37 14 -66.5t10.5 -55t7.5 -49t5 -47.5h16q2 51 10 110.5t19 128.5l49 298h133l-113 -648h-198l-70 314q-8 35 -13.5 68.5t-9 61t-5.5 48.5t-3 32h-13q-1 -11 -3.5 -32t-6.5 -48.5t-10 -60.5t-13 -68l-69 -315h-195l-113 648h135l49 -298q11 -69 18.5 -128.5
t9.5 -110.5h16q2 24 5 47.5t7.5 49t10.5 55t14 66.5l67 302h173zM283 681q15 12 30.5 27t29 30t24.5 30t17 27h106q5 -11 17.5 -27t28 -32.5t31.5 -31t28 -23.5h-108l-47 70h-6l-46 -70h-105z" />
    <glyph glyph-name="wcircumflex" unicode="&#x175;" horiz-adv-x="755" 
d="M506 268q5 -28 9 -56t7 -52t5 -42.5t2 -27.5h13q2 26 9.5 74t19.5 103l51 240h125l-118 -507h-172l-50 244q-3 18 -7 39t-7.5 43t-6.5 42.5t-4 36.5h-10q-2 -16 -5 -36.5t-6.5 -42.5t-7.5 -43t-7 -39l-49 -244h-172l-117 507h129l52 -238q12 -57 19 -105t9 -74h13
q1 9 2.5 27.5t4.5 42.5t7.5 52t9.5 56l46 239h159zM230 544q13 13 28 32t29.5 39t27.5 41t22 39h82q9 -18 21.5 -39t27.5 -41t30 -39t28 -32h-98l-47 96h-6l-47 -96h-98v0z" />
    <glyph glyph-name="Ycircumflex" unicode="&#x176;" horiz-adv-x="556" 
d="M346 215v-215h-130v218l-206 430h139l49 -107q14 -31 27.5 -63.5t25 -62t19 -52.5t9.5 -35h11q1 12 8 34.5t17.5 51t23.5 60.5t26 62l47 112h134zM129 681q15 12 30.5 27t29 30t24.5 30t17 27h106q5 -11 17.5 -27t28 -32.5t31.5 -31t28 -23.5h-108l-47 70h-6l-46 -70
h-105z" />
    <glyph glyph-name="ycircumflex" unicode="&#x177;" horiz-adv-x="480" 
d="M250 95q2 18 6 41t10 52.5t15 67.5t23 87l44 164h124l-209 -685h-129l44 132l-170 553h128l45 -158q16 -56 26.5 -97.5t16.5 -71.5t9 -50.5t5 -34.5h12v0zM97 544q13 13 28 32t29.5 39t27.5 41t22 39h82q9 -18 21.5 -39t27.5 -41t30 -39t28 -32h-98l-47 96h-6l-47 -96
h-98v0z" />
    <glyph glyph-name="Ydieresis" unicode="&#x178;" horiz-adv-x="556" 
d="M346 215v-215h-130v218l-206 430h139l49 -107q14 -31 27.5 -63.5t25 -62t19 -52.5t9.5 -35h11q1 12 8 34.5t17.5 51t23.5 60.5t26 62l47 112h134zM202 682q-31 0 -51 17t-20 41q0 23 20 40t51 17q30 0 50.5 -17t20.5 -40q0 -24 -20.5 -41t-50.5 -17zM377 682
q-31 0 -51 17t-20 41q0 23 20 40t51 17q30 0 50.5 -17t20.5 -40q0 -24 -20.5 -41t-50.5 -17z" />
    <glyph glyph-name="Zacute" unicode="&#x179;" horiz-adv-x="520" 
d="M486 0h-456v138l243 306q30 38 54 57t47 28v8h-336v111h452v-138l-237 -306q-32 -40 -58.5 -58.5t-48.5 -26.5v-8h340v-111zM143 740q19 2 46 11t55 21t53 27t39 29l48 -83q-21 -17 -51 -29t-61.5 -20.5t-60.5 -12.5t-48 -4z" />
    <glyph glyph-name="zacute" unicode="&#x17a;" horiz-adv-x="446" 
d="M210 330q15 18 30.5 31t29.5 22t25.5 13.5t17.5 5.5v10h-276v95h373v-110l-180 -220q-15 -18 -30.5 -31t-29.5 -22t-25.5 -13.5t-17.5 -5.5v-10h289v-95h-386v110zM117 597q25 6 51.5 17.5t50 26t43.5 29.5t33 29l53 -67q-19 -19 -46.5 -35t-57 -28t-59 -19.5t-51.5 -8.5
z" />
    <glyph glyph-name="Zdotaccent" unicode="&#x17b;" horiz-adv-x="520" 
d="M486 0h-456v138l243 306q30 38 54 57t47 28v8h-336v111h452v-138l-237 -306q-32 -40 -58.5 -58.5t-48.5 -26.5v-8h340v-111zM247 681q-33 0 -55 18.5t-22 44.5t22 44t55 18q32 0 54.5 -18t22.5 -44t-22.5 -44.5t-54.5 -18.5z" />
    <glyph glyph-name="zdotaccent" unicode="&#x17c;" horiz-adv-x="446" 
d="M210 330q15 18 30.5 31t29.5 22t25.5 13.5t17.5 5.5v10h-276v95h373v-110l-180 -220q-15 -18 -30.5 -31t-29.5 -22t-25.5 -13.5t-17.5 -5.5v-10h289v-95h-386v110zM223 548q-33 0 -55 18.5t-22 44.5t22 44t55 18q32 0 54.5 -18t22.5 -44t-22.5 -44.5t-54.5 -18.5z" />
    <glyph glyph-name="Zcaron" unicode="&#x17d;" horiz-adv-x="520" 
d="M486 0h-456v138l243 306q30 38 54 57t47 28v8h-336v111h452v-138l-237 -306q-32 -40 -58.5 -58.5t-48.5 -26.5v-8h340v-111zM400 795q-15 -12 -30.5 -27t-29 -30t-24.5 -30t-17 -27h-106q-5 11 -17.5 27t-28 32.5t-31.5 31t-28 23.5h108l47 -70h6l46 70h105z" />
    <glyph glyph-name="zcaron" unicode="&#x17e;" horiz-adv-x="446" 
d="M210 330q15 18 30.5 31t29.5 22t25.5 13.5t17.5 5.5v10h-276v95h373v-110l-180 -220q-15 -18 -30.5 -31t-29.5 -22t-25.5 -13.5t-17.5 -5.5v-10h289v-95h-386v110zM357 695q-13 -14 -28 -32.5t-29.5 -38.5t-27.5 -41t-22 -39h-82q-9 18 -21.5 39t-27.5 41t-30 38.5
t-28 32.5h98l47 -96h6l47 96h98z" />
    <glyph glyph-name="florin" unicode="&#x192;" horiz-adv-x="466" 
d="M371 596q-26 0 -40 -11.5t-18 -39.5l-8 -54h92v-98h-104l-34 -262q-9 -67 -44.5 -104t-110.5 -37q-23 0 -47.5 2.5t-46.5 7.5l15 98q15 -3 28.5 -4t28.5 -1q21 0 36.5 10.5t20.5 41.5l33 248h-81v98h93l10 73q8 63 43.5 100t108.5 37q22 0 47 -2.5t48 -5.5l-13 -103
q-16 3 -29 4.5t-28 1.5z" />
    <glyph glyph-name="uni0218" unicode="&#x218;" horiz-adv-x="547" 
d="M164 208q-5 -20 -5 -33q0 -22 9.5 -37.5t25 -25.5t36 -15t41.5 -5q22 0 42.5 4t36.5 13t25.5 23.5t9.5 36.5q0 35 -25.5 54t-63.5 32t-82.5 26t-82.5 35t-63.5 58.5t-25.5 98.5q0 49 20 84.5t53 58.5t74 33.5t83 10.5q41 0 80.5 -10.5t70.5 -31.5t50 -52t19 -71
q0 -26 -7 -53h-119q2 10 3.5 18.5t1.5 16.5q0 21 -8.5 36t-22 24t-32 13.5t-37.5 4.5q-42 0 -74 -18.5t-32 -55.5q0 -34 25.5 -52.5t64.5 -32t83.5 -26.5t83.5 -36t64.5 -59.5t25.5 -97.5q0 -53 -22 -89.5t-56.5 -59t-77.5 -32t-85 -9.5q-45 0 -87.5 11t-75.5 32.5t-53 54.5
t-20 77q0 20 6 46h123zM272 -24q26 0 47.5 -14.5t21.5 -46.5q0 -20 -7.5 -38.5t-19.5 -34.5t-26 -27.5t-27 -17.5l-33 11q17 16 29 33.5t15 26.5q-11 0 -23 2.5t-21.5 8.5t-16 16t-6.5 25q0 29 20.5 42.5t46.5 13.5z" />
    <glyph glyph-name="uni0219" unicode="&#x219;" horiz-adv-x="490" 
d="M151 160q-4 -12 -4 -25q0 -32 26.5 -47t60.5 -15q16 0 31 3.5t27 10t19 17.5t7 26q0 25 -20.5 39t-51.5 24.5t-66.5 21t-66.5 29t-51.5 48.5t-20.5 80q0 39 16.5 67t43.5 46t61.5 26.5t70.5 8.5t70.5 -8.5t61 -25.5t42.5 -42t16 -59q0 -17 -5 -40h-110q3 15 3 27
q0 32 -23.5 46.5t-55.5 14.5q-31 0 -52 -14.5t-21 -40.5t20.5 -40.5t51.5 -24.5t67.5 -20.5t67.5 -28.5t51.5 -48t20.5 -79q0 -41 -17.5 -69.5t-46.5 -46.5t-65.5 -26.5t-75.5 -8.5q-38 0 -73.5 8.5t-64 26t-45.5 44t-17 62.5q0 18 4 33h114v0zM244 -24q26 0 47.5 -14.5
t21.5 -46.5q0 -20 -7.5 -38.5t-19.5 -34.5t-26 -27.5t-27 -17.5l-33 11q17 16 29 33.5t15 26.5q-11 0 -23 2.5t-21.5 8.5t-16 16t-6.5 25q0 29 20.5 42.5t46.5 13.5z" />
    <glyph glyph-name="uni021A" unicode="&#x21a;" horiz-adv-x="532" 
d="M201 0v537h-186v111h502v-111h-186v-537h-130zM265 -24q26 0 47.5 -14.5t21.5 -46.5q0 -20 -7.5 -38.5t-19.5 -34.5t-26 -27.5t-27 -17.5l-33 11q17 16 29 33.5t15 26.5q-11 0 -23 2.5t-21.5 8.5t-16 16t-6.5 25q0 29 20.5 42.5t46.5 13.5z" />
    <glyph glyph-name="uni021B" unicode="&#x21b;" horiz-adv-x="334" 
d="M208 125q0 -23 15 -30t35 -7q14 0 27 1t25 3v-93q-20 -3 -47 -5t-47 -2q-29 0 -53.5 5.5t-42.5 20t-28 38.5t-10 62v294h-66v95h66v102h126v-102h102v-95h-102v-287zM167 -24q26 0 47.5 -14.5t21.5 -46.5q0 -20 -7.5 -38.5t-19.5 -34.5t-26 -27.5t-27 -17.5l-33 11
q17 16 29 33.5t15 26.5q-11 0 -23 2.5t-21.5 8.5t-16 16t-6.5 25q0 29 20.5 42.5t46.5 13.5z" />
    <glyph glyph-name="circumflex" unicode="&#x2c6;" horiz-adv-x="496" 
d="M100 544q13 13 28 32t29.5 39t27.5 41t22 39h82q9 -18 21.5 -39t27.5 -41t30 -39t28 -32h-98l-47 96h-6l-47 -96h-98v0z" />
    <glyph glyph-name="caron" unicode="&#x2c7;" horiz-adv-x="496" 
d="M396 695q-13 -14 -28 -32.5t-29.5 -38.5t-27.5 -41t-22 -39h-82q-9 18 -21.5 39t-27.5 41t-30 38.5t-28 32.5h98l47 -96h6l47 96h98z" />
    <glyph glyph-name="breve" unicode="&#x2d8;" horiz-adv-x="504" 
d="M173 683q11 -27 33 -41.5t48 -14.5t48.5 14.5t34.5 41.5l67 -41q-22 -45 -58.5 -66.5t-93.5 -21.5t-93.5 21.5t-58.5 66.5l73 41v0z" />
    <glyph glyph-name="dotaccent" unicode="&#x2d9;" horiz-adv-x="354" 
d="M177 548q-33 0 -55 18.5t-22 44.5t22 44t55 18q32 0 54.5 -18t22.5 -44t-22.5 -44.5t-54.5 -18.5z" />
    <glyph glyph-name="ring" unicode="&#x2da;" horiz-adv-x="407" 
d="M204 525q-22 0 -42 6.5t-35 18.5t-24 28.5t-9 36.5q0 19 9 35.5t24 28t35 18t42 6.5q21 0 41 -6.5t35 -18t24 -28t9 -35.5q0 -20 -9 -36.5t-24 -28.5t-35 -18.5t-41 -6.5zM204 572q17 0 29 12t12 32q0 16 -12 27.5t-29 11.5q-18 0 -30 -11.5t-12 -27.5q0 -20 12 -32
t30 -12z" />
    <glyph glyph-name="ogonek" unicode="&#x2db;" horiz-adv-x="349" 
d="M229 0q-26 -10 -39.5 -29.5t-13.5 -36.5q0 -16 10 -26.5t30 -10.5q16 0 33 6v-72q-10 -3 -23.5 -5.5t-33.5 -2.5q-44 0 -68 24t-24 58q0 27 17 55t55 49h57v-9v0z" />
    <glyph glyph-name="tilde" unicode="&#x2dc;" horiz-adv-x="472" 
d="M175 669q26 0 44 -8t31 -17t23 -17t21 -8q6 0 11 5.5t5 18.5q0 4 -0.5 8.5t-1.5 9.5h70q2 -9 3 -17.5t1 -16.5q0 -44 -25.5 -62t-59.5 -18q-26 0 -44 8t-31 17t-23.5 17t-20.5 8q-16 0 -16 -24q0 -4 0.5 -8.5t1.5 -9.5h-70q-4 16 -4 33q0 44 25.5 62.5t59.5 18.5z" />
    <glyph glyph-name="hungarumlaut" unicode="&#x2dd;" horiz-adv-x="579" 
d="M105 606q18 6 38 17t39 24.5t35 28.5t25 29l61 -65q-18 -17 -40.5 -32.5t-46.5 -27.5t-46.5 -20t-40.5 -9zM276 606q18 6 36.5 17t36.5 24.5t34.5 28.5t29.5 29l61 -65q-18 -17 -40.5 -32.5t-46.5 -27.5t-46.5 -20t-40.5 -9z" />
    <glyph glyph-name="gravecomb" unicode="&#x300;" horiz-adv-x="450" 
d="M314 541q-23 1 -52 8.5t-58.5 19.5t-57 28t-46.5 35l69 85q13 -14 32.5 -29.5t42.5 -31t48.5 -28.5t51.5 -21z" />
    <glyph glyph-name="acutecomb" unicode="&#x301;" horiz-adv-x="445" 
d="M98 607q26 8 51.5 20.5t48.5 27.5t42.5 30t32.5 29l59 -82q-19 -19 -46.5 -35t-57 -28t-59 -19.5t-51.5 -8.5z" />
    <glyph glyph-name="uni0302" unicode="&#x302;" horiz-adv-x="496" 
d="M100 544q13 13 28 32t29.5 39t27.5 41t22 39h82q9 -18 21.5 -39t27.5 -41t30 -39t28 -32h-98l-47 96h-6l-47 -96h-98v0z" />
    <glyph glyph-name="tildecomb" unicode="&#x303;" horiz-adv-x="472" 
d="M175 669q26 0 44 -8t31 -17t23 -17t21 -8q6 0 11 5.5t5 18.5q0 4 -0.5 8.5t-1.5 9.5h70q2 -9 3 -17.5t1 -16.5q0 -44 -25.5 -62t-59.5 -18q-26 0 -44 8t-31 17t-23.5 17t-20.5 8q-16 0 -16 -24q0 -4 0.5 -8.5t1.5 -9.5h-70q-4 16 -4 33q0 44 25.5 62.5t59.5 18.5z" />
    <glyph glyph-name="uni0304" unicode="&#x304;" horiz-adv-x="458" 
d="M358 650v-85h-258v85h258z" />
    <glyph glyph-name="uni0306" unicode="&#x306;" horiz-adv-x="504" 
d="M173 683q11 -27 33 -41.5t48 -14.5t48.5 14.5t34.5 41.5l67 -41q-22 -45 -58.5 -66.5t-93.5 -21.5t-93.5 21.5t-58.5 66.5l73 41v0z" />
    <glyph glyph-name="uni0307" unicode="&#x307;" horiz-adv-x="354" 
d="M177 538q-33 0 -55 18.5t-22 44.5t22 44t55 18q32 0 54.5 -18t22.5 -44t-22.5 -44.5t-54.5 -18.5z" />
    <glyph glyph-name="uni0308" unicode="&#x308;" horiz-adv-x="557" 
d="M191 557q-31 0 -51 17t-20 41q0 23 20 40t51 17q30 0 50.5 -17t20.5 -40q0 -24 -20.5 -41t-50.5 -17zM366 557q-31 0 -51 17t-20 41q0 23 20 40t51 17q30 0 50.5 -17t20.5 -40q0 -24 -20.5 -41t-50.5 -17z" />
    <glyph glyph-name="uni030A" unicode="&#x30a;" horiz-adv-x="600" 
d="M301 547q-22 0 -42 6.5t-35 18.5t-24 28.5t-9 36.5q0 19 9 35.5t24 28t35 18t42 6.5q21 0 41 -6.5t35 -18t24 -28t9 -35.5q0 -20 -9 -36.5t-24 -28.5t-35 -18.5t-41 -6.5zM301 594q17 0 29 12t12 32q0 16 -12 27.5t-29 11.5q-18 0 -30 -11.5t-12 -27.5q0 -20 12 -32
t30 -12z" />
    <glyph glyph-name="uni030B" unicode="&#x30b;" horiz-adv-x="579" 
d="M105 606q18 6 38 17t39 24.5t35 28.5t25 29l61 -65q-18 -17 -40.5 -32.5t-46.5 -27.5t-46.5 -20t-40.5 -9zM276 606q18 6 36.5 17t36.5 24.5t34.5 28.5t29.5 29l61 -65q-18 -17 -40.5 -32.5t-46.5 -27.5t-46.5 -20t-40.5 -9z" />
    <glyph glyph-name="uni030C" unicode="&#x30c;" horiz-adv-x="496" 
d="M396 695q-13 -14 -28 -32.5t-29.5 -38.5t-27.5 -41t-22 -39h-82q-9 18 -21.5 39t-27.5 41t-30 38.5t-28 32.5h98l47 -96h6l47 96h98z" />
    <glyph glyph-name="uni0312" unicode="&#x312;" horiz-adv-x="376" 
d="M189 555q-26 0 -47.5 14.5t-21.5 46.5q0 20 7.5 38.5t19.5 34.5t26 27.5t27 17.5l33 -11q-17 -16 -29 -33.5t-15 -26.5q11 0 23 -2.5t21.5 -8.5t16 -16t6.5 -25q0 -29 -20.5 -42.5t-46.5 -13.5z" />
    <glyph glyph-name="uni0326" unicode="&#x326;" horiz-adv-x="336" 
d="M167 -24q26 0 47.5 -14.5t21.5 -46.5q0 -20 -7.5 -38.5t-19.5 -34.5t-26 -27.5t-27 -17.5l-33 11q17 16 29 33.5t15 26.5q-11 0 -23 2.5t-21.5 8.5t-16 16t-6.5 25q0 29 20.5 42.5t46.5 13.5z" />
    <glyph glyph-name="uni0327" unicode="&#x327;" horiz-adv-x="400" 
d="M216 21l-17 -47q18 0 36 -4t32.5 -12.5t23.5 -22.5t9 -33q0 -21 -9.5 -37t-24.5 -26.5t-34 -15.5t-39 -5q-36 0 -64.5 16t-28.5 46q0 12 4 23h60q-2 -4 -2 -10q0 -11 9.5 -17t21.5 -6t22.5 7t10.5 22q0 18 -17.5 26t-42.5 8q-11 0 -22.5 -1.5t-23.5 -3.5l-4 2l32 90z" />
    <glyph glyph-name="uni0328" unicode="&#x328;" horiz-adv-x="349" 
d="M229 0q-26 -10 -39.5 -29.5t-13.5 -36.5q0 -16 10 -26.5t30 -10.5q16 0 33 6v-72q-10 -3 -23.5 -5.5t-33.5 -2.5q-44 0 -68 24t-24 58q0 27 17 55t55 49h57v-9v0z" />
    <glyph glyph-name="uni0394" unicode="&#x394;" horiz-adv-x="631" 
d="M37 0v94l172 554h170l172 -554v-94h-514zM326 394q-14 46 -21.5 77.5t-10.5 67.5h-10q-6 -39 -13.5 -72t-18.5 -71l-40 -140q-13 -43 -26.5 -77t-29.5 -59v-9h265v9q-31 52 -55 136z" />
    <glyph glyph-name="uni03A9" unicode="&#x3a9;" horiz-adv-x="661" 
d="M612 0h-201l-24 96q49 44 74.5 103t25.5 130q0 47 -11 86t-31 67t-48.5 43.5t-63.5 15.5t-63 -15.5t-48 -43t-31 -66.5t-11 -86q0 -73 27 -133.5t78 -102.5l-29 -94h-196v103h134v9q-36 18 -64 47t-46.5 63.5t-28 71.5t-9.5 72q0 75 24.5 130t65 91.5t93 54.5t107.5 18
q58 0 110 -20.5t91 -58t61.5 -90t22.5 -116.5q0 -78 -37 -148.5t-109 -114.5v-9h137v-103z" />
    <glyph glyph-name="uni03BC" unicode="&#x3bc;" horiz-adv-x="544" 
d="M215 -10q-17 0 -35 5v-173h-120v685h128v-298q0 -62 18 -88.5t57 -26.5q38 0 65.5 38t27.5 117v258h128v-507h-121v7q0 16 4.5 40t9.5 47q-4 1 -12 5q-20 -49 -55.5 -79t-94.5 -30z" />
    <glyph glyph-name="pi" unicode="&#x3c0;" horiz-adv-x="598" 
d="M451 124q0 -17 7 -24.5t27 -7.5h13.5t16.5 2v-88q-18 -4 -35.5 -6.5t-34.5 -2.5q-57 0 -86.5 31t-29.5 97v287h-128v-412h-122v412h-52v95h485v-95h-61v-288z" />
    <glyph glyph-name="uni0401" unicode="&#x401;" horiz-adv-x="511" 
d="M200 269v-158h276v-111h-406v648h396v-111h-266v-157h239v-111h-239zM186 682q-31 0 -51 17t-20 41q0 23 20 40t51 17q30 0 50.5 -17t20.5 -40q0 -24 -20.5 -41t-50.5 -17zM361 682q-31 0 -51 17t-20 41q0 23 20 40t51 17q30 0 50.5 -17t20.5 -40q0 -24 -20.5 -41
t-50.5 -17z" />
    <glyph glyph-name="uni0410" unicode="&#x410;" horiz-adv-x="577" 
d="M396 121h-219l-33 -121h-134l188 648h182l187 -648h-137zM281 538q-3 -29 -10.5 -67t-21.5 -90l-40 -145h155l-38 145q-14 56 -22 92t-11 65h-12z" />
    <glyph glyph-name="uni0411" unicode="&#x411;" horiz-adv-x="563" 
d="M200 537v-124h93q46 0 89.5 -10.5t77 -34.5t53.5 -63t20 -96q0 -63 -24 -103.5t-61 -64t-81 -32.5t-84 -9h-213v648h406v-111h-276zM200 302v-191h83q23 0 43.5 5t36 16.5t24.5 30t9 45.5q0 51 -29.5 72.5t-80.5 21.5h-86z" />
    <glyph glyph-name="uni0412" unicode="&#x412;" horiz-adv-x="578" 
d="M524 484q0 -18 -4 -39.5t-15 -42t-31 -38t-52 -26.5v-9q31 -7 54 -22t38 -36t22 -46t7 -51q0 -57 -21 -91.5t-57 -53t-84.5 -24t-103.5 -5.5h-207v648h241q32 0 69 -3.5t69 -20t53.5 -49.5t21.5 -91zM315 111q39 0 67 17.5t28 63.5q0 24 -7 39.5t-21 23.5t-34.5 11
t-46.5 3h-101v-158h115zM200 537v-157h100q48 0 70 24t22 57q0 23 -8.5 37.5t-22.5 23t-31 12t-33 3.5h-97z" />
    <glyph glyph-name="uni0413" unicode="&#x413;" horiz-adv-x="491" 
d="M200 537v-537h-130v648h396v-111h-266z" />
    <glyph glyph-name="uni0414" unicode="&#x414;" horiz-adv-x="655" 
d="M630 111v-243h-120v132h-375v-132h-120v243h4q46 1 71.5 35t38 87.5t15.5 120t3 132.5v162h418v-537h65zM435 111v426h-165v-49q0 -71 -2.5 -129.5t-12 -105t-30 -80t-56.5 -53.5v-9h266z" />
    <glyph glyph-name="uni0415" unicode="&#x415;" horiz-adv-x="511" 
d="M200 269v-158h276v-111h-406v648h396v-111h-266v-157h239v-111h-239z" />
    <glyph glyph-name="uni0416" unicode="&#x416;" horiz-adv-x="846" 
d="M97 235q15 42 39.5 61.5t72.5 27.5v10q-46 7 -70 28t-41 62q-12 31 -32 91.5t-57 132.5h137q9 -15 17.5 -39.5t17 -52.5t17 -57t17.5 -54q13 -33 32.5 -49t61.5 -16h49v268h130v-268h49q41 0 61 16t33 49q9 25 18 54t17 57t16.5 52.5t17.5 39.5h137q-19 -36 -33 -69.5
t-24.5 -63t-18 -53t-13.5 -38.5q-17 -41 -41 -62t-70 -28v-10q48 -8 72.5 -27.5t39.5 -61.5q6 -17 15 -46t20.5 -62t25.5 -66.5t31 -60.5h-143q-8 13 -15.5 34.5t-15 47.5t-16 54.5t-18.5 56.5q-13 37 -32.5 56.5t-65.5 19.5h-47v-269h-130v269h-47q-46 0 -65.5 -19.5
t-32.5 -56.5q-10 -28 -18 -56.5t-16 -54.5t-15.5 -47.5t-15.5 -34.5h-143q16 27 30.5 60.5t26 66.5t20.5 62t15 46z" />
    <glyph glyph-name="uni0417" unicode="&#x417;" horiz-adv-x="536" 
d="M45 457q-1 8 -1.5 15t-0.5 14q0 87 59 131t157 44q49 0 90 -10.5t71 -32.5t47 -54.5t17 -77.5q0 -57 -28.5 -93t-76.5 -55v-9q58 -15 90 -56.5t32 -104.5q0 -46 -18.5 -79.5t-50.5 -56t-76.5 -33.5t-96.5 -11q-41 0 -81.5 9t-72 29t-51 53.5t-19.5 81.5q0 17 3 35h124
q-2 -7 -2 -13v-11q0 -22 8.5 -37t22.5 -24.5t33.5 -13.5t40.5 -4q22 0 40.5 5t32.5 16t22 27.5t8 40.5q0 49 -30.5 70t-78.5 21h-55v101h50q46 0 73.5 24t27.5 70q0 44 -25 67.5t-70 23.5q-19 0 -36.5 -4t-30.5 -13t-20.5 -25t-7.5 -40v-10t1 -10h-121v0z" />
    <glyph glyph-name="uni0418" unicode="&#x418;" horiz-adv-x="675" 
d="M605 0h-130v281q0 72 3.5 139.5t11.5 117.5l-11 2q-4 -15 -14 -43.5t-23.5 -64.5t-29.5 -75t-32 -73l-132 -284h-178v648h130v-281q0 -72 -3.5 -139.5t-11.5 -117.5l11 -2q4 15 14 43.5t23.5 64.5t29.5 74.5t32 73.5l132 284h178v-648z" />
    <glyph glyph-name="uni0419" unicode="&#x419;" horiz-adv-x="675" 
d="M605 0h-130v281q0 72 3.5 139.5t11.5 117.5l-11 2q-4 -15 -14 -43.5t-23.5 -64.5t-29.5 -75t-32 -73l-132 -284h-178v648h130v-281q0 -72 -3.5 -139.5t-11.5 -117.5l11 -2q4 15 14 43.5t23.5 64.5t29.5 74.5t32 73.5l132 284h178v-648zM183 793q35 -8 73 -11t78 -3t80 3
t78 11v-92q-72 -15 -154 -15q-80 0 -155 15v92v0z" />
    <glyph glyph-name="uni041A" unicode="&#x41a;" horiz-adv-x="593" 
d="M70 0v648h130v-268h63q43 0 63.5 18.5t34.5 56.5q7 21 16.5 48.5t20 54.5t20.5 51t19 39h138q-38 -72 -65 -133t-39 -94q-8 -21 -17 -35.5t-21 -25t-28.5 -17t-39.5 -9.5v-10q48 -8 72 -27t38 -60q7 -20 19 -49t27.5 -62t32.5 -66t34 -60h-148q-8 13 -18.5 34t-21 46
t-20.5 51.5t-17 50.5q-6 21 -14 37.5t-19 27.5t-28 16.5t-41 5.5h-61v-269h-130z" />
    <glyph glyph-name="uni041B" unicode="&#x41b;" horiz-adv-x="600" 
d="M530 648v-648h-130v537h-156l-5 -163q-4 -119 -10.5 -193t-24 -115t-48.5 -55t-83 -14q-29 0 -63 3v105q6 -1 11.5 -1h10.5q25 0 39.5 10t22.5 41t12 88.5t7 151.5l8 253h409z" />
    <glyph glyph-name="uni041C" unicode="&#x41c;" horiz-adv-x="824" 
d="M546 648h183l55 -648h-134l-23 274q-3 41 -5.5 81t-3.5 74.5t-1 61t1 41.5h-13q-2 -24 -7.5 -58t-13.5 -72.5t-17.5 -78t-19.5 -75.5l-63 -221h-146l-62 218q-11 37 -21 78t-18 80t-14 72.5t-7 56.5h-12v-41.5t-1 -61t-3 -74.5t-5 -81l-23 -274h-132l55 648h185
q20 -76 42 -157.5t40.5 -153.5t31 -127t14.5 -79h11q2 25 11 77.5t26 116.5z" />
    <glyph glyph-name="uni041D" unicode="&#x41d;" horiz-adv-x="657" 
d="M587 648v-648h-130v269h-257v-269h-130v648h130v-268h257v268h130z" />
    <glyph glyph-name="uni041E" unicode="&#x41e;" horiz-adv-x="642" 
d="M320 -16q-72 0 -125.5 26.5t-89 72.5t-53 108t-17.5 133q0 70 18 132t53.5 108t89 72.5t125.5 26.5t125.5 -26.5t89.5 -72.5t53.5 -108t17.5 -132q0 -71 -18 -133t-53.5 -108t-89.5 -72.5t-126 -26.5zM320 88q75 0 114.5 60.5t39.5 175.5q0 113 -39.5 174t-114.5 61
q-74 0 -113 -61t-39 -174q0 -115 39 -175.5t113 -60.5z" />
    <glyph glyph-name="uni041F" unicode="&#x41f;" horiz-adv-x="642" 
d="M572 0h-130v537h-242v-537h-130v648h502v-648z" />
    <glyph glyph-name="uni0420" unicode="&#x420;" horiz-adv-x="569" 
d="M286 648q55 0 102.5 -12t82 -39.5t54 -71.5t19.5 -107q0 -60 -20.5 -104t-57 -72.5t-86 -42t-107.5 -13.5h-73v-186h-130v648h216zM200 537v-240h70q66 0 104 28t38 94q0 61 -34 89.5t-109 28.5h-69z" />
    <glyph glyph-name="uni0421" unicode="&#x421;" horiz-adv-x="600" 
d="M559 234q4 -64 -14.5 -111t-53 -77.5t-80.5 -45t-97 -14.5q-63 0 -114.5 23.5t-88 67t-56.5 106.5t-20 141q0 79 20.5 141.5t58 106.5t90 67.5t117.5 23.5q52 0 98.5 -16t79.5 -48t49 -79.5t9 -109.5h-123q8 66 -21 107t-95 41q-74 0 -112 -63.5t-38 -170.5
q0 -109 39.5 -171.5t115.5 -62.5q52 0 84.5 34t31.5 110h120v0z" />
    <glyph glyph-name="uni0422" unicode="&#x422;" horiz-adv-x="532" 
d="M201 0v537h-186v111h502v-111h-186v-537h-130z" />
    <glyph glyph-name="uni0423" unicode="&#x423;" horiz-adv-x="572" 
d="M439 648h128l-269 -648h-135l63 145l-216 503h142l49 -117q41 -96 63.5 -165t28.5 -107h10q3 19 9.5 44.5t15.5 55t20 60t23 60.5z" />
    <glyph glyph-name="uni0424" unicode="&#x424;" horiz-adv-x="802" 
d="M336 463q-14 16 -35 27t-44 11q-18 0 -34.5 -8t-29.5 -27.5t-21 -51.5t-8 -80q0 -47 8 -79t21 -51.5t29.5 -27.5t34.5 -8q23 0 44 10.5t35 27.5v257zM336 -24v60q0 21 2 38t8 37l-6 3q-17 -23 -47.5 -35.5t-65.5 -12.5q-34 0 -69 14t-63.5 45.5t-46.5 83t-18 125.5
t18 125.5t46.5 83.5t63.5 46t70 14t65.5 -13t47.5 -35l6 3q-6 20 -8.5 37t-2.5 38v60h131v-60q0 -21 -2.5 -38t-8.5 -37l6 -3q17 22 47 35t65 13q34 0 69.5 -14t64 -46t46.5 -83.5t18 -125.5t-18 -125.5t-46.5 -83t-63.5 -45.5t-69 -14q-35 0 -65.5 12.5t-47.5 35.5l-6 -3
q6 -20 8.5 -37t2.5 -38v-60h-131zM467 206q14 -17 34.5 -27.5t43.5 -10.5q18 0 34.5 8t29.5 27.5t21 51.5t8 79q0 48 -8 80t-21 51.5t-29.5 27.5t-34.5 8q-23 0 -43.5 -11t-34.5 -27v-257z" />
    <glyph glyph-name="uni0425" unicode="&#x425;" horiz-adv-x="594" 
d="M400 335l179 -335h-148l-59 113q-29 54 -45.5 91t-24.5 62h-12q-5 -17 -20 -51t-44 -88l-68 -127h-143l182 329l-173 319h146l43 -82q16 -31 28.5 -56.5t22 -48.5t17 -43.5t13.5 -41.5h11q9 31 24.5 76t40.5 93l53 103h140z" />
    <glyph glyph-name="uni0426" unicode="&#x426;" horiz-adv-x="666" 
d="M576 648v-537h65v-243h-120v132h-451v648h130v-537h246v537h130z" />
    <glyph glyph-name="uni0427" unicode="&#x427;" horiz-adv-x="599" 
d="M398 0v252q-35 -11 -74.5 -18t-84.5 -7q-40 0 -75.5 8.5t-61.5 29t-41.5 55t-15.5 86.5v242h131v-226q0 -48 26.5 -65.5t71.5 -17.5q26 0 61 6t63 16v287h131v-648h-131z" />
    <glyph glyph-name="uni0428" unicode="&#x428;" horiz-adv-x="904" 
d="M70 0v648h130v-537h187v537h130v-537h187v537h130v-648h-764z" />
    <glyph glyph-name="uni0429" unicode="&#x429;" horiz-adv-x="914" 
d="M824 648v-537h65v-243h-120v132h-709v648h130v-537h187v537h130v-537h187v537h130z" />
    <glyph glyph-name="uni042A" unicode="&#x42a;" horiz-adv-x="640" 
d="M279 317v-206h78q51 0 84.5 24t33.5 80q0 54 -32.5 78t-84.5 24h-79zM279 648v-220h85q48 0 92.5 -11t78.5 -36t54.5 -65.5t20.5 -99.5q0 -56 -20.5 -96.5t-55.5 -67t-83 -39.5t-102 -13h-200v540h-134v108h264z" />
    <glyph glyph-name="uni042B" unicode="&#x42b;" horiz-adv-x="803" 
d="M200 648v-220h85q48 0 92.5 -11t78.5 -36t54.5 -65.5t20.5 -99.5q0 -56 -20.5 -96.5t-55.5 -67t-83 -39.5t-102 -13h-200v648h130zM200 317v-206h78q51 0 84.5 24t33.5 80q0 54 -32.5 78t-84.5 24h-79zM733 648v-648h-130v648h130z" />
    <glyph glyph-name="uni042C" unicode="&#x42c;" horiz-adv-x="561" 
d="M200 648v-220h85q48 0 92.5 -11t78.5 -36t54.5 -65.5t20.5 -99.5q0 -56 -20.5 -96.5t-55.5 -67t-83 -39.5t-102 -13h-200v648h130zM200 317v-206h78q51 0 84.5 24t33.5 80q0 54 -32.5 78t-84.5 24h-79z" />
    <glyph glyph-name="uni042D" unicode="&#x42d;" horiz-adv-x="600" 
d="M161 234q-2 -76 34 -110t95 -34q66 0 102 47t41 132h-215v111h214q-4 83 -38.5 130.5t-98.5 47.5q-74 0 -105.5 -41.5t-23.5 -106.5h-123q-8 62 9.5 109.5t52 79.5t83 48t104.5 16q64 0 115 -23.5t86 -67.5t53.5 -106.5t18.5 -141.5q0 -78 -18 -141t-52 -106.5t-83.5 -67
t-112.5 -23.5q-55 0 -103.5 14.5t-84.5 45t-55 77.5t-15 111h120z" />
    <glyph glyph-name="uni042E" unicode="&#x42e;" horiz-adv-x="877" 
d="M560 -14q-61 0 -109 20t-83 57t-56.5 89t-28.5 117h-83v-269h-130v648h130v-268h83q6 61 27 113t56 89.5t84 59t112 21.5q70 0 122.5 -26.5t87.5 -72t52.5 -107.5t17.5 -133q0 -72 -18 -133.5t-53 -107t-88 -71.5t-123 -26zM560 88q72 0 110.5 60.5t38.5 175.5
q0 114 -38.5 174.5t-110.5 60.5q-73 0 -110.5 -60.5t-37.5 -174.5q0 -115 37.5 -175.5t110.5 -60.5z" />
    <glyph glyph-name="uni042F" unicode="&#x42f;" horiz-adv-x="578" 
d="M378 0v226h-62q-49 0 -71.5 -18.5t-34.5 -58.5q-5 -15 -9.5 -34.5t-9.5 -40t-11.5 -40t-14.5 -34.5h-145q10 10 18.5 29.5t16.5 43.5t16 49.5t16 46.5t18 39t24 32t33 23.5t45 13.5v9q-29 4 -57.5 16t-51 33t-36 50.5t-13.5 69.5q0 51 19 88t51.5 60t76.5 34t95 11h217
v-648h-130zM186 436q0 -30 11 -49.5t28.5 -30.5t39.5 -15.5t45 -4.5h68v201h-70q-21 0 -42.5 -4t-39.5 -15t-29 -30.5t-11 -51.5z" />
    <glyph glyph-name="uni0430" unicode="&#x430;" 
d="M58 351q-5 35 5 65t35 52.5t65 35.5t97 13t94.5 -12t59.5 -35t31 -56t9 -74v-340h-122v9q0 25 17 84l-11 3q-8 -21 -20.5 -40.5t-31 -34t-44 -23t-58.5 -8.5q-38 0 -65.5 12.5t-46.5 32.5t-28 46t-9 52q0 61 28.5 97.5t72 55.5t95.5 25.5t100 8.5v28q0 88 -84 88
q-48 0 -67.5 -24.5t-11.5 -60.5h-110zM231 75q26 0 45 11.5t31 31t18 44t6 51.5v43q-52 -2 -86.5 -10.5t-55.5 -22t-29.5 -31.5t-8.5 -39q0 -35 21 -56.5t59 -21.5z" />
    <glyph glyph-name="uni0431" unicode="&#x431;" horiz-adv-x="536" 
d="M312 487q48 0 84 -19t59 -52t34.5 -76.5t11.5 -92.5q0 -50 -14.5 -97t-43.5 -83t-72 -57.5t-100 -21.5q-67 0 -112.5 24.5t-73 68t-39 102.5t-11.5 129q0 56 7 112t29.5 104.5t63.5 85.5t110 55q36 10 63 16.5t48.5 13t40.5 14t40 18.5l9 -119q-37 -17 -79 -27t-95 -23
q-80 -20 -113.5 -71.5t-33.5 -146.5v-16h12q11 81 57 120t118 39zM271 73q45 0 72.5 40t27.5 126q0 85 -27.5 125t-73.5 40q-45 0 -72.5 -41t-27.5 -126q0 -86 27 -125t74 -39z" />
    <glyph glyph-name="uni0432" unicode="&#x432;" horiz-adv-x="515" 
d="M60 507h233q38 0 70 -7t55 -22t35.5 -39t12.5 -58q0 -17 -6 -35t-19.5 -33.5t-34 -27.5t-49.5 -18v-10q36 -2 60.5 -13.5t39.5 -28t21.5 -36t6.5 -37.5q0 -43 -17 -70.5t-44.5 -43.5t-64 -22t-75.5 -6h-224v507zM284 89q35 0 55.5 14t20.5 47q0 35 -22 47.5t-51 12.5
h-102v-121h99zM273 299q26 0 47.5 14.5t21.5 47.5q0 32 -19 44.5t-51 12.5h-87v-119h88z" />
    <glyph glyph-name="uni0433" unicode="&#x433;" horiz-adv-x="390" 
d="M60 0v507h315v-95h-192v-412h-123z" />
    <glyph glyph-name="uni0434" unicode="&#x434;" horiz-adv-x="589" 
d="M548 95v-219h-112v124h-311v-124h-115v219h8q31 0 49.5 24.5t28 61.5t12 81t2.5 84v161h381v-412h57zM366 95v317h-138v-64q0 -57 -2.5 -97.5t-11 -69t-24.5 -46.5t-42 -30v-10h218z" />
    <glyph glyph-name="uni0435" unicode="&#x435;" horiz-adv-x="517" 
d="M474 169q3 -42 -10 -76t-40 -58t-66.5 -36.5t-89.5 -12.5q-61 0 -105 20.5t-72.5 56.5t-42 85t-13.5 105q0 55 14 103.5t42.5 85t73 57.5t105.5 21q55 0 94 -17.5t64 -47t37 -69t12 -83.5q0 -14 -1 -33t-3 -34h-309q0 -80 28.5 -123t80.5 -43q20 0 37.5 5.5t30 17.5
t19 30.5t4.5 45.5h110zM270 437q-50 0 -76.5 -33.5t-28.5 -93.5h199v6q0 121 -94 121z" />
    <glyph glyph-name="uni0436" unicode="&#x436;" horiz-adv-x="735" 
d="M305 210h-20q-38 0 -55 -15.5t-27 -49.5q-14 -45 -28 -85t-31 -60h-139q30 39 48.5 84.5t34.5 87.5q14 38 35.5 56.5t66.5 24.5v10q-40 7 -59 24.5t-35 52.5q-10 21 -18 43t-17 44t-21 42t-29 38h133q20 -25 34.5 -67.5t28.5 -86.5q9 -27 25.5 -40.5t44.5 -13.5h28v208
h125v-208h28q28 0 44.5 13.5t25.5 40.5q14 44 28.5 86.5t34.5 67.5h133q-17 -18 -29 -38t-21 -42t-17 -44t-18 -43q-16 -35 -35 -52.5t-59 -24.5v-10q45 -6 66.5 -24.5t35.5 -56.5q16 -42 34.5 -87.5t48.5 -84.5h-139q-17 20 -31 60t-28 85q-5 17 -11.5 29t-15.5 20
t-22.5 12t-32.5 4h-20v-210h-125v210z" />
    <glyph glyph-name="uni0437" unicode="&#x437;" horiz-adv-x="471" 
d="M133 156q-1 -3 -1 -6.5v-6.5q0 -19 8 -32t21 -21.5t30.5 -12.5t36.5 -4q40 0 64.5 18.5t24.5 53.5q0 36 -23 50.5t-60 14.5h-73v89h70q33 0 54.5 16t21.5 49q0 35 -22.5 51t-61.5 16q-36 0 -62 -14.5t-26 -54.5q0 -8 1 -13h-102q-1 7 -1.5 14t-0.5 13q0 38 15 65t41 44.5
t62 25.5t78 8q41 0 77.5 -8t63.5 -24.5t43 -42.5t16 -62q0 -47 -28 -77.5t-70 -36.5v-13q26 -3 46.5 -13t35 -26t22 -35.5t7.5 -41.5q0 -39 -16 -68t-45 -48t-68.5 -28t-87.5 -9q-90 0 -144 35.5t-54 106.5q0 7 0.5 15t1.5 13h105v0z" />
    <glyph glyph-name="uni0438" unicode="&#x438;" horiz-adv-x="561" 
d="M60 0v507h123v-179q0 -27 -1.5 -60t-4.5 -65.5t-6.5 -60.5t-7.5 -44l12 -3q4 16 12.5 42.5t20 57.5t23.5 62t24 55l94 195h152v-507h-124v179q0 27 1.5 60t4.5 65.5t6.5 60t7.5 44.5l-12 3q-4 -16 -12.5 -42t-19.5 -56.5t-23.5 -62t-24.5 -56.5l-94 -195h-151z" />
    <glyph glyph-name="uni0439" unicode="&#x439;" horiz-adv-x="561" 
d="M60 0v507h123v-179q0 -27 -1.5 -60t-4.5 -65.5t-6.5 -60.5t-7.5 -44l12 -3q4 16 12.5 42.5t20 57.5t23.5 62t24 55l94 195h152v-507h-124v179q0 27 1.5 60t4.5 65.5t6.5 60t7.5 44.5l-12 3q-4 -16 -12.5 -42t-19.5 -56.5t-23.5 -62t-24.5 -56.5l-94 -195h-151zM136 664
q72 -15 145 -15q70 0 144 15v-87q-37 -8 -73 -12t-71 -4q-36 0 -72.5 4t-72.5 12v87v0z" />
    <glyph glyph-name="uni043A" unicode="&#x43a;" horiz-adv-x="510" 
d="M60 0v507h125v-208h43q28 0 44.5 13.5t25.5 40.5q14 44 31 86.5t37 67.5h133q-17 -18 -29.5 -38t-23 -42t-19 -44t-18.5 -43q-16 -35 -35 -52.5t-59 -24.5v-10q45 -6 66.5 -24.5t35.5 -56.5q16 -42 37 -87.5t51 -84.5h-139q-17 20 -33.5 60t-30.5 85q-11 34 -27.5 49.5
t-54.5 15.5h-35v-210h-125z" />
    <glyph glyph-name="uni043B" unicode="&#x43b;" horiz-adv-x="523" 
d="M12 99q7 -1 13 -1.5t11 -0.5q22 0 35 11t20 42t9.5 85t4.5 140l2 132h356v-507h-123v412h-117l-1 -59q-2 -105 -7 -173.5t-20.5 -109.5t-44 -57.5t-75.5 -16.5q-14 0 -30 1.5t-33 3.5v98v0z" />
    <glyph glyph-name="uni043C" unicode="&#x43c;" horiz-adv-x="719" 
d="M669 0h-122q-6 68 -11.5 137t-7.5 132q-2 38 -3 77t1 67h-12q-5 -35 -14 -80.5t-21 -93.5l-54 -212h-138q-12 47 -22.5 93.5t-21.5 93.5q-12 49 -19.5 80.5t-12 53.5t-7 36.5t-3.5 28.5h-12q2 -27 1 -68t-3 -77q-3 -63 -8.5 -132t-10.5 -136h-118l41 507h177l55 -238
q11 -50 19 -93t10 -65h12q2 23 9.5 65t20.5 93l60 238h175z" />
    <glyph glyph-name="uni043D" unicode="&#x43d;" horiz-adv-x="548" 
d="M60 0v507h125v-204h178v204h125v-507h-125v209h-178v-209h-125z" />
    <glyph glyph-name="uni043E" unicode="&#x43e;" horiz-adv-x="544" 
d="M272 -14q-114 0 -175.5 69t-61.5 197q0 129 61.5 198t175.5 69t175.5 -69t61.5 -198q0 -128 -61.5 -197t-175.5 -69zM272 73q55 0 81 41.5t26 137.5t-26 138t-81 42q-56 0 -81.5 -42t-25.5 -138t25.5 -137.5t81.5 -41.5z" />
    <glyph glyph-name="uni043F" unicode="&#x43f;" horiz-adv-x="536" 
d="M60 0v507h416v-507h-125v412h-166v-412h-125z" />
    <glyph glyph-name="uni0440" unicode="&#x440;" horiz-adv-x="571" 
d="M299 71q55 0 81 41.5t26 137.5t-26 138t-81 42q-56 0 -81.5 -42t-25.5 -138t25.5 -137.5t81.5 -41.5zM190 502q0 -26 -5.5 -49.5t-13.5 -43.5l12 -2q6 17 17 36t29 35.5t44.5 27.5t63.5 11q93 0 146 -67.5t53 -199.5q0 -68 -15.5 -117.5t-43 -82t-64.5 -48.5t-79 -16
q-36 0 -62.5 10.5t-44.5 27t-29.5 35.5t-17.5 37l-12 -2q11 -29 16.5 -54.5t5.5 -60.5v-157h-130v685h130v-5z" />
    <glyph glyph-name="uni0441" unicode="&#x441;" horiz-adv-x="513" 
d="M471 197q4 -46 -6 -84.5t-34.5 -66.5t-63.5 -44t-94 -16q-118 0 -178 69.5t-60 197.5q0 60 15 109t45 84t74.5 54.5t103.5 19.5q50 0 89 -14.5t64.5 -41t37 -65t6.5 -86.5h-111q5 32 -0.5 54.5t-18 37t-30 21t-37.5 6.5q-54 0 -81 -42.5t-27 -136.5q0 -98 28.5 -139
t81.5 -41q18 0 35 5.5t29.5 19t19 37.5t2.5 62h110v0z" />
    <glyph glyph-name="uni0442" unicode="&#x442;" horiz-adv-x="418" 
d="M147 0v412h-137v95h398v-95h-137v-412h-124z" />
    <glyph glyph-name="uni0443" unicode="&#x443;" horiz-adv-x="480" 
d="M250 95q2 18 6 41t10 52.5t15 67.5t23 87l44 164h124l-209 -685h-129l44 132l-170 553h128l45 -158q16 -56 26.5 -97.5t16.5 -71.5t9 -50.5t5 -34.5h12v0z" />
    <glyph glyph-name="uni0444" unicode="&#x444;" horiz-adv-x="767" 
d="M321 396q-40 34 -71 34q-38 0 -61.5 -45t-23.5 -135q0 -91 23.5 -136t61.5 -45q33 0 71 33v294zM446 615q0 -29 -1 -50t-3 -37.5t-4.5 -30.5t-6.5 -27l8 -4q21 23 49 35.5t58 12.5q34 0 67 -16t59.5 -48.5t43 -82.5t16.5 -117q0 -68 -16.5 -118t-43.5 -83t-60.5 -49.5
t-67.5 -16.5q-29 0 -56.5 12t-48.5 36l-8 -3q4 -14 6.5 -27.5t4.5 -30t3 -38t1 -50.5v-60h-125v60q0 29 1 50t3 37.5t4.5 30.5t6.5 28l-7 3q-22 -23 -49.5 -35t-57.5 -12q-34 0 -67.5 16t-60 49t-43 83t-16.5 118q0 67 16.5 117t43 82.5t59.5 48.5t67 16q30 0 58 -12.5
t50 -35.5l7 4q-4 14 -6.5 27.5t-4.5 30t-3 37.5t-1 50v41h125v-41zM446 102q40 -33 73 -33q38 0 60.5 45t22.5 136q0 90 -23 135t-61 45q-32 0 -72 -34v-294z" />
    <glyph glyph-name="uni0445" unicode="&#x445;" horiz-adv-x="477" 
d="M330 258l135 -258h-135l-44 88q-7 14 -14 31t-13 33.5t-10.5 31t-6.5 25.5h-11q-5 -22 -15.5 -52.5t-28.5 -69.5l-42 -87h-132l131 258l-132 249h135l31 -65q21 -45 35.5 -79.5t21.5 -59.5h10q16 52 51 127l36 77h131z" />
    <glyph glyph-name="uni0446" unicode="&#x446;" horiz-adv-x="558" 
d="M60 0v507h125v-412h166v412h125v-412h57v-219h-115v124h-358z" />
    <glyph glyph-name="uni0447" unicode="&#x447;" horiz-adv-x="506" 
d="M446 507v-507h-125v184q-26 -8 -55.5 -12.5t-60.5 -4.5q-33 0 -63.5 6.5t-54 23t-38 45t-14.5 72.5v193h125v-182q0 -20 6.5 -32.5t17.5 -19.5t26 -9.5t32 -2.5q43 0 79 14v232h125z" />
    <glyph glyph-name="uni0448" unicode="&#x448;" horiz-adv-x="767" 
d="M707 0h-647v507h125v-412h136v412h125v-412h136v412h125v-507z" />
    <glyph glyph-name="uni0449" unicode="&#x449;" horiz-adv-x="805" 
d="M707 95h57v-219h-115v124h-589v507h125v-412h136v412h125v-412h136v412h125v-412z" />
    <glyph glyph-name="uni044A" unicode="&#x44a;" horiz-adv-x="561" 
d="M256 344h58q61 0 103 -12.5t68.5 -35.5t38.5 -55t12 -70q0 -33 -12 -63.5t-38.5 -54.5t-69 -38.5t-102.5 -14.5h-181v412h-118v95h241v-163zM314 95q48 0 71.5 18t23.5 59t-23.5 59t-71.5 18h-58v-154h58z" />
    <glyph glyph-name="uni044B" unicode="&#x44b;" horiz-adv-x="703" 
d="M518 0v507h125v-507h-125zM183 344h58q61 0 103 -12.5t68.5 -35.5t38.5 -55t12 -70q0 -33 -12 -63.5t-38.5 -54.5t-69 -38.5t-102.5 -14.5h-181v507h123v-163zM241 95q48 0 71.5 18t23.5 59t-23.5 59t-71.5 18h-58v-154h58z" />
    <glyph glyph-name="uni044C" unicode="&#x44c;" horiz-adv-x="488" 
d="M183 344h58q61 0 103 -12.5t68.5 -35.5t38.5 -55t12 -70q0 -33 -12 -63.5t-38.5 -54.5t-69 -38.5t-102.5 -14.5h-181v507h123v-163zM241 95q48 0 71.5 18t23.5 59t-23.5 59t-71.5 18h-58v-154h58z" />
    <glyph glyph-name="uni044D" unicode="&#x44d;" horiz-adv-x="513" 
d="M199 306h153q0 65 -28.5 95.5t-73.5 30.5q-20 0 -39.5 -6.5t-33.5 -21t-21 -37t-2 -54.5h-111q-5 48 8 86.5t40.5 65t68 41t90.5 14.5q59 0 102 -19.5t71 -54.5t41.5 -84t13.5 -109q0 -128 -55 -197.5t-173 -69.5q-55 0 -96 16t-67 44t-37.5 66.5t-7.5 84.5h110
q-4 -38 4 -62t22.5 -37.5t33 -19t36.5 -5.5q23 0 43 7.5t34 24t21 43t6 64.5h-153v94z" />
    <glyph glyph-name="uni044E" unicode="&#x44e;" horiz-adv-x="749" 
d="M60 0v507h126v-204h63q11 101 72.5 159.5t159.5 58.5q58 0 101.5 -20.5t73 -56t44 -84.5t14.5 -106q0 -56 -14.5 -104.5t-44 -84.5t-73 -57t-101.5 -21q-95 0 -155.5 55.5t-75.5 166.5h-64v-209h-126zM481 75q49 0 75 41t26 138q0 95 -26 136.5t-75 41.5q-51 0 -77 -41.5
t-26 -136.5q0 -97 26 -138t77 -41z" />
    <glyph glyph-name="uni044F" unicode="&#x44f;" horiz-adv-x="520" 
d="M175 346q0 -35 25 -53.5t56 -18.5h78v144h-84q-30 0 -52.5 -16.5t-22.5 -55.5zM20 0q7 7 15 22.5t16 34.5t15.5 39t13.5 37q14 40 41 63t74 26v12q-40 2 -68 13.5t-45.5 29.5t-25.5 39.5t-8 44.5q0 38 15 65.5t40.5 45.5t58 26.5t68.5 8.5h230v-507h-126v185h-59
q-32 0 -48 -12t-26 -49q-7 -28 -18 -60t-25 -64h-138z" />
    <glyph glyph-name="uni0451" unicode="&#x451;" horiz-adv-x="517" 
d="M474 169q3 -42 -10 -76t-40 -58t-66.5 -36.5t-89.5 -12.5q-61 0 -105 20.5t-72.5 56.5t-42 85t-13.5 105q0 55 14 103.5t42.5 85t73 57.5t105.5 21q55 0 94 -17.5t64 -47t37 -69t12 -83.5q0 -14 -1 -33t-3 -34h-309q0 -80 28.5 -123t80.5 -43q20 0 37.5 5.5t30 17.5
t19 30.5t4.5 45.5h110zM270 437q-50 0 -76.5 -33.5t-28.5 -93.5h199v6q0 121 -94 121zM185 548q-31 0 -51 17t-20 41q0 23 20 40t51 17q30 0 50.5 -17t20.5 -40q0 -24 -20.5 -41t-50.5 -17zM360 548q-31 0 -51 17t-20 41q0 23 20 40t51 17q30 0 50.5 -17t20.5 -40
q0 -24 -20.5 -41t-50.5 -17z" />
    <glyph glyph-name="Wgrave" unicode="&#x1e80;" horiz-adv-x="875" 
d="M591 329q8 -37 14 -66.5t10.5 -55t7.5 -49t5 -47.5h16q2 51 10 110.5t19 128.5l49 298h133l-113 -648h-198l-70 314q-8 35 -13.5 68.5t-9 61t-5.5 48.5t-3 32h-13q-1 -11 -3.5 -32t-6.5 -48.5t-10 -60.5t-13 -68l-69 -315h-195l-113 648h135l49 -298q11 -69 18.5 -128.5
t9.5 -110.5h16q2 24 5 47.5t7.5 49t10.5 55t14 66.5l67 302h173zM534 679q-19 0 -48 4t-60.5 12.5t-61.5 20.5t-51 29l49 86q14 -14 39 -29t53 -27t55 -21t46 -11z" />
    <glyph glyph-name="wgrave" unicode="&#x1e81;" horiz-adv-x="755" 
d="M506 268q5 -28 9 -56t7 -52t5 -42.5t2 -27.5h13q2 26 9.5 74t19.5 103l51 240h125l-118 -507h-172l-50 244q-3 18 -7 39t-7.5 43t-6.5 42.5t-4 36.5h-10q-2 -16 -5 -36.5t-6.5 -42.5t-7.5 -43t-7 -39l-49 -244h-172l-117 507h129l52 -238q12 -57 19 -105t9 -74h13
q1 9 2.5 27.5t4.5 42.5t7.5 52t9.5 56l46 239h159zM468 541q-23 1 -52 8.5t-58.5 19.5t-57 28t-46.5 35l53 70q13 -14 33 -29t43.5 -29.5t49.5 -26t52 -17.5z" />
    <glyph glyph-name="Wacute" unicode="&#x1e82;" horiz-adv-x="875" 
d="M591 329q8 -37 14 -66.5t10.5 -55t7.5 -49t5 -47.5h16q2 51 10 110.5t19 128.5l49 298h133l-113 -648h-198l-70 314q-8 35 -13.5 68.5t-9 61t-5.5 48.5t-3 32h-13q-1 -11 -3.5 -32t-6.5 -48.5t-10 -60.5t-13 -68l-69 -315h-195l-113 648h135l49 -298q11 -69 18.5 -128.5
t9.5 -110.5h16q2 24 5 47.5t7.5 49t10.5 55t14 66.5l67 302h173zM323 740q19 2 46 11t55 21t53 27t39 29l48 -83q-21 -17 -51 -29t-61.5 -20.5t-60.5 -12.5t-48 -4z" />
    <glyph glyph-name="wacute" unicode="&#x1e83;" horiz-adv-x="755" 
d="M506 268q5 -28 9 -56t7 -52t5 -42.5t2 -27.5h13q2 26 9.5 74t19.5 103l51 240h125l-118 -507h-172l-50 244q-3 18 -7 39t-7.5 43t-6.5 42.5t-4 36.5h-10q-2 -16 -5 -36.5t-6.5 -42.5t-7.5 -43t-7 -39l-49 -244h-172l-117 507h129l52 -238q12 -57 19 -105t9 -74h13
q1 9 2.5 27.5t4.5 42.5t7.5 52t9.5 56l46 239h159zM304 597q25 6 51.5 17.5t50 26t43.5 29.5t33 29l53 -67q-19 -19 -46.5 -35t-57 -28t-59 -19.5t-51.5 -8.5z" />
    <glyph glyph-name="Wdieresis" unicode="&#x1e84;" horiz-adv-x="875" 
d="M591 329q8 -37 14 -66.5t10.5 -55t7.5 -49t5 -47.5h16q2 51 10 110.5t19 128.5l49 298h133l-113 -648h-198l-70 314q-8 35 -13.5 68.5t-9 61t-5.5 48.5t-3 32h-13q-1 -11 -3.5 -32t-6.5 -48.5t-10 -60.5t-13 -68l-69 -315h-195l-113 648h135l49 -298q11 -69 18.5 -128.5
t9.5 -110.5h16q2 24 5 47.5t7.5 49t10.5 55t14 66.5l67 302h173zM350 682q-31 0 -51 17t-20 41q0 23 20 40t51 17q30 0 50.5 -17t20.5 -40q0 -24 -20.5 -41t-50.5 -17zM525 682q-31 0 -51 17t-20 41q0 23 20 40t51 17q30 0 50.5 -17t20.5 -40q0 -24 -20.5 -41t-50.5 -17z
" />
    <glyph glyph-name="wdieresis" unicode="&#x1e85;" horiz-adv-x="755" 
d="M506 268q5 -28 9 -56t7 -52t5 -42.5t2 -27.5h13q2 26 9.5 74t19.5 103l51 240h125l-118 -507h-172l-50 244q-3 18 -7 39t-7.5 43t-6.5 42.5t-4 36.5h-10q-2 -16 -5 -36.5t-6.5 -42.5t-7.5 -43t-7 -39l-49 -244h-172l-117 507h129l52 -238q12 -57 19 -105t9 -74h13
q1 9 2.5 27.5t4.5 42.5t7.5 52t9.5 56l46 239h159zM290 548q-31 0 -51 17t-20 41q0 23 20 40t51 17q30 0 50.5 -17t20.5 -40q0 -24 -20.5 -41t-50.5 -17zM465 548q-31 0 -51 17t-20 41q0 23 20 40t51 17q30 0 50.5 -17t20.5 -40q0 -24 -20.5 -41t-50.5 -17z" />
    <glyph glyph-name="uni1E9E" unicode="&#x1e9e;" horiz-adv-x="627" 
d="M430 472q1 5 1 15q0 35 -28 53t-89 18q-36 0 -59.5 -9.5t-37.5 -25.5t-19.5 -37.5t-5.5 -45.5v-440h-132v444q0 60 20.5 101.5t56 68t81.5 38t97 11.5q43 0 85 -11.5t75 -34.5t53.5 -58t20.5 -82q0 -46 -22 -102q-10 2 -33 5.5t-49 3.5q-29 0 -51 -7t-22 -27
q0 -19 17 -30.5t42.5 -21.5t55.5 -21t55.5 -29t42.5 -46t17 -71q0 -34 -14 -61t-38.5 -45.5t-58 -28t-72.5 -9.5q-36 0 -68.5 7t-57 22t-39 39t-14.5 58q0 10 1.5 19.5t3.5 20.5h104q-5 -13 -5 -25q0 -28 21 -41.5t47 -13.5q27 0 47.5 13t20.5 42q0 24 -17 38t-42.5 24
t-55 20t-55 26.5t-42.5 42.5t-17 68q0 38 15 62t40 38t57 19.5t67 5.5z" />
    <glyph glyph-name="Ygrave" unicode="&#x1ef2;" horiz-adv-x="556" 
d="M346 215v-215h-130v218l-206 430h139l49 -107q14 -31 27.5 -63.5t25 -62t19 -52.5t9.5 -35h11q1 12 8 34.5t17.5 51t23.5 60.5t26 62l47 112h134zM352 679q-19 0 -48 4t-60.5 12.5t-61.5 20.5t-51 29l49 86q14 -14 39 -29t53 -27t55 -21t46 -11z" />
    <glyph glyph-name="ygrave" unicode="&#x1ef3;" horiz-adv-x="480" 
d="M250 95q2 18 6 41t10 52.5t15 67.5t23 87l44 164h124l-209 -685h-129l44 132l-170 553h128l45 -158q16 -56 26.5 -97.5t16.5 -71.5t9 -50.5t5 -34.5h12v0zM313 541q-23 1 -52 8.5t-58.5 19.5t-57 28t-46.5 35l53 70q13 -14 33 -29t43.5 -29.5t49.5 -26t52 -17.5z" />
    <glyph glyph-name="endash" unicode="&#x2013;" horiz-adv-x="543" 
d="M508 321v-99h-473v99h473z" />
    <glyph glyph-name="emdash" unicode="&#x2014;" horiz-adv-x="913" 
d="M878 321v-99h-843v99h843z" />
    <glyph glyph-name="quoteleft" unicode="&#x2018;" horiz-adv-x="251" 
d="M126 386q-16 0 -30.5 5t-26 16.5t-18 29t-6.5 42.5q0 31 9.5 62.5t23.5 59t30.5 49t30.5 32.5l51 -16q-10 -12 -19.5 -26.5t-17 -29t-13 -27.5t-6.5 -23q27 0 49.5 -21.5t22.5 -66.5q0 -42 -24 -64t-56 -22z" />
    <glyph glyph-name="quoteright" unicode="&#x2019;" horiz-adv-x="251" 
d="M126 672q31 0 55.5 -22t24.5 -71q0 -32 -9.5 -63t-23.5 -58.5t-30.5 -49t-30.5 -32.5l-51 16q10 12 19.5 26.5t17 29t13 27.5t7.5 23q-28 0 -50.5 21.5t-22.5 66.5q0 42 24 64t57 22z" />
    <glyph glyph-name="quotesinglbase" unicode="&#x201a;" horiz-adv-x="251" 
d="M126 170q31 0 55.5 -22t24.5 -71q0 -32 -9.5 -63t-23.5 -58.5t-30.5 -49t-30.5 -32.5l-51 16q10 12 19.5 26.5t17 29t13 27.5t7.5 23q-28 0 -50.5 21.5t-22.5 66.5q0 42 24 64t57 22z" />
    <glyph glyph-name="quotedblleft" unicode="&#x201c;" horiz-adv-x="454" 
d="M126 386q-16 0 -30.5 5t-26 16.5t-18 29t-6.5 42.5q0 31 9.5 62.5t23.5 59t30.5 49t30.5 32.5l51 -16q-10 -12 -19.5 -26.5t-17 -29t-13 -27.5t-6.5 -23q27 0 49.5 -21.5t22.5 -66.5q0 -42 -24 -64t-56 -22zM328 386q-15 0 -29.5 5t-26 16.5t-18 29t-6.5 42.5
q0 31 9.5 62.5t23.5 59t30.5 49t30.5 32.5l51 -16q-10 -12 -19.5 -26.5t-17 -29t-13 -27.5t-7.5 -23q28 0 50.5 -21.5t22.5 -66.5q0 -42 -24 -64t-57 -22z" />
    <glyph glyph-name="quotedblright" unicode="&#x201d;" horiz-adv-x="454" 
d="M328 672q16 0 30.5 -5.5t25.5 -16.5t18 -28.5t7 -42.5q0 -32 -9.5 -63t-23.5 -58.5t-30.5 -49t-30.5 -32.5l-51 16q10 12 19.5 26.5t17 29t12.5 27.5t7 23q-27 0 -49.5 21.5t-22.5 66.5q0 42 24 64t56 22zM126 672q31 0 55.5 -22t24.5 -71q0 -32 -9.5 -63t-23.5 -58.5
t-30.5 -49t-30.5 -32.5l-51 16q10 12 19.5 26.5t17 29t13 27.5t7.5 23q-28 0 -50.5 21.5t-22.5 66.5q0 42 24 64t57 22z" />
    <glyph glyph-name="quotedblbase" unicode="&#x201e;" horiz-adv-x="463" 
d="M337 170q16 0 30.5 -5.5t25.5 -16.5t18 -28.5t7 -42.5q0 -32 -9.5 -63t-23.5 -58.5t-30.5 -49t-30.5 -32.5l-51 16q10 12 19.5 26.5t17 29t12.5 27.5t7 23q-27 0 -49.5 21.5t-22.5 66.5q0 42 24 64t56 22zM135 170q31 0 55.5 -22t24.5 -71q0 -32 -9.5 -63t-23.5 -58.5
t-30.5 -49t-30.5 -32.5l-51 16q10 12 19.5 26.5t17 29t13 27.5t7.5 23q-28 0 -50.5 21.5t-22.5 66.5q0 42 24 64t57 22z" />
    <glyph glyph-name="dagger" unicode="&#x2020;" horiz-adv-x="408" 
d="M146 555v135h116v-135h111v-95h-111v-317h-116v317h-111v95h111z" />
    <glyph glyph-name="daggerdbl" unicode="&#x2021;" horiz-adv-x="408" 
d="M146 555v135h116v-135h111v-95h-111v-97h111v-95h-111v-125h-116v125h-111v95h111v97h-111v95h111z" />
    <glyph glyph-name="bullet" unicode="&#x2022;" horiz-adv-x="362" 
d="M183 178q-24 0 -45 8.5t-37.5 25t-26 39.5t-9.5 52t9.5 51.5t26 38.5t37.5 24t45 8q22 0 42.5 -8t36.5 -24t25.5 -38.5t9.5 -51.5t-9.5 -52t-25.5 -39.5t-36.5 -25t-42.5 -8.5z" />
    <glyph glyph-name="ellipsis" unicode="&#x2026;" horiz-adv-x="751" 
d="M124 -10q-32 0 -55.5 23.5t-23.5 65.5t23.5 65.5t55.5 23.5t56 -23.5t24 -65.5t-24 -65.5t-56 -23.5zM375 -10q-32 0 -55.5 23.5t-23.5 65.5t23.5 65.5t55.5 23.5t56 -23.5t24 -65.5t-24 -65.5t-56 -23.5zM626 -10q-32 0 -55.5 23.5t-23.5 65.5t23.5 65.5t55.5 23.5
t56 -23.5t24 -65.5t-24 -65.5t-56 -23.5z" />
    <glyph glyph-name="perthousand" unicode="&#x2030;" horiz-adv-x="1088" 
d="M606 648l-370 -648h-96l370 648h96zM204 352q-64 0 -106.5 39.5t-42.5 119.5q0 42 12 72t32.5 49.5t47.5 29t57 9.5q31 0 58 -9.5t46.5 -29.5t31 -50t11.5 -71t-11.5 -71t-31.5 -49.5t-47 -29t-57 -9.5zM204 426q26 0 41 21t15 64t-15 64.5t-41 21.5q-27 0 -42.5 -21.5
t-15.5 -64.5t15.5 -64t42.5 -21zM547 -22q-32 0 -59 10t-47 30t-31.5 50t-11.5 70q0 42 12 72t32.5 49.5t47.5 28.5t57 9q31 0 58 -9.5t46.5 -29t31 -49.5t11.5 -71t-11.5 -71.5t-31.5 -50t-47 -29t-57 -9.5zM547 52q26 0 41 21.5t15 64.5q0 42 -15 64t-41 22q-27 0 -42 -22
t-15 -64q0 -43 15 -64.5t42 -21.5zM886 -22q-32 0 -59 10t-47 30t-31.5 50t-11.5 70q0 42 12 72t32.5 49.5t47.5 28.5t57 9q31 0 58 -9.5t46.5 -29t31 -49.5t11.5 -71t-11.5 -71.5t-31.5 -50t-47 -29t-57 -9.5zM886 52q26 0 41 21.5t15 64.5q0 42 -15 64t-41 22
q-27 0 -42 -22t-15 -64q0 -43 15 -64.5t42 -21.5z" />
    <glyph glyph-name="guilsinglleft" unicode="&#x2039;" horiz-adv-x="258" 
d="M223 471l-81 -224l81 -221h-107l-81 221l81 224h107z" />
    <glyph glyph-name="guilsinglright" unicode="&#x203a;" horiz-adv-x="258" 
d="M142 471l81 -224l-81 -221h-107l81 221l-81 224h107z" />
    <glyph glyph-name="fraction" unicode="&#x2044;" horiz-adv-x="614" 
d="M589 648l-437 -648h-127l437 648h127z" />
    <glyph glyph-name="Euro" unicode="&#x20ac;" horiz-adv-x="634" 
d="M596 232q5 -64 -12 -110.5t-49.5 -76.5t-77 -44.5t-95.5 -14.5q-52 0 -95 17t-76.5 48t-56 75.5t-33.5 99.5h-66v77h57v21v13.5t1 13.5h-58v77h68q23 109 92 171t175 62q49 0 94 -15.5t77.5 -46.5t47.5 -78t6 -110h-121q10 72 -18.5 107t-86.5 35q-54 0 -87.5 -34
t-47.5 -91h175v-77h-186v-48h186v-77h-176q14 -61 48 -96.5t89 -35.5q52 0 82 32t26 106h118v0z" />
    <glyph glyph-name="uni20B1" unicode="&#x20b1;" horiz-adv-x="660" 
d="M539 311q-31 -65 -96.5 -95t-152.5 -30h-73v-186h-130v311h-52v77h52v48h-52v77h52v135h216q43 0 81.5 -7.5t70 -23.5t55 -42t36.5 -62h79v-77h-65q1 -5 1 -9v-9q0 -8 -0.5 -15.5t-1.5 -14.5h66v-77h-86zM217 537v-240h70q66 0 104 28t38 94q0 61 -34 89.5t-109 28.5h-69
z" />
    <glyph glyph-name="uni20B4" unicode="&#x20b4;" horiz-adv-x="520" 
d="M236 419q26 0 45.5 7t33 18.5t20 26t6.5 29.5q0 26 -21 46.5t-65 20.5q-95 0 -95 -68q0 -5 0.5 -9t1.5 -9h-111q-3 19 -3 36q0 40 16.5 67.5t45 44.5t66.5 25t81 8q50 0 88 -11.5t63.5 -30t38.5 -42.5t13 -49q0 -15 -6.5 -32t-19.5 -31.5t-31 -25.5t-42 -15v-6h96v-71
h-409v71h188zM457 234h-175q-31 0 -54 -7t-38.5 -18.5t-23 -25.5t-7.5 -29q0 -27 25.5 -48.5t79.5 -21.5q37 0 66 16t29 51v10.5t-2 10.5h111q6 -23 6 -43q0 -36 -17.5 -61.5t-46 -42.5t-65.5 -25t-76 -8q-41 0 -81.5 9t-72 25.5t-51 41t-19.5 56.5q0 15 6.5 32t19.5 31.5
t31 25.5t42 15v6h-96v71h409v-71z" />
    <glyph glyph-name="uni20B8" unicode="&#x20b8;" horiz-adv-x="544" 
d="M206 0v446h-166v77h464v-77h-166v-446h-132zM504 571h-464v77h464v-77z" />
    <glyph glyph-name="uni20BD" unicode="&#x20bd;" horiz-adv-x="580" 
d="M413 127h-172v-127h-131v127h-75v77h75v48h-75v77h75v319h163q51 0 100 -7.5t87.5 -29t61.5 -60t23 -101.5q0 -53 -19.5 -90.5t-53.5 -61.5t-80.5 -35t-100.5 -11h-50v-48h172v-77zM241 537v-208h33q29 0 54.5 5t44 17t29.5 32.5t11 52.5q0 54 -32.5 77.5t-89.5 23.5h-50
z" />
    <glyph glyph-name="uni2116" unicode="&#x2116;" horiz-adv-x="1010" 
d="M713 242h196v-85h-196v85zM412 313q28 -44 43.5 -84.5t29.5 -75.5l9 3q-12 47 -19 96t-7 81v315h121v-648h-123l-219 335q-28 44 -43.5 84.5t-29.5 75.5l-9 -3q12 -47 19 -96t7 -81v-315h-121v648h123zM810 299q-64 0 -106.5 39.5t-42.5 119.5q0 42 12 72t32.5 49.5
t47.5 29t57 9.5q31 0 58 -9.5t46.5 -29.5t31 -50t11.5 -71t-11.5 -71t-31.5 -49.5t-47 -29t-57 -9.5zM810 373q26 0 41 21t15 64t-15 64.5t-41 21.5q-27 0 -42.5 -21.5t-15.5 -64.5t15.5 -64t42.5 -21z" />
    <glyph glyph-name="trademark" unicode="&#x2122;" horiz-adv-x="714" 
d="M262 627h-80v-247h-77v247h-80v63h237v-63zM483 457q1 10 6 36t13 55l36 142h111l30 -310h-76l-12 127q-4 42 -5 76t0 50h-6q-3 -24 -12.5 -66t-21.5 -89l-18 -69h-99l-18 69q-12 47 -21.5 89t-12.5 66h-6q1 -16 0 -50t-5 -76l-12 -127h-74l30 310h111l36 -142
q8 -29 13 -55t6 -36h7z" />
    <glyph glyph-name="partialdiff" unicode="&#x2202;" horiz-adv-x="535" 
d="M395 392q-14 53 -45.5 99.5t-71.5 84t-83.5 66.5t-80.5 48h187q99 -69 149 -168.5t50 -232.5q0 -57 -14 -111.5t-42.5 -96.5t-73 -67.5t-105.5 -25.5q-57 0 -100 21t-72 56t-43.5 80.5t-14.5 95.5q0 48 13.5 92t40 77.5t64.5 53.5t87 20q51 0 89 -27.5t55 -68.5zM267 73
q49 0 72.5 42t23.5 110q0 72 -24 118.5t-72 46.5q-49 0 -73 -43.5t-24 -112.5q0 -70 24.5 -115.5t72.5 -45.5z" />
    <glyph glyph-name="product" unicode="&#x220f;" horiz-adv-x="607" 
d="M562 648v-111h-65v-688h-129v688h-128v-688h-130v688h-65v111h517z" />
    <glyph glyph-name="summation" unicode="&#x2211;" horiz-adv-x="431" 
d="M205 253l-165 284v111h356v-111h-224l164 -284l-165 -293h225v-111h-356v111z" />
    <glyph glyph-name="minus" unicode="&#x2212;" horiz-adv-x="573" 
d="M523 308v-100h-473v100h473z" />
    <glyph glyph-name="radical" unicode="&#x221a;" horiz-adv-x="532" 
d="M124 295l86 -297l144 650h153v-78h-80l-161 -720h-103l-138 445h99z" />
    <glyph glyph-name="infinity" unicode="&#x221e;" horiz-adv-x="709" 
d="M543 388q27 0 49.5 -11t38.5 -30t24.5 -45t8.5 -55t-8.5 -55t-24.5 -45t-38.5 -30t-49.5 -11q-21 0 -40.5 5t-41.5 16.5t-48 30t-60 45.5q-34 -27 -59.5 -45.5t-47 -30t-40.5 -16.5t-40 -5q-27 0 -49.5 11t-38.5 30t-24.5 45t-8.5 55t8.5 55t24.5 45t38.5 30t49.5 11
q21 0 39 -4.5t38.5 -15.5t46.5 -30t64 -49q38 30 64 49t46.5 30t38.5 15.5t40 4.5zM188 193q26 0 50.5 15.5t60.5 38.5q-23 15 -39 25t-28.5 16.5t-23 9t-20.5 2.5q-23 0 -36 -15t-13 -38q0 -22 13 -38t36 -16zM520 193q23 0 36 16t13 38q0 23 -13 38t-36 15
q-11 0 -20.5 -2.5t-22 -9t-28.5 -16.5t-39 -25q36 -23 60.5 -38.5t49.5 -15.5z" />
    <glyph glyph-name="integral" unicode="&#x222b;" horiz-adv-x="370" 
d="M244 581q-15 0 -23.5 -12.5t-8.5 -29.5v-543q0 -34 -7.5 -65t-24.5 -55t-45.5 -38t-71.5 -14q-26 0 -49.5 4t-48.5 10v115q12 0 23 -6.5t22.5 -14t22.5 -13.5t22 -6q15 0 23.5 11t8.5 31v543q0 34 7 65t23.5 54.5t44.5 37.5t70 14q26 0 51.5 -3.5t51.5 -9.5v-114
q-15 0 -26.5 6t-22 13.5t-20.5 13.5t-22 6z" />
    <glyph glyph-name="approxequal" unicode="&#x2248;" horiz-adv-x="573" 
d="M523 309q-27 -20 -54 -27.5t-54 -7.5q-32 0 -64 8t-64.5 17.5t-64.5 17.5t-64 8q-27 0 -54 -8t-54 -28v100q27 20 54 28t54 8q32 0 64 -8t64.5 -18t64.5 -18t64 -8q27 0 54 8t54 28v-100zM523 122q-27 -20 -54 -28t-54 -8q-32 0 -64 8t-64.5 17.5t-64.5 17.5t-64 8
q-27 0 -54 -8t-54 -28v100q27 20 54 28t54 8q32 0 64 -8t64.5 -17.5t64.5 -17.5t64 -8q27 0 54 7.5t54 27.5v-99z" />
    <glyph glyph-name="notequal" unicode="&#x2260;" horiz-adv-x="573" 
d="M326 398l68 112h87l-68 -112h110v-101h-170l-53 -87h223v-101h-284l-67 -112h-87l67 112h-102v101h163l53 87h-216v101h276z" />
    <glyph glyph-name="lessequal" unicode="&#x2264;" horiz-adv-x="573" 
d="M52 377l468 116v-104l-208 -42q-50 -10 -95.5 -18t-79.5 -11v-10q33 -4 79 -11t97 -18l207 -42v-104l-468 116v128zM523 100v-100h-473v100h473z" />
    <glyph glyph-name="greaterequal" unicode="&#x2265;" horiz-adv-x="573" 
d="M520 249l-468 -116v104l208 42q50 10 95.5 18t79.5 11v10q-33 4 -79 11t-97 18l-207 42v104l468 -116v-128zM523 100v-100h-473v100h473z" />
    <glyph glyph-name="lozenge" unicode="&#x25ca;" horiz-adv-x="553" 
d="M503 324l-163 -324h-127l-163 324l163 324h127zM389 324l-114 226l-114 -226l114 -226z" />
    <glyph glyph-name="uniFEFF" unicode="&#xfeff;" horiz-adv-x="0" 
 />
    <glyph glyph-name="uni00B5" horiz-adv-x="500" 
d="M442 8v496h-384v-496h384zM50 512h400v-512h-400v512z" />
    <glyph glyph-name="i.loclTRK" horiz-adv-x="246" 
d="M60 507q15 -6 31 -8.5t32 -2.5q34 0 63 11v-507h-126v507zM123 540q-33 0 -55 18.5t-22 44.5t22 44t55 18q32 0 54.5 -18t22.5 -44t-22.5 -44.5t-54.5 -18.5z" />
    <glyph glyph-name="zero.lf" horiz-adv-x="586" 
d="M294 -14q-50 0 -96 20.5t-81 62t-56 105t-21 149.5q0 88 20.5 152t55.5 106t81.5 62t97.5 20q49 0 94.5 -20t80.5 -61.5t55.5 -104.5t20.5 -149q0 -88 -20 -152.5t-54.5 -106.5t-80.5 -62.5t-97 -20.5zM293 96q49 0 81 54.5t32 170.5q0 119 -31 175.5t-82 56.5
q-50 0 -81.5 -55.5t-31.5 -171.5q0 -119 31.5 -174.5t81.5 -55.5z" />
    <glyph glyph-name="one.lf" horiz-adv-x="360" 
d="M35 537q48 4 87 35.5t56 75.5h112v-648h-130v494h-7q-8 -22 -21.5 -39t-30 -29t-34 -18.5t-32.5 -6.5v136v0z" />
    <glyph glyph-name="two.lf" horiz-adv-x="516" 
d="M476 106v-106h-408v111q138 78 205.5 166.5t67.5 176.5q0 22 -8 38.5t-21 27.5t-29.5 16.5t-33.5 5.5q-32 0 -58 -19.5t-26 -58.5q0 -15 4 -30h-119q-10 29 -10 58q0 37 16 68.5t44.5 54.5t67.5 35.5t86 12.5q41 0 80.5 -11t70.5 -35t50 -63t19 -94q0 -61 -22.5 -115
t-61 -98t-90.5 -77.5t-111 -53.5v-10h287z" />
    <glyph glyph-name="three.lf" horiz-adv-x="564" 
d="M56 443q-6 25 -6 47q0 40 17 72t46 54.5t68 34.5t83 12q46 0 85.5 -10.5t68.5 -32.5t45.5 -54.5t16.5 -76.5q0 -62 -29.5 -96t-80.5 -54v-11q55 -20 86.5 -60t31.5 -103q0 -46 -18.5 -79.5t-50 -55.5t-73.5 -33t-90 -11q-42 0 -82 11.5t-71 33.5t-49.5 55t-18.5 76
q0 11 1.5 21.5t3.5 22.5h127q-4 -17 -4 -34q0 -23 8 -38.5t21.5 -25t31 -13.5t37.5 -4q19 0 36 5t30 15.5t20.5 28t7.5 42.5q0 51 -28 73t-67 22h-44v100h45q38 0 64 22.5t26 70.5q0 50 -27 71t-64 21t-63.5 -20t-26.5 -62q0 -16 6 -37h-120v0z" />
    <glyph glyph-name="four.lf" horiz-adv-x="561" 
d="M321 648q-9 -60 -26.5 -117t-41.5 -108t-54 -95t-63 -78v-9h179v227h130v-227h91v-105h-91v-136h-130v136h-290v107q65 91 101.5 188.5t50.5 216.5h144z" />
    <glyph glyph-name="five.lf" 
d="M161 367q29 30 57 42t72 12q35 0 68.5 -12t59 -37.5t41 -65t15.5 -94.5q0 -57 -17 -99.5t-47.5 -70.5t-73 -42t-94.5 -14q-41 0 -78.5 10.5t-66 31.5t-45.5 52t-17 71q0 21 6 47h122q-4 -13 -4 -28q0 -35 23 -58t64 -23q40 0 68.5 28.5t28.5 92.5q0 33 -8 55.5
t-21.5 36.5t-30.5 20.5t-35 6.5q-54 0 -79 -52l-119 23l28 348h353v-115h-258l-5 -69q-2 -22 -6 -45.5t-10 -45.5l9 -6v0z" />
    <glyph glyph-name="six.lf" horiz-adv-x="534" 
d="M314 424q35 0 68 -12t59 -37.5t42 -65.5t16 -95q0 -57 -18.5 -99.5t-50 -71t-73 -43t-86.5 -14.5q-49 0 -92 16.5t-75 53.5t-50.5 97.5t-18.5 148.5q0 76 14.5 142t45.5 114.5t80 76.5t118 28q48 0 85 -13.5t60.5 -37.5t32.5 -57.5t3 -72.5h-118q6 42 -14.5 60.5
t-49.5 18.5q-41 0 -67 -21.5t-42 -54.5t-22 -72.5t-6 -74.5l10 -2q22 48 61 68t88 20zM272 90q39 0 68 30.5t29 93.5q0 33 -8 56.5t-21 38.5t-30.5 22t-36.5 7q-43 0 -71.5 -31.5t-28.5 -91.5q0 -27 7.5 -50t21 -39.5t31.5 -26t39 -9.5z" />
    <glyph glyph-name="seven.lf" horiz-adv-x="492" 
d="M111 0q4 87 23.5 163.5t50.5 142.5t72.5 121t88.5 100v10h-311v111h437v-111q-43 -47 -80 -100t-65.5 -117.5t-46 -143t-20.5 -176.5h-149z" />
    <glyph glyph-name="eight.lf" horiz-adv-x="542" 
d="M383 330q57 -19 90.5 -61t33.5 -108q0 -44 -20.5 -77.5t-54.5 -56t-76.5 -33.5t-87.5 -11q-47 0 -89 11t-74 33.5t-51 56t-19 77.5q0 66 33.5 108t90.5 61v9q-25 10 -45 23.5t-34.5 31.5t-22.5 42t-8 56q0 42 17 75t47 55t70.5 33.5t87.5 11.5t87.5 -11.5t70.5 -33.5
t47 -55t17 -75q0 -32 -8 -56t-22.5 -42t-34.5 -31.5t-45 -23.5v-9zM271 566q-18 0 -35.5 -5t-31 -16t-21.5 -28t-8 -42q0 -24 8 -41.5t21 -28t28.5 -15.5t29.5 -5h18q14 0 29.5 5t28 16t20.5 28t8 41q0 25 -8 42t-21.5 28t-30.5 16t-35 5zM272 92q19 0 37 5t32.5 16.5
t23.5 29t9 43.5t-9 44.5t-23 30.5t-30.5 17.5t-30.5 5.5h-19q-15 0 -31.5 -5.5t-31 -17.5t-23.5 -30.5t-9 -44.5t9 -43.5t23.5 -29t33.5 -16.5t39 -5z" />
    <glyph glyph-name="nine.lf" horiz-adv-x="534" 
d="M220 225q-35 0 -68 12t-59 37.5t-42 65.5t-16 95q0 57 18.5 99.5t50 71t73 43t86.5 14.5q49 0 92 -16.5t75 -53.5t50.5 -97.5t18.5 -148.5q0 -76 -14.5 -142t-45.5 -114.5t-80 -76.5t-118 -28q-48 0 -85 13.5t-60.5 37.5t-32.5 57.5t-3 72.5h118q-6 -42 14.5 -60.5
t49.5 -18.5q40 0 66.5 21.5t42.5 54.5t22 72.5t6 74.5l-10 2q-22 -48 -61 -68t-88 -20zM262 559q-39 0 -68 -30.5t-29 -93.5q0 -33 8 -56.5t21 -38.5t30.5 -22t36.5 -7q43 0 71.5 31.5t28.5 91.5q0 27 -7.5 50t-21 39.5t-31.5 26t-39 9.5z" />
    <glyph glyph-name="zero.osf" horiz-adv-x="582" 
d="M291 -13q-52 0 -97 18.5t-78 54t-52 87.5t-19 119t19 119.5t52 87.5t78 53.5t98 18.5q51 0 95.5 -18.5t78 -53.5t52.5 -87.5t19 -119.5t-19 -119t-52 -87.5t-78 -54t-97 -18.5zM291 90q51 0 79 44.5t28 131.5q0 86 -28 131t-79 45t-79 -45t-28 -131q0 -87 28 -131.5
t79 -44.5z" />
    <glyph glyph-name="one.osf" horiz-adv-x="354" 
d="M35 425q24 3 45.5 12.5t39 24t30.5 33t20 38.5h114v-533h-131v380h-6q-17 -45 -49 -69.5t-63 -24.5v139v0z" />
    <glyph glyph-name="two.osf" horiz-adv-x="523" 
d="M476 106v-106h-408v112q25 7 55 19.5t60.5 29.5t59 38t50.5 45.5t35.5 53t13.5 60.5q0 36 -23 59.5t-61 23.5q-16 0 -32 -3.5t-29.5 -12.5t-22 -24t-8.5 -37q0 -20 9 -47h-121q-5 15 -6.5 29t-1.5 28q0 40 16.5 71.5t45.5 54t68.5 34.5t85.5 12q40 0 79 -10t69.5 -31.5
t49 -57t18.5 -86.5q0 -99 -70 -161.5t-191 -83.5v-10h259z" />
    <glyph glyph-name="three.osf" horiz-adv-x="523" 
d="M56 326q-6 25 -6 47q0 40 17 72t46 54.5t68 34.5t83 12q46 0 85.5 -10.5t68.5 -32.5t45.5 -54.5t16.5 -76.5q0 -62 -29.5 -96t-80.5 -54v-11q55 -20 86.5 -60t31.5 -103q0 -46 -18.5 -79.5t-50 -55.5t-73.5 -33t-90 -11q-42 0 -82 11.5t-71 33.5t-49.5 55t-18.5 76
q0 11 1.5 21.5t3.5 22.5h127q-4 -17 -4 -34q0 -23 8 -38.5t21.5 -25t31 -13.5t37.5 -4q19 0 36 5t30 15.5t20.5 28t7.5 42.5q0 51 -28 73t-67 22h-44v100h45q38 0 64 22.5t26 70.5q0 50 -27 71t-64 21t-63.5 -20t-26.5 -62q0 -16 6 -37h-120v0z" />
    <glyph glyph-name="four.osf" horiz-adv-x="539" 
d="M307 532q-3 -60 -18 -120t-38 -115t-52.5 -102t-61.5 -80v-9h173v257h127v-257h77v-106h-77v-113h-127v113h-285v105q66 89 99.5 198t40.5 229h142z" />
    <glyph glyph-name="five.osf" 
d="M161 252q29 30 57 42t72 12q35 0 68.5 -12t59 -37.5t41 -65t15.5 -94.5q0 -57 -17 -99.5t-47.5 -70.5t-73 -42t-94.5 -14q-41 0 -78.5 10.5t-66 31.5t-45.5 52t-17 71q0 21 6 47h122q-4 -13 -4 -28q0 -35 23 -58t64 -23q40 0 68.5 28.5t28.5 92.5q0 33 -8 55.5
t-21.5 36.5t-30.5 20.5t-35 6.5q-54 0 -79 -52l-119 23l28 348h353v-111h-257l-6 -73q-2 -22 -6.5 -45.5t-9.5 -45.5l9 -6v0z" />
    <glyph glyph-name="six.osf" horiz-adv-x="534" 
d="M314 424q35 0 68 -12t59 -37.5t42 -65.5t16 -95q0 -57 -18.5 -99.5t-50 -71t-73 -43t-86.5 -14.5q-49 0 -92 16.5t-75 53.5t-50.5 97.5t-18.5 148.5q0 76 14.5 142t45.5 114.5t80 76.5t118 28q48 0 85 -13.5t60.5 -37.5t32.5 -57.5t3 -72.5h-118q6 42 -14.5 60.5
t-49.5 18.5q-41 0 -67 -21.5t-42 -54.5t-22 -72.5t-6 -74.5l10 -2q22 48 61 68t88 20zM272 90q39 0 68 30.5t29 93.5q0 33 -8 56.5t-21 38.5t-30.5 22t-36.5 7q-43 0 -71.5 -31.5t-28.5 -91.5q0 -27 7.5 -50t21 -39.5t31.5 -26t39 -9.5z" />
    <glyph glyph-name="seven.osf" horiz-adv-x="477" 
d="M101 -113q4 87 23.5 163.5t50.5 141.5t72.5 120t88.5 100v10h-311v111h437v-111q-43 -47 -80 -99.5t-65.5 -117t-46 -142.5t-20.5 -176h-149z" />
    <glyph glyph-name="eight.osf" horiz-adv-x="542" 
d="M383 330q57 -19 90.5 -61t33.5 -108q0 -44 -20.5 -77.5t-54.5 -56t-76.5 -33.5t-87.5 -11q-47 0 -89 11t-74 33.5t-51 56t-19 77.5q0 66 33.5 108t90.5 61v9q-25 10 -45 23.5t-34.5 31.5t-22.5 42t-8 56q0 42 17 75t47 55t70.5 33.5t87.5 11.5t87.5 -11.5t70.5 -33.5
t47 -55t17 -75q0 -32 -8 -56t-22.5 -42t-34.5 -31.5t-45 -23.5v-9zM271 566q-18 0 -35.5 -5t-31 -16t-21.5 -28t-8 -42q0 -24 8 -41.5t21 -28t28.5 -15.5t29.5 -5h18q14 0 29.5 5t28 16t20.5 28t8 41q0 25 -8 42t-21.5 28t-30.5 16t-35 5zM272 92q19 0 37 5t32.5 16.5
t23.5 29t9 43.5t-9 44.5t-23 30.5t-30.5 17.5t-30.5 5.5h-19q-15 0 -31.5 -5.5t-31 -17.5t-23.5 -30.5t-9 -44.5t9 -43.5t23.5 -29t33.5 -16.5t39 -5z" />
    <glyph glyph-name="nine.osf" horiz-adv-x="534" 
d="M220 110q-35 0 -68 12t-59 37.5t-42 65.5t-16 95q0 57 18.5 99.5t50 71t73 43t86.5 14.5q49 0 92 -16.5t75 -53.5t50.5 -97.5t18.5 -148.5q0 -76 -14.5 -142t-45.5 -114.5t-80 -76.5t-118 -28q-48 0 -85 13.5t-60.5 37.5t-32.5 57.5t-3 72.5h118q-6 -42 14.5 -60.5
t49.5 -18.5q40 0 66.5 21.5t42.5 54.5t22 72.5t6 74.5l-10 2q-22 -48 -61 -68t-88 -20zM262 444q-39 0 -68 -30.5t-29 -93.5q0 -33 8 -56.5t21 -38.5t30.5 -22t36.5 -7q43 0 71.5 31.5t28.5 91.5q0 27 -7.5 50t-21 39.5t-31.5 26t-39 9.5z" />
    <glyph glyph-name="brevecombcy" horiz-adv-x="489" 
d="M100 649q72 -15 145 -15q70 0 144 15v-87q-37 -8 -73 -12t-71 -4q-36 0 -72.5 4t-72.5 12v87v0z" />
    <glyph glyph-name="tildeUC" horiz-adv-x="492" 
d="M185 800q26 0 44 -8t31 -17t23 -17t21 -8q6 0 11 5.5t5 18.5q0 4 -0.5 8.5t-1.5 9.5h70q2 -9 3 -17.5t1 -16.5q0 -44 -25.5 -62t-59.5 -18q-26 0 -44 8t-31 17t-23.5 17t-20.5 8q-16 0 -16 -24q0 -4 0.5 -8.5t1.5 -9.5h-70q-4 16 -4 33q0 44 25.5 62.5t59.5 18.5z" />
    <glyph glyph-name="ringUC" horiz-adv-x="419" 
d="M210 668q-22 0 -42 6.5t-35 18.5t-24 28.5t-9 36.5q0 19 9 35.5t24 28t35 18t42 6.5q21 0 41 -6.5t35 -18t24 -28t9 -35.5q0 -20 -9 -36.5t-24 -28.5t-35 -18.5t-41 -6.5zM210 715q17 0 29 12t12 32q0 16 -12 27.5t-29 11.5q-18 0 -30 -11.5t-12 -27.5q0 -20 12 -32
t30 -12z" />
    <glyph glyph-name="macronUC" horiz-adv-x="498" 
d="M378 782v-85h-258v85h258z" />
    <glyph glyph-name="hungarumlautUC" horiz-adv-x="574" 
d="M110 738q18 6 38 15.5t39 21t35 25t25 27.5l56 -65q-18 -17 -40.5 -31t-46.5 -24t-46.5 -16.5t-40.5 -7.5zM281 738q36 12 73.5 36.5t63.5 52.5l56 -65q-18 -17 -40.5 -31t-46.5 -24t-46.5 -16.5t-40.5 -7.5z" />
    <glyph glyph-name="dieresisUC" horiz-adv-x="517" 
d="M171 682q-31 0 -51 17t-20 41q0 23 20 40t51 17q30 0 50.5 -17t20.5 -40q0 -24 -20.5 -41t-50.5 -17zM346 682q-31 0 -51 17t-20 41q0 23 20 40t51 17q30 0 50.5 -17t20.5 -40q0 -24 -20.5 -41t-50.5 -17z" />
    <glyph glyph-name="circumflexUC" horiz-adv-x="512" 
d="M100 681q15 12 30.5 27t29 30t24.5 30t17 27h106q5 -11 17.5 -27t28 -32.5t31.5 -31t28 -23.5h-108l-47 70h-6l-46 -70h-105z" />
    <glyph glyph-name="caronUC" horiz-adv-x="512" 
d="M412 795q-15 -12 -30.5 -27t-29 -30t-24.5 -30t-17 -27h-106q-5 11 -17.5 27t-28 32.5t-31.5 31t-28 23.5h108l47 -70h6l46 70h105z" />
    <glyph glyph-name="breveUC" horiz-adv-x="499" 
d="M170 806q11 -26 33 -40.5t48 -14.5q27 0 48.5 14.5t33.5 40.5l66 -41q-21 -44 -57 -65t-92 -21q-110 0 -150 86l70 41v0z" />
    <glyph glyph-name="graveUC" horiz-adv-x="442" 
d="M321 679q-19 0 -48 4t-60.5 12.5t-61.5 20.5t-51 29l49 86q14 -14 39 -29t53 -27t55 -21t46 -11z" />
    <glyph glyph-name="acuteUC" horiz-adv-x="441" 
d="M100 740q19 2 46 11t55 21t53 27t39 29l48 -83q-21 -17 -51 -29t-61.5 -20.5t-60.5 -12.5t-48 -4z" />
    <glyph glyph-name="Bitcoin" horiz-adv-x="574" 
d="M316 705v-78q26 0 58 -4t60.5 -19.5t48 -46t19.5 -83.5q0 -17 -4 -36.5t-14.5 -38.5t-29 -35.5t-48.5 -26.5v-8q59 -13 86.5 -54.5t27.5 -91.5q0 -46 -16 -77t-44 -50t-65 -27t-79 -8v-85h-95v85h-150v606h150v78h95zM293 117q21 0 40 4.5t34 14.5t24 25.5t9 37.5
q0 47 -27 62.5t-81 15.5h-95v-160h96zM197 530v-158h97q48 0 68.5 23.5t20.5 56.5q0 23 -8.5 38t-21.5 24t-30 12.5t-33 3.5h-93z" />
    <glyph glyph-name="caron_l" horiz-adv-x="369" 
d="M183 695q25 0 45 -16.5t20 -54.5q0 -23 -7.5 -46.5t-19 -44t-25 -36.5t-24.5 -24l-42 12q17 19 30.5 41.5t15.5 37.5q-23 0 -41 16t-18 50q0 32 19.5 48.5t46.5 16.5z" />
    <glyph glyph-name="dotaccentUC" horiz-adv-x="354" 
d="M177 681q-33 0 -55 18.5t-22 44.5t22 44t55 18q32 0 54.5 -18t22.5 -44t-22.5 -44.5t-54.5 -18.5z" />
    <glyph glyph-name="bullet.alt" horiz-adv-x="439" 
d="M0 507h359l-359 -360v360z" />
    <glyph glyph-name="bullet.alt.cps" horiz-adv-x="439" 
d="M0 648h359l-359 -360v360z" />
    <glyph glyph-name="cyrBreve" horiz-adv-x="409" 
d="M50 793q35 -8 73 -11t78 -3t80 3t78 11v-92q-72 -15 -154 -15q-80 0 -155 15v92v0z" />
    <glyph glyph-name="glyph477" horiz-adv-x="389" 
d="M50 664q72 -15 145 -15q70 0 144 15v-87q-37 -8 -73 -12t-71 -4q-36 0 -72.5 4t-72.5 12v87v0z" />
    <glyph glyph-name="glyph478" horiz-adv-x="231" 
d="M116 700q25 0 45 -16.5t20 -54.5q0 -23 -7.5 -46.5t-19 -44t-25 -36.5t-24.5 -24l-42 12q17 19 30.5 41.5t15.5 37.5q-23 0 -41 16t-18 50q0 32 19.5 48.5t46.5 16.5z" />
    </font>
</defs>
</svg>
