<svg viewBox="0 0 35 13" fill="none" xmlns="http://www.w3.org/2000/svg">
<path d="M28.9454 0.445075C27.4987 0.445075 26.1717 0.952575 25.1304 1.79841C24.0527 0.921098 22.705 0.443023 21.3154 0.445075C19.8687 0.445075 18.5417 0.952575 17.5004 1.79841C16.4227 0.921098 15.075 0.443023 13.6854 0.445075C12.2387 0.445075 10.9117 0.952575 9.87041 1.79841C8.98199 1.07745 7.90748 0.622964 6.77136 0.487601C5.63525 0.352237 4.48404 0.541538 3.45109 1.03357C2.41814 1.5256 1.54574 2.30023 0.934955 3.26771C0.324171 4.23519 0 5.35593 0 6.50008C0 7.64422 0.324171 8.76496 0.934955 9.73244C1.54574 10.6999 2.41814 11.4745 3.45109 11.9666C4.48404 12.4586 5.63525 12.6479 6.77136 12.5125C7.90748 12.3772 8.98199 11.9227 9.87041 11.2017C10.9117 12.0476 12.2387 12.5551 13.6854 12.5551C15.1321 12.5551 16.4592 12.0476 17.5004 11.2017C18.5417 12.0476 19.8687 12.5551 21.3154 12.5551C22.7621 12.5551 24.0892 12.0476 25.1304 11.2017C25.883 11.8125 26.7712 12.2336 27.7204 12.4298C28.6695 12.6259 29.6519 12.5914 30.585 12.329C31.518 12.0666 32.3744 11.5841 33.0822 10.922C33.79 10.2599 34.3286 9.43751 34.6525 8.52404C34.9765 7.61057 35.0765 6.63267 34.944 5.67254C34.8115 4.71242 34.4505 3.79812 33.8913 3.00649C33.3321 2.21487 32.591 1.56905 31.7304 1.12333C30.8697 0.677612 29.9146 0.445009 28.9454 0.445075ZM25.1304 9.22133C24.5621 8.42784 24.2571 7.47606 24.2583 6.50008C24.2583 5.48507 24.5821 4.54591 25.1304 3.77883C25.6787 4.54591 26.0025 5.48507 26.0025 6.50008C26.0025 7.51508 25.6787 8.45424 25.1304 9.22133ZM17.5004 9.22133C16.9321 8.42784 16.6271 7.47606 16.6283 6.50008C16.6283 5.48507 16.9521 4.54591 17.5004 3.77883C18.0487 4.54591 18.3725 5.48507 18.3725 6.50008C18.3725 7.51508 18.0487 8.45424 17.5004 9.22133ZM9.87041 9.22133C9.30214 8.42784 8.99712 7.47606 8.99833 6.50008C8.99833 5.48507 9.32208 4.54591 9.87041 3.77883C10.4187 4.54591 10.7425 5.48507 10.7425 6.50008C10.7425 7.51508 10.4187 8.45424 9.87041 9.22133ZM1.36833 6.50008C1.36867 5.62549 1.61371 4.76845 2.07572 4.02587C2.53774 3.28328 3.19831 2.68477 3.98273 2.29802C4.76716 1.91127 5.64414 1.75171 6.51452 1.83738C7.38489 1.92304 8.21394 2.25052 8.90791 2.78278C8.07875 3.84437 7.629 5.15306 7.63041 6.50008C7.63041 7.90153 8.10874 9.19216 8.90791 10.2174C8.21394 10.7496 7.38489 11.0771 6.51452 11.1628C5.64414 11.2484 4.76716 11.0889 3.98273 10.7021C3.19831 10.3154 2.53774 9.71687 2.07572 8.97429C1.61371 8.2317 1.36867 7.37466 1.36833 6.50008ZM10.8329 10.2174C11.6621 9.15578 12.1118 7.8471 12.1104 6.50008C12.1104 5.09862 11.6321 3.80799 10.8329 2.78278C11.6505 2.15333 12.6536 1.81232 13.6854 1.81299C14.7587 1.81299 15.7475 2.17466 16.5379 2.78278C15.7084 3.84415 15.2586 5.15298 15.2604 6.50008C15.2604 7.90153 15.7387 9.19216 16.5379 10.2174C15.7203 10.8468 14.7173 11.1878 13.6854 11.1872C12.6534 11.1886 11.6502 10.8475 10.8329 10.2174ZM18.4629 10.2174C19.2925 9.156 19.7423 7.84717 19.7404 6.50008C19.7404 5.09862 19.2621 3.80799 18.4629 2.78132C19.2533 2.17466 20.2421 1.81153 21.3154 1.81153C22.3887 1.81153 23.3775 2.1732 24.1679 2.78132C23.3384 3.84269 22.8886 5.15152 22.8904 6.49862C22.8904 7.90007 23.3687 9.1907 24.1679 10.2159C23.3503 10.8454 22.3473 11.1864 21.3154 11.1857C20.2835 11.1882 19.28 10.8476 18.4629 10.2174ZM28.9454 11.1872C27.9134 11.1886 26.9102 10.8475 26.0929 10.2174C26.9219 9.15567 27.3716 7.84706 27.3704 6.50008C27.3704 5.09862 26.8921 3.80799 26.0929 2.78278C26.6838 2.32898 27.3744 2.02257 28.1073 1.88897C28.8403 1.75536 29.5945 1.79842 30.3075 2.01455C31.0205 2.23069 31.6717 2.61369 32.2072 3.13178C32.7426 3.64987 33.1468 4.28814 33.3862 4.99365C33.6257 5.69916 33.6935 6.4516 33.5841 7.18856C33.4746 7.92552 33.1911 8.62577 32.7569 9.23126C32.3228 9.83674 31.7506 10.33 31.0877 10.6702C30.4249 11.0103 29.6905 11.1875 28.9454 11.1872Z" fill="#121212"/>
</svg>
