<svg viewBox="0 0 35 35" fill="none" xmlns="http://www.w3.org/2000/svg">
<path d="M17.5 0C7.83563 0 0 7.83563 0 17.5C0 27.1644 7.83563 35 17.5 35C27.1644 35 35 27.1644 35 17.5C35 7.83563 27.1644 0 17.5 0ZM17.5 1.1375C26.5358 1.1375 33.861 8.46271 33.861 17.5C33.861 26.5358 26.5373 33.861 17.5 33.861C8.46271 33.861 1.13896 26.5358 1.13896 17.5C1.13896 8.46417 8.46417 1.1375 17.5 1.1375ZM16.5112 2.05625C16.03 2.07667 15.5487 2.1175 15.0646 2.17L14.9085 6.46333C15.2519 6.40523 15.5973 6.3595 15.944 6.32625L16.046 3.42708L16.0271 3.22729L16.0898 3.41687L17.0581 5.58833H17.9419L18.9102 3.41833L18.9685 3.22729L18.954 3.42708L19.056 6.32625C19.3944 6.35833 19.7458 6.405 20.0915 6.46333L19.9325 2.17C19.4517 2.11582 18.9692 2.07788 18.4858 2.05625L17.5335 4.42604L17.5 4.60104L17.4665 4.42604L16.5112 2.05625ZM26.2763 4.71625L24.026 8.25708C24.3104 8.47583 24.6852 8.79813 24.9258 9.01833L27.0448 7.91875L27.179 7.81813L27.0783 7.95521L25.9817 10.0742C26.2194 10.3294 26.5621 10.7421 26.7546 10.9929L30.2983 8.74125C30.081 8.46011 29.8573 8.18393 29.6275 7.91292L27.3831 9.39167L27.23 9.52583L27.3438 9.35812L28.3354 7.38063L27.6354 6.68062L25.6579 7.67229L25.4902 7.78604L25.6229 7.63146L27.1075 5.38708C26.845 5.16542 26.5956 4.96271 26.2763 4.71625ZM8.02083 5.51979C7.49583 5.57375 7.09042 5.9325 5.98938 7.16042C5.60758 7.5931 5.23941 8.03762 4.88542 8.49333L7.91 11.3619C8.91187 10.2535 9.31875 9.84229 10.1092 9.00958C10.6677 8.41896 10.9842 7.74083 10.4242 7.08896C10.1208 6.73604 9.61042 6.65875 9.18458 6.83375L9.14375 6.84833L9.15833 6.81042C9.21093 6.61691 9.20536 6.41221 9.14234 6.22184C9.07932 6.03148 8.96163 5.86389 8.80396 5.74C8.69436 5.65359 8.56872 5.58976 8.4343 5.55222C8.29988 5.51467 8.15935 5.50414 8.02083 5.52125V5.51979ZM8.02958 6.41667C8.22792 6.36271 8.43354 6.50417 8.47875 6.70833C8.52542 6.9125 8.39708 7.105 8.25417 7.26542C7.93333 7.63 6.75063 8.86667 6.75063 8.86667L6.16438 8.30813C6.7725 7.56438 7.42 6.88771 7.71313 6.61938C7.80107 6.5277 7.90953 6.45822 8.02958 6.41667ZM17.5 7.12104C14.931 7.11991 12.453 8.07197 10.5456 9.79292C8.6382 11.5139 7.43717 13.8813 7.175 16.4369V16.4398C7.01021 18.0612 7.22928 19.6986 7.81449 21.2196C8.39971 22.7406 9.33464 24.1026 10.5437 25.1954C11.7528 26.2881 13.202 27.0811 14.7743 27.51C16.3465 27.939 17.9977 27.9919 19.5942 27.6646C21.9343 27.1835 24.0367 25.9094 25.5459 24.0574C27.0551 22.2053 27.8787 19.8891 27.8775 17.5C27.8748 14.7487 26.7805 12.1108 24.8349 10.1655C22.8893 8.22016 20.2513 7.12628 17.5 7.12396V7.12104ZM9.42521 7.47396C9.49375 7.47396 9.56521 7.49292 9.62938 7.53667C9.75771 7.62271 9.81604 7.77 9.78396 7.91583C9.74604 8.08938 9.60167 8.25271 9.485 8.37958L7.96104 10.0129L7.34854 9.42958C7.34854 9.42958 8.49625 8.21625 8.8725 7.82688C9.02125 7.67229 9.1175 7.57896 9.21958 7.52792C9.28282 7.49508 9.35255 7.47666 9.42375 7.47396H9.42521ZM17.5 8.48458C18.6843 8.48324 19.8572 8.71551 20.9516 9.16811C22.046 9.6207 23.0404 10.2847 23.8779 11.1221C24.7153 11.9596 25.3793 12.954 25.8319 14.0484C26.2845 15.1428 26.5168 16.3157 26.5154 17.5H17.5V26.5154C16.3157 26.5168 15.1428 26.2845 14.0484 25.8319C12.954 25.3793 11.9596 24.7153 11.1221 23.8779C10.2847 23.0404 9.6207 22.046 9.16811 20.9516C8.71551 19.8572 8.48324 18.6843 8.48458 17.5H17.5V8.48458Z" fill="#121212"/>
</svg>
