<svg viewBox="0 0 35 17" fill="none" xmlns="http://www.w3.org/2000/svg">
<path d="M0 4.37639H11.0196C11.7196 3.2841 12.6395 2.41814 13.781 1.77647C14.9217 1.13583 16.1601 0.81543 17.4974 0.81543C18.8336 0.81543 20.0747 1.1367 21.2199 1.78012C22.365 2.42353 23.284 3.28949 23.975 4.37639H35L33.9087 5.46766H24.5763C24.7687 5.88234 24.9149 6.31691 25.0123 6.76353H32.6442L31.5529 7.85583H25.1812C25.2 8.13758 25.2089 8.35108 25.2089 8.49647C25.2089 8.64187 25.2 8.85639 25.1812 9.13814H30.2714L29.1792 10.2294H25.0125C24.9171 10.6746 24.7708 11.1074 24.5764 11.5192H27.8781L26.7724 12.6104H23.975C23.284 13.6989 22.365 14.5677 21.2199 15.2147C20.0747 15.8618 18.8336 16.1848 17.4974 16.1848C16.1601 16.1848 14.9217 15.8627 13.781 15.2184C12.6395 14.5731 11.7196 13.7035 11.0196 12.6104H8.22762L7.14263 11.5192H10.438C10.2455 11.1071 10.1006 10.6744 10.0064 10.2294H5.84237L4.73667 9.13814H9.82596C9.80715 8.85639 9.79825 8.64187 9.79825 8.49647C9.79825 8.35108 9.80715 8.13758 9.82596 7.85583H3.46763L2.36206 6.76353H10.0064C10.1027 6.31717 10.2474 5.88264 10.438 5.46766H1.09127L0 4.37639ZM11.4387 5.93885C11.0914 6.75274 10.9174 7.60543 10.9174 8.49647C10.9174 9.38766 11.0914 10.2411 11.4387 11.0551C11.786 11.8681 12.2545 12.5709 12.8431 13.1614C13.432 13.752 14.132 14.2213 14.9431 14.5704C15.7545 14.9194 16.6062 15.0935 17.4974 15.0935C18.3875 15.0935 19.2401 14.9194 20.0541 14.5704C20.8671 14.2213 21.569 13.7519 22.1576 13.1614C22.7464 12.5708 23.2149 11.8681 23.5658 11.0551C23.9158 10.2411 24.0908 9.38766 24.0908 8.49647C24.0908 7.60543 23.9158 6.75274 23.5658 5.93885C23.2149 5.1248 22.7464 4.42393 22.1576 3.8352C21.569 3.24749 20.8671 2.77893 20.0541 2.4298C19.2401 2.08083 18.3875 1.9067 17.4974 1.9067C16.6062 1.9067 15.7545 2.08083 14.9433 2.4298C14.132 2.77893 13.432 3.24749 12.8433 3.8352C12.2545 4.42393 11.786 5.1248 11.4387 5.93885ZM12.2464 10.2294H12.9284L12.9087 7.64393L13.7343 10.2296L14.4926 10.2249L15.303 7.65735V10.2294H16.0309V6.76353L15.006 6.76266L14.1266 9.52678L13.23 6.76616L12.2464 6.76353V10.2294ZM16.8153 10.2294H17.5376V6.76353H16.8153V10.2294ZM18.3221 10.2294H19.0177V7.73274L20.4014 10.2294H21.2405V6.76353H20.5584V9.27464L19.1746 6.76353H18.3221V10.2294ZM22.0383 10.2294H22.7474V6.76353H22.0383V10.2294Z" fill="#121212"/>
</svg>
