<svg viewBox="0 0 28 35" fill="none" xmlns="http://www.w3.org/2000/svg">
<path d="M13.599 0C12.605 0.00469786 11.6115 0.048969 10.621 0.132708C8.53338 0.305481 6.4622 0.639463 4.42604 1.13167C2.95026 1.50465 1.50088 1.97527 0.0874999 2.54042L0 2.5725C0 2.5725 0.172083 13.1352 0.30625 18.3677C0.340815 19.9082 0.620932 21.4334 1.13604 22.8856C1.73216 24.5379 2.52643 26.1117 3.50146 27.5727C4.52154 29.0814 5.75556 30.4339 7.16479 31.5875C7.71567 32.0496 8.29637 32.4749 8.90312 32.8606C9.85475 33.4356 10.8482 33.9382 11.8752 34.3642C12.215 34.5071 12.511 34.6442 12.7794 34.736C13.0599 34.8433 13.3474 34.9315 13.6398 35C13.9322 34.931 14.2197 34.8423 14.5002 34.7346C14.7656 34.6427 15.0646 34.5071 15.4044 34.3627C16.4308 33.9366 17.4238 33.434 18.375 32.8592C18.9827 32.4734 19.5644 32.0482 20.1162 31.586C21.5249 30.4328 22.7584 29.0809 23.7781 27.5727C24.7533 26.1118 25.5476 24.5379 26.1435 22.8856C26.6591 21.4334 26.9398 19.9083 26.9748 18.3677C27.1075 13.1352 27.281 2.57833 27.281 2.57833C27.254 2.56433 27.2262 2.55168 27.1979 2.54042C25.7841 1.9752 24.3342 1.50458 22.8579 1.13167C20.8217 0.639943 18.7505 0.306448 16.6629 0.134167C15.6724 0.0505288 14.679 0.00577213 13.685 0L13.599 0ZM13.599 0.526458H13.6821C14.6723 0.538125 15.5604 0.570208 16.5448 0.657708C18.5522 0.82479 20.5435 1.14806 22.5006 1.62458C23.9203 1.98654 25.3142 2.44304 26.6729 2.99104C26.7012 3.00179 26.729 3.01396 26.756 3.0275L26.7006 6.34375C26.6919 6.33802 26.6826 6.33314 26.6729 6.32917C25.3146 5.78131 23.9212 5.32481 22.5021 4.96271C20.5444 4.48675 18.5526 4.16397 16.5448 3.99729C15.5604 3.90979 14.6767 3.85146 13.6865 3.83979H13.6019C12.6117 3.85292 11.7206 3.90979 10.7362 3.99729C8.72881 4.16547 6.73751 4.48971 4.78042 4.96708C3.36073 5.32958 1.96686 5.78657 0.608125 6.335C0.597956 6.33891 0.588188 6.34379 0.578958 6.34958L0.523542 3.02312L0.608125 2.99104C1.96639 2.44309 3.35977 1.98659 4.77896 1.62458C6.73702 1.1474 8.72931 0.823637 10.7377 0.65625C11.7221 0.56875 12.6102 0.539583 13.6004 0.526458H13.599ZM14.019 0.841458C13.5805 0.833455 13.1418 0.837345 12.7035 0.853125C12.5271 0.860417 12.2835 1.01208 12.2806 1.18854L12.2704 2.13354C12.2675 2.32604 12.5212 2.47771 12.7152 2.48208C13.389 2.49667 13.984 2.485 14.6373 2.52583C14.6854 2.53021 14.7277 2.55938 14.7277 2.6075L14.7233 2.79708C14.7242 2.80598 14.7231 2.81497 14.7202 2.82341C14.7172 2.83185 14.7124 2.83953 14.7062 2.84593C14.6999 2.85232 14.6923 2.85727 14.684 2.86042C14.6756 2.86357 14.6666 2.86485 14.6577 2.86417C13.8979 2.86417 13.1031 2.82771 12.3346 2.88896C12.2937 2.89187 12.2952 2.88167 12.2937 2.9225L12.2587 3.4825L12.2558 3.52625C13.1699 3.47345 14.0863 3.47345 15.0004 3.52625C15.1071 3.52301 15.2094 3.48332 15.2903 3.41379C15.3713 3.34427 15.4259 3.24911 15.4452 3.14417L15.454 2.22979C15.454 2.04167 15.2235 1.90313 15.0733 1.89438C14.4287 1.85354 13.6952 1.87542 13.0404 1.85792C13.0313 1.85756 13.0224 1.85536 13.0142 1.85145C13.006 1.84755 12.9987 1.84202 12.9927 1.8352C12.9867 1.82839 12.9822 1.82042 12.9793 1.81179C12.9765 1.80316 12.9755 1.79405 12.9762 1.785L12.9894 1.57354C12.9894 1.53271 13.0171 1.52104 13.0579 1.51958C13.7054 1.49625 14.6723 1.52687 15.3358 1.54729C15.3601 1.5432 15.3821 1.53074 15.3981 1.51209C15.4141 1.49344 15.423 1.46977 15.4233 1.44521V0.982917C15.4233 0.958125 15.3767 0.885208 15.3315 0.88375V0.882292C14.8942 0.862733 14.4566 0.84912 14.019 0.841458V0.841458ZM11.2773 0.934792C10.6604 0.946458 9.32167 1.11708 8.56187 1.21187L8.5575 3.85V3.88354L9.24292 3.79604C9.24583 3.79572 9.24865 3.79477 9.25116 3.79326C9.25368 3.79175 9.25584 3.78971 9.2575 3.78729C9.26078 3.78318 9.26235 3.77795 9.26187 3.77271V3.01L10.6429 2.86125C10.764 2.83938 10.9054 2.92833 11.0162 3.10771C11.1049 3.25938 11.1615 3.42765 11.1825 3.60208L11.8635 3.55104C11.8781 3.55104 11.9073 3.55104 11.9044 3.53646C11.8842 3.1688 11.724 2.82283 11.4567 2.56958C11.5457 2.53356 11.6212 2.47062 11.6727 2.38957C11.7242 2.30852 11.7491 2.21339 11.744 2.1175C11.7511 1.84293 11.7404 1.56818 11.7119 1.295C11.6886 1.19527 11.6331 1.10598 11.5541 1.04088C11.475 0.975787 11.3767 0.938508 11.2744 0.934792H11.2773ZM16.5127 0.9625C16.3708 0.957083 16.2318 1.00309 16.1211 1.09204C16.0104 1.181 15.9356 1.30693 15.9104 1.44667L15.8958 3.18938C15.9005 3.28811 15.9371 3.38264 16.0003 3.45868C16.0634 3.53472 16.1496 3.58813 16.2458 3.61083C17.1354 3.69396 18.0104 3.77417 19.0021 3.92438C19.0181 3.92438 19.0487 3.91417 19.0487 3.89958V3.29292C19.0487 3.27979 19.0196 3.25208 19.0094 3.24917C18.3473 3.16604 17.4737 3.04938 16.6921 2.96771C16.6689 2.96208 16.6481 2.9491 16.6328 2.93071C16.6176 2.91231 16.6087 2.88948 16.6075 2.86563V1.68146C16.6075 1.63188 16.6804 1.60563 16.73 1.60854C17.5015 1.67271 18.27 1.81271 19.04 1.89583C19.0604 1.89875 19.0925 1.88563 19.094 1.86521L19.1085 1.30813C19.1076 1.29664 19.1029 1.28577 19.0953 1.27711C19.0877 1.26845 19.0775 1.26245 19.0662 1.26C18.2181 1.14025 17.3671 1.04105 16.5142 0.9625H16.5127ZM19.4002 1.30813C19.3827 1.30813 19.3681 1.32854 19.3681 1.34458C19.3594 1.74417 19.3025 3.46938 19.2908 3.92875V3.96813C19.5169 4.0075 19.7662 4.03813 19.9515 4.07604C19.9719 4.07896 20.0025 4.06438 20.0025 4.04396C19.9996 3.74208 20.0025 3.39063 19.9967 3.11646C19.9967 3.0975 20.0054 3.09604 20.0258 3.09896C20.5634 3.19631 21.0992 3.30327 21.6329 3.41979C21.6446 3.41979 21.7087 3.43 21.7087 3.46354C21.7044 3.78 21.6985 4.04688 21.6898 4.36333C21.6893 4.37597 21.6929 4.38843 21.7 4.39891C21.7071 4.40939 21.7173 4.41736 21.7292 4.42167C21.9406 4.46979 22.1419 4.51938 22.3417 4.5675C22.3956 4.57917 22.4044 4.56896 22.4058 4.55C22.4379 3.89229 22.4496 2.83792 22.4583 1.94833C22.4583 1.93667 22.454 1.91917 22.4437 1.91625C22.2206 1.86521 22.0106 1.81125 21.7831 1.76313C21.7627 1.75875 21.751 1.79229 21.7496 1.81417C21.7277 2.13938 21.7365 2.44125 21.7117 2.765C21.7117 2.77667 21.7117 2.7825 21.6985 2.77958C21.159 2.66875 20.5829 2.54917 20.0477 2.44854C20.0331 2.44563 20.039 2.41938 20.0404 2.40333L20.0448 1.45104C20.0441 1.44062 20.04 1.43072 20.0331 1.42283C20.0263 1.41494 20.0171 1.40948 20.0069 1.40729C19.8045 1.37239 19.6018 1.33933 19.3987 1.30813H19.4002ZM7.71021 1.34167C7.69224 1.34057 7.67422 1.34057 7.65625 1.34167C6.86437 1.46708 6.06812 1.63479 5.26458 1.80833C5.13572 1.84567 5.01966 1.91783 4.92917 2.01688C4.84463 2.09494 4.7917 2.20132 4.78042 2.31583L4.78625 3.94625C4.79241 4.08932 4.8469 4.22607 4.94083 4.33417C4.97284 4.38385 5.01691 4.42462 5.06894 4.45267C5.12096 4.48072 5.17923 4.49514 5.23833 4.49458C6.02867 4.32043 6.82267 4.16338 7.61979 4.02354C7.77289 3.9874 7.91007 3.90243 8.01062 3.78146C8.09659 3.69017 8.14725 3.57127 8.15354 3.44604L8.15062 1.75C8.14547 1.69335 8.12854 1.6384 8.10092 1.58868C8.07329 1.53896 8.03558 1.49555 7.99021 1.46125C7.91394 1.39086 7.81533 1.34955 7.71167 1.34458L7.71021 1.34167ZM10.8558 1.62896C10.8845 1.62733 10.9127 1.63691 10.9345 1.65568C10.9563 1.67446 10.9699 1.70096 10.9725 1.72958L10.9769 2.00521C10.9759 2.06288 10.955 2.11845 10.9178 2.16254C10.8806 2.20664 10.8294 2.23657 10.7727 2.24729L9.22396 2.39896L9.21083 2.38729V1.79375L9.22396 1.78792L10.8442 1.63042C10.8481 1.63021 10.8519 1.63021 10.8558 1.63042V1.62896ZM7.18083 2.05187C7.22081 2.05307 7.25988 2.06409 7.29458 2.08396C7.32033 2.10033 7.34122 2.12331 7.35507 2.15049C7.36892 2.17768 7.37523 2.20809 7.37333 2.23854L7.36021 3.26521C7.36154 3.2946 7.35574 3.32389 7.34329 3.35055C7.33085 3.37722 7.31214 3.40047 7.28875 3.41833C7.23627 3.45397 7.17647 3.47739 7.11375 3.48688C6.62987 3.58326 6.1452 3.67562 5.65979 3.76396C5.63789 3.76945 5.61505 3.77008 5.59288 3.76579C5.5707 3.76151 5.54974 3.75242 5.53146 3.73917C5.51471 3.71907 5.50219 3.69578 5.49468 3.67072C5.48716 3.64566 5.48479 3.61934 5.48771 3.59333V2.53458C5.48853 2.48174 5.50938 2.43118 5.54604 2.39313C5.59501 2.34811 5.65565 2.31779 5.72104 2.30562C6.14396 2.22687 6.69812 2.1175 7.13271 2.05479C7.14861 2.05223 7.16473 2.05125 7.18083 2.05187ZM22.9454 2.05187L22.944 2.05333C22.9323 2.05333 22.9323 2.07083 22.9323 2.08104C22.9119 2.96479 22.8885 3.78292 22.8812 4.66667C22.8812 4.68563 22.89 4.71042 22.9075 4.71479C23.9732 5.00132 25.0236 5.34204 26.0546 5.73563C26.1013 5.75167 26.0998 5.71667 26.0998 5.70354C26.1042 5.50229 26.1144 5.29813 26.1042 5.09688C26.1029 5.08634 26.0989 5.07633 26.0925 5.06787C26.086 5.05942 26.0775 5.05282 26.0677 5.04875C25.2752 4.74349 24.4671 4.48014 23.6469 4.25979C23.6389 4.25709 23.632 4.252 23.627 4.24522C23.6221 4.23843 23.6193 4.23028 23.6192 4.22188L23.6308 3.95937C23.6308 3.94771 23.6512 3.94479 23.6629 3.94771C24.485 4.17844 25.2974 4.44213 26.0983 4.73813C26.1129 4.7425 26.1129 4.72354 26.1129 4.71042C26.1233 4.48304 26.1233 4.2553 26.1129 4.02792C26.1124 4.01939 26.1094 4.01121 26.1042 4.00444C26.099 3.99767 26.0919 3.99264 26.0838 3.99C25.298 3.70395 24.5011 3.44951 23.695 3.22729C23.6833 3.22438 23.6688 3.21271 23.6688 3.20104V2.92104C23.6688 2.90938 23.6877 2.90208 23.6994 2.90646C24.5219 3.11646 25.426 3.43146 26.0546 3.66333C26.11 3.68375 26.1421 3.675 26.1421 3.62396C26.1421 3.395 26.1508 3.37896 26.1392 3.15146C26.1362 3.12229 26.1333 3.09313 26.1071 3.08292C25.0718 2.6832 24.0159 2.33903 22.944 2.05187H22.9454ZM4.03083 2.14521C3.98963 2.14483 3.94852 2.14923 3.90833 2.15833C2.96042 2.40042 2.00812 2.76208 1.05583 3.10917C1.04281 3.11717 1.03198 3.1283 1.02434 3.14154C1.01671 3.15478 1.01249 3.16972 1.01208 3.185V5.32292L1.01646 5.80417C1.01646 5.80417 1.70333 5.54604 1.85208 5.49792C1.87104 5.49208 1.87104 5.47313 1.87104 5.45271L1.85646 4.69438C1.85646 4.6725 1.85937 4.64042 1.87979 4.63604L4.24958 3.90396C4.3293 3.87499 4.39911 3.82389 4.45083 3.75667C4.50245 3.69231 4.52935 3.61162 4.52667 3.52917L4.50187 2.53313C4.49571 2.47546 4.47697 2.41986 4.44699 2.37022C4.417 2.32058 4.3765 2.27812 4.32833 2.24583C4.24137 2.18365 4.13771 2.1491 4.03083 2.14667V2.14521ZM3.61375 2.86854C3.66625 2.85396 3.71583 2.91375 3.71875 2.96042C3.73276 3.08141 3.73861 3.20322 3.73625 3.325C3.73479 3.39063 3.64 3.46646 3.57583 3.48542L1.84917 4.04833C1.83312 4.05417 1.80396 4.04833 1.80396 4.03083L1.80687 3.50875C1.80687 3.48396 1.83604 3.46354 1.85937 3.45625C2.43214 3.22613 3.01794 3.02988 3.61375 2.86854V2.86854ZM13.774 4.29917C14.7262 4.31375 15.591 4.34292 16.5448 4.4275C18.5517 4.59469 20.5425 4.91796 22.4992 5.39437C23.9189 5.75621 25.3128 6.21272 26.6715 6.76083C26.6785 6.76373 26.6853 6.76715 26.6919 6.77104C26.6879 6.98881 26.6845 7.20659 26.6817 7.42438H13.774V4.29917ZM13.3117 4.30208L13.3102 11.0367H9.0125C8.94979 11.0308 8.99062 11.0031 9.03437 10.9608C9.34224 10.7309 9.6991 10.5751 10.0771 10.5058C10.1092 10.5029 10.1179 10.4854 10.0727 10.4271C9.89851 10.2534 9.67889 10.1322 9.43903 10.0775C9.19916 10.0229 8.94874 10.0369 8.71646 10.1179C8.5077 10.1853 8.31714 10.2996 8.1594 10.452C8.00166 10.6044 7.88093 10.791 7.80646 10.9973C7.80344 11.0104 7.79598 11.0221 7.78535 11.0303C7.77472 11.0385 7.76157 11.0428 7.74812 11.0425C7.51994 11.0568 7.29133 11.0631 7.06271 11.0615C7.02625 11.0615 7.00875 11.0148 7.01167 10.9798C7.04159 10.8339 7.10151 10.6958 7.18762 10.5743C7.27373 10.4528 7.38415 10.3505 7.51187 10.274C7.73819 10.1249 7.99858 10.0356 8.26875 10.0144C8.27785 10.0116 8.28615 10.0067 8.29292 10.0001C8.29969 9.99342 8.30474 9.9852 8.30761 9.97614C8.31049 9.96709 8.3111 9.95747 8.30941 9.94812C8.30773 9.93877 8.30378 9.92998 8.29792 9.9225C8.2533 9.87052 8.20178 9.82489 8.14479 9.78687C7.92011 9.6657 7.66041 9.62602 7.40979 9.67458C7.05099 9.70938 6.71587 9.86929 6.46311 10.1263C6.21036 10.3833 6.05608 10.7211 6.02729 11.0804C6.01271 11.1679 6.03604 11.1883 5.95 11.2175C5.78667 11.2729 5.48042 11.3108 5.31708 11.3458C5.28792 11.3502 5.24417 11.2831 5.25146 11.254C5.31205 10.9769 5.43361 10.7169 5.60729 10.4927C5.73944 10.3155 5.90994 10.1704 6.10604 10.0683C6.14396 10.0494 6.17896 10.0042 6.14396 9.975C5.775 9.65417 5.01958 9.9925 4.71479 10.3265C4.427 10.7068 4.28475 11.1775 4.31375 11.6535C4.31375 11.6769 4.33417 11.7133 4.31375 11.7221C4.12255 11.8034 3.92792 11.8764 3.73042 11.9408C3.71292 11.9452 3.71 11.9 3.70708 11.8825C3.64872 11.5381 3.72552 11.1844 3.92146 10.8952C4.00708 10.7488 4.12982 10.6276 4.27729 10.5438C4.29187 10.535 4.28896 10.5175 4.27729 10.5029C4.10958 10.2856 3.4475 10.4417 3.24479 10.64C2.77813 11.095 2.81167 11.5369 2.78979 12.2398C2.78833 12.2733 2.74604 12.4017 2.70813 12.4192C2.62528 12.4685 2.53448 12.503 2.43979 12.5213C2.40917 12.53 2.40625 12.5417 2.39896 12.511C2.37377 12.429 2.33034 12.3537 2.27193 12.2909C2.21352 12.228 2.14164 12.1792 2.06167 12.148C1.98171 12.1169 1.89573 12.1042 1.81019 12.111C1.72464 12.1178 1.64175 12.1439 1.56771 12.1873C1.5052 12.2275 1.45204 12.2806 1.41184 12.3431C1.37164 12.4056 1.34533 12.4761 1.33468 12.5496C1.32404 12.6232 1.32931 12.6981 1.35014 12.7695C1.37096 12.8408 1.40687 12.9069 1.45542 12.9631C1.47729 12.9879 1.48458 13.0127 1.45104 13.0229C1.37305 13.0469 1.30064 13.0863 1.23806 13.1386C1.17549 13.191 1.12401 13.2554 1.08665 13.3279C1.04929 13.4004 1.0268 13.4797 1.02051 13.5611C1.01422 13.6424 1.02424 13.7242 1.05 13.8017C1.08508 13.8887 1.14441 13.9638 1.22093 14.0181C1.29745 14.0724 1.38795 14.1036 1.48167 14.1079C1.67359 14.1133 1.86234 14.0582 2.02125 13.9504C2.02795 13.9456 2.03553 13.9422 2.04356 13.9403C2.05158 13.9385 2.0599 13.9382 2.06802 13.9396C2.07615 13.9409 2.08393 13.9439 2.09091 13.9482C2.0979 13.9526 2.10396 13.9583 2.10875 13.965C2.18757 14.0915 2.31337 14.1816 2.45854 14.2155C2.60372 14.2494 2.75641 14.2244 2.88312 14.1458C3.11937 13.9898 3.22437 13.7477 3.04937 13.3306C3.03917 13.3073 3.07854 13.2635 3.09896 13.2519C4.49606 12.4477 6.07241 12.0065 7.68396 11.9685C7.91113 11.9882 8.13472 12.0377 8.34896 12.1158C8.3606 12.1183 8.37187 12.1222 8.3825 12.1275L8.38542 13.4998C8.37029 13.5137 8.35366 13.526 8.33583 13.5363C8.03658 13.7196 7.81303 14.0042 7.70583 14.3383C7.7 14.3631 7.69708 14.369 7.65479 14.3733C7.37333 14.401 7.07292 14.4419 6.79292 14.4638C6.77687 14.4667 6.74625 14.436 6.75208 14.42C6.95496 13.8775 7.32528 13.4138 7.80937 13.0958C7.82194 13.0832 7.83013 13.067 7.83276 13.0494C7.83538 13.0318 7.8323 13.0138 7.82396 12.9981C7.75545 12.9324 7.67101 12.8857 7.57896 12.8625C7.33544 12.844 7.09093 12.882 6.86453 12.9736C6.63812 13.0652 6.43594 13.2078 6.27375 13.3904C5.98311 13.7526 5.82283 14.2021 5.81875 14.6665C5.81729 14.6985 5.82312 14.751 5.79104 14.7613C5.61021 14.8181 5.41042 14.8692 5.22229 14.9217C5.20042 14.9275 5.17125 14.9056 5.16687 14.8823C5.11939 14.5896 5.1617 14.2894 5.28822 14.0213C5.41474 13.7532 5.61954 13.5296 5.87563 13.3802C5.95 13.3219 5.82021 13.2315 5.72687 13.2315C5.45379 13.2167 5.18232 13.2819 4.9458 13.4192C4.70927 13.5565 4.51798 13.7599 4.39542 14.0044C4.26075 14.3759 4.24546 14.7802 4.35167 15.1608C4.35604 15.1944 4.37937 15.2527 4.34292 15.2615C4.22771 15.2892 3.95646 15.3927 3.87187 15.419C3.84125 15.4292 3.82083 15.4146 3.80333 15.3752C3.73683 15.1438 3.72633 14.8998 3.77271 14.6635C3.83877 14.3942 3.97341 14.1465 4.16354 13.9446C4.17521 13.93 4.17958 13.8979 4.16354 13.8906C3.99022 13.8123 3.79442 13.7994 3.61229 13.8542C3.46362 13.8918 3.32469 13.9607 3.20474 14.0563C3.08479 14.1518 2.98658 14.2718 2.91667 14.4083C2.68479 14.8415 2.74458 15.2585 2.99104 15.874C3.00271 15.9031 3.01729 15.9585 2.99104 15.976L2.79125 16.0927C2.76646 16.1117 2.74458 16.0956 2.72708 16.0708C2.64688 15.9571 2.54625 15.7763 2.42083 15.7208C2.32203 15.6716 2.21165 15.6503 2.10163 15.6593C1.99162 15.6683 1.88616 15.7073 1.79667 15.7719C1.70914 15.848 1.64589 15.9481 1.61478 16.0599C1.58367 16.1716 1.58606 16.29 1.62167 16.4004C1.66244 16.4792 1.71132 16.5535 1.7675 16.6221C1.78208 16.6425 1.76604 16.6746 1.74854 16.6906C1.6625 16.7665 1.54437 16.8219 1.47437 16.8948C1.39849 16.9925 1.3561 17.1121 1.35348 17.2358C1.35085 17.3595 1.38813 17.4808 1.45979 17.5817C1.53104 17.6835 1.63566 17.7571 1.75552 17.7899C1.87538 17.8226 2.00292 17.8124 2.11604 17.761C2.23343 17.7109 2.34657 17.6515 2.45437 17.5831C2.49375 17.5569 2.52 17.5088 2.55646 17.5467C2.64484 17.6473 2.7572 17.7241 2.88312 17.7698C2.97058 17.7931 3.06207 17.7972 3.15123 17.7815C3.24038 17.7659 3.32507 17.7311 3.39937 17.6794C3.48961 17.6366 3.56284 17.5648 3.60728 17.4754C3.65172 17.386 3.66479 17.2842 3.64437 17.1865C3.59849 17.044 3.5279 16.9107 3.43583 16.7927C3.38771 16.7417 3.38479 16.7446 3.43583 16.714C4.19674 16.2647 5.00971 15.9101 5.85667 15.6581C6.65504 15.418 7.48853 15.3159 8.32125 15.3562H8.38833L8.39271 18.1985H0.815208C0.736458 15.0879 0.646041 10.1631 0.587708 6.77104C0.59427 6.76717 0.601091 6.76376 0.608125 6.76083C1.96635 6.21277 3.35974 5.75626 4.77896 5.39437C6.73611 4.91788 8.72741 4.59461 10.7348 4.4275C11.5923 4.35316 12.4524 4.31133 13.3131 4.30208H13.3117ZM8.80833 5.49208C8.44507 5.50051 8.09282 5.61843 7.79771 5.83042C7.38062 6.10458 7.13271 6.95771 7.08313 7.2625C7.08058 7.27647 7.07348 7.28921 7.06292 7.29871C7.05236 7.30821 7.03895 7.31394 7.02479 7.315C6.69297 7.35687 6.36381 7.41773 6.03896 7.49729C6.02875 7.49875 6.02146 7.48271 6.02146 7.4725C6.04671 7.15159 6.17924 6.84851 6.39771 6.61208C6.61948 6.39832 6.86011 6.20503 7.11667 6.03458C7.13562 6.01854 7.1225 5.96896 7.09917 5.96021C6.91389 5.88616 6.71577 5.84958 6.51627 5.85258C6.31676 5.85558 6.11984 5.89811 5.93687 5.97771C5.6787 6.08719 5.45277 6.26079 5.2805 6.48206C5.10822 6.70334 4.99532 6.96495 4.9525 7.24208C4.91852 7.43948 4.90436 7.63978 4.91021 7.84C4.91312 7.86479 4.86646 7.86625 4.84458 7.87354C4.48583 7.98583 4.10958 8.11708 3.80917 8.21771C3.79458 8.22354 3.75229 8.22063 3.75229 8.20312C3.74105 7.86649 3.82986 7.53408 4.0075 7.24792C4.1825 6.96354 4.50771 6.80313 4.74396 6.56396C4.76 6.54646 4.78479 6.49979 4.76 6.48958C4.16208 6.24896 3.59771 6.49542 3.12083 7.03646C2.95937 7.27366 2.84991 7.54233 2.79964 7.82484C2.74937 8.10734 2.75943 8.39729 2.82917 8.67562C2.84229 8.72812 2.82917 8.785 2.80146 8.79667C2.69274 8.84753 2.58067 8.89089 2.46604 8.92646C2.46096 8.92824 2.45556 8.92887 2.45021 8.92831C2.44486 8.92775 2.4397 8.92602 2.4351 8.92323C2.4305 8.92044 2.42657 8.91667 2.4236 8.91218C2.42063 8.9077 2.41869 8.90261 2.41792 8.89729C2.28229 8.46563 1.77625 8.55021 1.54729 8.68146C1.42629 8.74957 1.33709 8.86272 1.29912 8.99629C1.26116 9.12985 1.2775 9.27301 1.34458 9.39458C1.34802 9.3997 1.35037 9.40546 1.3515 9.41152C1.35263 9.41758 1.35251 9.4238 1.35114 9.42981C1.34978 9.43582 1.3472 9.44149 1.34356 9.44647C1.33992 9.45144 1.33531 9.45562 1.33 9.45875C1.25281 9.49564 1.18373 9.54752 1.1268 9.61138C1.06986 9.67523 1.02621 9.74979 0.998385 9.83069C0.970558 9.91159 0.959115 9.99722 0.964722 10.0826C0.970329 10.168 0.992873 10.2514 1.03104 10.3279C1.09548 10.4287 1.19312 10.5039 1.30709 10.5404C1.42106 10.5769 1.54419 10.5724 1.65521 10.5277C1.78163 10.479 1.90201 10.4159 2.01396 10.3396C2.021 10.3361 2.02893 10.3348 2.03673 10.3358C2.04452 10.3368 2.05183 10.3402 2.05771 10.3454C2.10281 10.4091 2.16045 10.4629 2.22709 10.5036C2.29373 10.5442 2.36797 10.5708 2.44526 10.5817C2.52255 10.5927 2.60125 10.5877 2.67654 10.5671C2.75184 10.5465 2.82213 10.5108 2.88312 10.4621C3.05083 10.3425 3.11646 10.3221 3.18062 10.1062C3.19017 10.0282 3.18344 9.94905 3.16085 9.87375C3.13826 9.79844 3.1003 9.72864 3.04937 9.66875C3.03187 9.65417 3.04792 9.61042 3.06833 9.60021C4.96391 8.62371 7.05585 8.08876 9.1875 8.03542C9.96133 8.05834 10.7046 8.34259 11.2962 8.84188C11.3063 8.85641 11.3199 8.86817 11.3357 8.87608C11.3515 8.88398 11.369 8.88776 11.3867 8.88708C11.4047 8.87957 11.4209 8.86844 11.4345 8.8544C11.448 8.84035 11.4586 8.82368 11.4654 8.80542C11.5149 8.62937 11.5132 8.44288 11.4605 8.26777C11.4078 8.09267 11.3063 7.93619 11.1679 7.81667C10.9265 7.56492 10.616 7.39034 10.2754 7.315C10.2579 7.31063 10.2462 7.27271 10.2608 7.26104C10.3995 7.12119 10.5659 7.0119 10.7494 6.94021C11.0409 6.89102 11.336 6.86662 11.6317 6.86729C11.6521 6.86583 11.6827 6.84542 11.6754 6.82646C11.6176 6.6652 11.5142 6.52422 11.3778 6.42066C11.2413 6.31709 11.0777 6.25541 10.9069 6.24313C10.563 6.20024 10.214 6.25061 9.89625 6.38896C9.56808 6.56643 9.31071 6.85109 9.16708 7.19542C9.16276 7.20412 9.15612 7.21146 9.14788 7.2166C9.13964 7.22175 9.13013 7.22452 9.12042 7.22458C8.83179 7.21412 8.54296 7.21071 8.25417 7.21438C8.23375 7.21438 8.20312 7.21438 8.20312 7.19396C8.24534 6.90998 8.37538 6.64634 8.575 6.44C8.86505 6.1886 9.20212 5.99726 9.56667 5.87708C9.59437 5.86833 9.625 5.82458 9.60896 5.80271C9.5328 5.69752 9.4322 5.61244 9.31583 5.55479C9.15083 5.51102 8.98045 5.49089 8.80979 5.495L8.80833 5.49208ZM13.774 7.83563H26.6729C26.6554 8.83604 26.6365 9.92542 26.6146 11.0367H13.774V7.83563ZM8.79958 11.3765L18.5208 11.3808C18.5266 11.3804 18.5323 11.3821 18.5369 11.3856C18.5414 11.3891 18.5446 11.3941 18.5456 11.3998L18.5427 18.8927C18.5354 19.2731 18.4649 19.6496 18.3342 20.0069C17.9471 21.0636 17.2047 21.9529 16.2342 22.5225C15.4665 22.9813 14.5909 23.2284 13.6967 23.2385C12.4842 23.2238 11.3164 22.7794 10.4008 21.9844C9.90617 21.5714 9.50622 21.0568 9.22816 20.4755C8.95009 19.8942 8.80044 19.2599 8.78937 18.6156L8.77917 11.4042C8.77917 11.3852 8.78062 11.3765 8.79958 11.3765ZM18.9992 11.5019H26.6073C26.5898 12.4425 26.5708 13.3919 26.5577 14.3106H18.9992V12.1304V11.5019ZM9.02562 11.6054C9.00667 11.6054 9.00521 11.6127 9.00521 11.6317L9.01542 18.5631C9.02472 19.1824 9.16674 19.7925 9.4319 20.3523C9.69706 20.912 10.0792 21.4084 10.5525 21.8079C11.4222 22.5708 12.5355 22.9984 13.6923 23.014C14.5463 23.004 15.3821 22.7658 16.1131 22.3242C17.0414 21.7738 17.7497 20.9181 18.1169 19.9033C18.2413 19.5598 18.3084 19.1982 18.3152 18.8329L18.3181 11.6287C18.3179 11.6259 18.3172 11.6231 18.3159 11.6205C18.3146 11.6179 18.3129 11.6156 18.3107 11.6137C18.3085 11.6118 18.306 11.6103 18.3033 11.6094C18.3005 11.6085 18.2977 11.6081 18.2948 11.6083L9.02562 11.6054ZM15.4948 12.0488C15.4953 12.0487 15.4958 12.0487 15.4962 12.0488C15.5247 12.053 15.5516 12.0649 15.5739 12.0831C15.5962 12.1013 15.6132 12.1252 15.6231 12.1523L15.976 13.195C15.9832 13.2112 15.9865 13.2288 15.9858 13.2466C15.985 13.2643 15.9802 13.2816 15.9717 13.2971C15.9622 13.3086 15.9501 13.3178 15.9364 13.3239C15.9228 13.33 15.9079 13.3328 15.8929 13.3321C15.8728 13.3325 15.853 13.3266 15.8365 13.315C15.82 13.3035 15.8075 13.287 15.801 13.2679L15.7456 13.0856H15.2644L15.2119 13.2723C15.1973 13.3306 15.1535 13.3365 15.1083 13.3365C15.0953 13.3346 15.0829 13.33 15.0718 13.323C15.0608 13.316 15.0513 13.3066 15.0442 13.2956C15.0358 13.2851 15.0301 13.2727 15.0275 13.2595C15.025 13.2463 15.0257 13.2327 15.0296 13.2198L15.3679 12.1581C15.3754 12.1292 15.3916 12.1032 15.4143 12.0836C15.437 12.0641 15.465 12.0519 15.4948 12.0488V12.0488ZM14.3821 12.059C14.3933 12.0584 14.4044 12.0584 14.4156 12.059C14.49 12.054 14.5639 12.0738 14.6259 12.1152C14.6878 12.1566 14.7344 12.2173 14.7583 12.2879C14.7612 12.2965 14.7624 12.3056 14.7617 12.3147C14.761 12.3238 14.7584 12.3326 14.7542 12.3406C14.7499 12.3487 14.7441 12.3558 14.7371 12.3615C14.73 12.3672 14.7219 12.3715 14.7131 12.374C14.6956 12.3831 14.6753 12.3851 14.6563 12.3797C14.6373 12.3743 14.6211 12.3618 14.611 12.3448C14.5926 12.3085 14.5653 12.2774 14.5316 12.2545C14.498 12.2315 14.4591 12.2175 14.4185 12.2135C14.3755 12.2162 14.3341 12.2314 14.2997 12.2573C14.2652 12.2833 14.2391 12.3187 14.2246 12.3594C14.1731 12.4596 14.1456 12.5704 14.1444 12.6831C14.1415 12.7976 14.1645 12.9112 14.2115 13.0156C14.2287 13.0607 14.2597 13.0993 14.2999 13.126C14.3402 13.1526 14.3878 13.1661 14.436 13.1644C14.511 13.1422 14.576 13.0948 14.6201 13.0302C14.6642 12.9657 14.6847 12.8879 14.6781 12.81V12.7531H14.4812C14.4693 12.7536 14.4574 12.7515 14.4464 12.747C14.4353 12.7425 14.4254 12.7356 14.4172 12.7269C14.409 12.7182 14.4028 12.7078 14.399 12.6965C14.3952 12.6851 14.3939 12.6731 14.3952 12.6613C14.3952 12.6277 14.4054 12.5883 14.4812 12.5883H14.7612C14.8546 12.5883 14.8677 12.6583 14.8677 12.7196C14.8695 12.7938 14.8641 12.868 14.8517 12.9412C14.8227 13.0786 14.745 13.2008 14.6329 13.2854C14.5668 13.3252 14.4913 13.3468 14.4142 13.3481C14.3448 13.347 14.2772 13.3266 14.2187 13.2892C14.1603 13.2519 14.1133 13.1991 14.0831 13.1367C14.0088 12.9979 13.972 12.842 13.9767 12.6846C13.9738 12.5289 14.0142 12.3754 14.0933 12.2413C14.1202 12.1874 14.1614 12.1419 14.2123 12.1098C14.2632 12.0777 14.3219 12.0601 14.3821 12.059V12.059ZM10.0246 12.0619C10.0265 12.0619 10.0285 12.0619 10.0304 12.0619C10.2973 12.0648 10.3848 12.2237 10.3848 12.2806C10.3848 12.3317 10.2958 12.3973 10.2462 12.3375C10.2178 12.3051 10.1825 12.2793 10.1429 12.2622C10.1033 12.2451 10.0604 12.2369 10.0173 12.2383C9.97037 12.2335 9.92319 12.2447 9.88346 12.2701C9.84373 12.2956 9.8138 12.3337 9.79854 12.3783C9.79414 12.4003 9.79422 12.4229 9.79879 12.4449C9.80336 12.4668 9.81231 12.4876 9.82512 12.506C9.83792 12.5244 9.85431 12.54 9.8733 12.5519C9.89229 12.5638 9.91349 12.5717 9.93562 12.5752C10.0727 12.5835 10.206 12.6235 10.325 12.6919H10.3235C10.364 12.7219 10.3962 12.7618 10.4168 12.8077C10.4375 12.8537 10.4461 12.9042 10.4417 12.9544C10.4439 13.049 10.4088 13.1407 10.344 13.2096C10.296 13.2547 10.2393 13.2893 10.1773 13.3114C10.1153 13.3335 10.0494 13.3425 9.98375 13.3379C9.9075 13.3407 9.83188 13.3233 9.76453 13.2874C9.69718 13.2516 9.64049 13.1985 9.60021 13.1337C9.59437 13.1192 9.58562 13.0419 9.64979 13.02C9.67129 13.015 9.69375 13.0158 9.7148 13.0225C9.73585 13.0292 9.75471 13.0414 9.76937 13.0579C9.83157 13.1151 9.91241 13.1478 9.99687 13.1498C10.0753 13.1523 10.1519 13.1264 10.2127 13.0769C10.2349 13.0555 10.2501 13.0279 10.2563 12.9977C10.2626 12.9675 10.2596 12.9362 10.2477 12.9077C10.2172 12.8615 10.1752 12.8241 10.1259 12.799C10.0765 12.774 10.0215 12.7622 9.96625 12.7648C9.87263 12.7642 9.78282 12.7277 9.71542 12.6627C9.67913 12.6251 9.65136 12.5801 9.634 12.5307C9.61664 12.4814 9.61009 12.4289 9.61479 12.3769C9.61954 12.3288 9.63513 12.2824 9.66039 12.2413C9.68565 12.2001 9.71992 12.1652 9.76062 12.1392C9.83877 12.0873 9.9308 12.0604 10.0246 12.0619V12.0619ZM12.4294 12.0619C12.4299 12.0619 12.4303 12.0619 12.4308 12.0619C12.4337 12.0617 12.4367 12.0617 12.4396 12.0619H12.9573C12.9805 12.0619 13.0028 12.0711 13.0192 12.0875C13.0356 12.1039 13.0448 12.1262 13.0448 12.1494C13.0448 12.1726 13.0356 12.1948 13.0192 12.2112C13.0028 12.2277 12.9805 12.2369 12.9573 12.2369L12.791 12.2398V13.2344C12.7882 13.2566 12.7774 13.277 12.7606 13.2918C12.7439 13.3065 12.7223 13.3147 12.6999 13.3147C12.6775 13.3147 12.6559 13.3065 12.6391 13.2918C12.6224 13.277 12.6116 13.2566 12.6087 13.2344V12.2383H12.4396C12.4164 12.2397 12.3936 12.2318 12.3762 12.2163C12.3588 12.2009 12.3483 12.1791 12.347 12.1559C12.3456 12.1327 12.3535 12.1099 12.369 12.0926C12.3844 12.0752 12.4062 12.0647 12.4294 12.0633V12.0619ZM13.246 12.0619C13.2465 12.0619 13.247 12.0619 13.2475 12.0619C13.2504 12.0617 13.2533 12.0617 13.2562 12.0619H13.7725C13.7957 12.0619 13.818 12.0711 13.8344 12.0875C13.8508 12.1039 13.86 12.1262 13.86 12.1494C13.86 12.1726 13.8508 12.1948 13.8344 12.2112C13.818 12.2277 13.7957 12.2369 13.7725 12.2369L13.6062 12.2398V13.2344C13.6034 13.2566 13.5926 13.277 13.5758 13.2918C13.5591 13.3065 13.5375 13.3147 13.5151 13.3147C13.4927 13.3147 13.4711 13.3065 13.4544 13.2918C13.4376 13.277 13.4268 13.2566 13.424 13.2344V12.2383H13.2562C13.233 12.2397 13.2102 12.2318 13.1929 12.2163C13.1755 12.2009 13.165 12.1791 13.1636 12.1559C13.1623 12.1327 13.1702 12.1099 13.1857 12.0926C13.2011 12.0752 13.2228 12.0647 13.246 12.0633V12.0619ZM17.2419 12.0619C17.2428 12.0619 17.2438 12.0619 17.2448 12.0619C17.2477 12.0617 17.2506 12.0617 17.2535 12.0619H17.7683C17.7915 12.0619 17.8138 12.0711 17.8302 12.0875C17.8466 12.1039 17.8558 12.1262 17.8558 12.1494C17.8558 12.1726 17.8466 12.1948 17.8302 12.2112C17.8138 12.2277 17.7915 12.2369 17.7683 12.2369L17.605 12.2398V13.2344C17.6022 13.2566 17.5914 13.277 17.5746 13.2918C17.5578 13.3065 17.5362 13.3147 17.5139 13.3147C17.4915 13.3147 17.4699 13.3065 17.4531 13.2918C17.4363 13.277 17.4255 13.2566 17.4227 13.2344V12.2383H17.2535C17.2303 12.2397 17.2075 12.2318 17.1902 12.2163C17.1728 12.2009 17.1623 12.1791 17.1609 12.1559C17.1596 12.1327 17.1675 12.1099 17.183 12.0926C17.1984 12.0752 17.2201 12.0647 17.2433 12.0633L17.2419 12.0619ZM16.2546 12.0677C16.2604 12.0672 16.2663 12.0672 16.2721 12.0677H16.5492C16.6565 12.0646 16.7623 12.0941 16.8525 12.1523C16.8989 12.188 16.937 12.2334 16.9642 12.2852C16.9914 12.3371 17.007 12.3942 17.01 12.4527C17.0164 12.5056 17.0103 12.5592 16.9923 12.6093C16.9744 12.6594 16.945 12.7047 16.9065 12.7415C16.8588 12.7906 16.8004 12.828 16.7358 12.8508L16.7067 12.861L16.9371 13.1527C16.9578 13.175 16.9697 13.204 16.9706 13.2344C16.9677 13.281 16.9371 13.3073 16.8831 13.3073C16.8673 13.3079 16.8516 13.3047 16.8374 13.2978C16.8231 13.291 16.8108 13.2807 16.8015 13.2679L16.5287 12.8917H16.3581V13.2271C16.3599 13.2398 16.3588 13.2528 16.3549 13.2651C16.351 13.2773 16.3444 13.2886 16.3356 13.2979C16.3268 13.3073 16.316 13.3146 16.304 13.3192C16.292 13.3239 16.2791 13.3258 16.2662 13.3248C16.2536 13.3253 16.241 13.3231 16.2293 13.3182C16.2176 13.3134 16.2071 13.3061 16.1985 13.2968C16.1899 13.2875 16.1834 13.2765 16.1795 13.2644C16.1756 13.2524 16.1743 13.2397 16.1758 13.2271V12.1683C16.1743 12.142 16.1826 12.116 16.1992 12.0954C16.2139 12.08 16.2335 12.0702 16.2546 12.0677V12.0677ZM10.6108 12.0706C10.6123 12.0706 10.6137 12.0706 10.6152 12.0706H11.1358C11.1592 12.0706 11.1817 12.0799 11.1982 12.0965C11.2148 12.113 11.2241 12.1355 11.2241 12.1589C11.2241 12.1823 11.2148 12.2047 11.1982 12.2212C11.1817 12.2378 11.1592 12.2471 11.1358 12.2471H10.9667V13.2446C10.9639 13.2668 10.953 13.2872 10.9363 13.302C10.9195 13.3167 10.8979 13.3249 10.8755 13.3249C10.8532 13.3249 10.8316 13.3167 10.8148 13.302C10.798 13.2872 10.7872 13.2668 10.7844 13.2446V12.2471H10.6152C10.592 12.2477 10.5695 12.239 10.5527 12.223C10.5359 12.207 10.5261 12.185 10.5255 12.1618C10.5249 12.1386 10.5336 12.1161 10.5496 12.0993C10.5656 12.0824 10.5876 12.0727 10.6108 12.0721V12.0706ZM11.461 12.0706C11.462 12.0706 11.463 12.0706 11.464 12.0706C11.4764 12.0702 11.4888 12.0724 11.5004 12.0769C11.5119 12.0814 11.5225 12.0883 11.5313 12.097C11.5402 12.1057 11.5472 12.1161 11.5519 12.1277C11.5566 12.1392 11.559 12.1515 11.5587 12.164V12.8508C11.5537 12.928 11.5725 13.0049 11.6127 13.071C11.6344 13.099 11.6627 13.121 11.695 13.1353C11.7273 13.1495 11.7627 13.1555 11.7979 13.1527C11.8328 13.1561 11.8679 13.1504 11.8999 13.1361C11.9319 13.1218 11.9596 13.0993 11.9802 13.071C12.0185 13.0048 12.0363 12.9287 12.0312 12.8523V12.1625H12.0327C12.0355 12.1403 12.0463 12.1199 12.0631 12.1051C12.0799 12.0903 12.1015 12.0822 12.1239 12.0822C12.1462 12.0822 12.1678 12.0903 12.1846 12.1051C12.2014 12.1199 12.2122 12.1403 12.215 12.1625V12.7925C12.2251 12.9251 12.1967 13.0577 12.1333 13.1746C12.0962 13.2269 12.0458 13.2685 11.9875 13.2951C11.9291 13.3217 11.8647 13.3325 11.8008 13.3263C11.7366 13.3315 11.6722 13.3204 11.6135 13.2939C11.5548 13.2673 11.5038 13.2263 11.4654 13.1746C11.398 13.0591 11.367 12.9259 11.3765 12.7925V12.1625C11.3764 12.1393 11.3851 12.117 11.4007 12.1C11.4164 12.0829 11.438 12.0725 11.461 12.0706V12.0706ZM16.3523 12.2383V12.7167H16.5419C16.578 12.7207 16.6146 12.7172 16.6492 12.7064C16.6839 12.6956 16.716 12.6777 16.7434 12.6538C16.7709 12.63 16.793 12.6007 16.8085 12.5678C16.824 12.535 16.8326 12.4992 16.8335 12.4629C16.8328 12.4327 16.8258 12.403 16.813 12.3757C16.8002 12.3483 16.7819 12.3239 16.7592 12.304C16.7335 12.281 16.7035 12.2634 16.671 12.2521C16.6384 12.2408 16.604 12.2361 16.5696 12.2383H16.3523ZM15.5006 12.2602L15.3023 12.9442H15.7077L15.5006 12.2602ZM13.8381 13.7258C13.8542 13.7258 13.8687 13.7288 13.8702 13.7419C13.8731 13.7681 13.8469 13.7842 13.809 13.8031C13.7524 13.8271 13.7046 13.8678 13.6719 13.9198C13.6314 13.9923 13.6118 14.0745 13.615 14.1575C13.6205 14.1824 13.6317 14.2058 13.6476 14.2257C13.6635 14.2457 13.6838 14.2618 13.7069 14.2727C13.7715 14.3031 13.8426 14.3172 13.914 14.3135C14.0241 14.3069 14.1312 14.2755 14.2275 14.2217C14.3574 14.1797 14.4954 14.1697 14.63 14.1925C14.7315 14.1935 14.8302 14.2256 14.9129 14.2844C14.9479 14.3092 14.9421 14.3398 14.929 14.3427C14.9085 14.35 14.8867 14.3252 14.8648 14.3281C14.7944 14.3352 14.725 14.3499 14.6577 14.3719C14.5702 14.4112 14.5308 14.4258 14.4885 14.5031C14.4716 14.536 14.468 14.5741 14.4783 14.6096C14.4929 14.6446 14.5294 14.6679 14.5367 14.6927C14.558 14.758 14.5895 14.8195 14.63 14.875C14.6435 14.8875 14.6582 14.8987 14.6737 14.9085C14.8189 15.0169 14.9563 15.1354 15.085 15.2629C15.1131 15.3039 15.133 15.3499 15.1433 15.3985C15.1477 15.416 15.1331 15.4423 15.1171 15.435C15.0983 15.4225 15.0808 15.4084 15.0646 15.3927C15.0426 15.3691 15.0164 15.3498 14.9873 15.3358C14.906 15.3029 14.8179 15.2904 14.7306 15.2994C14.6912 15.2994 14.6125 15.3344 14.6577 15.3519C14.735 15.3913 14.8011 15.4495 14.8502 15.521C14.9599 15.6452 15.016 15.8077 15.0062 15.9731C15.0062 15.9819 14.9887 15.9877 14.9844 15.9819C14.9465 15.9191 14.8958 15.8649 14.8356 15.8229C14.7471 15.7582 14.6389 15.7262 14.5294 15.7325C14.5075 15.734 14.4419 15.7325 14.4492 15.7529C14.5177 15.8398 14.5778 15.9331 14.6285 16.0315C14.681 16.1587 14.7006 16.2971 14.6854 16.434C14.684 16.4412 14.6562 16.4485 14.6519 16.4412C14.6178 16.4011 14.5802 16.364 14.5396 16.3304C14.4989 16.2941 14.4526 16.2645 14.4025 16.2429C14.3017 16.2197 14.1958 16.2342 14.105 16.2838C14.0245 16.3282 13.9586 16.3951 13.9154 16.4763C13.8637 16.5681 13.8328 16.6701 13.825 16.7752C13.8089 16.9034 13.8302 17.0336 13.8862 17.15C13.9477 17.2597 14.0458 17.3444 14.1633 17.3892C14.3206 17.4392 14.4855 17.461 14.6504 17.4533C14.8531 17.4606 15.0558 17.43 15.2585 17.4242C15.4507 17.406 15.6442 17.4074 15.836 17.4285C15.9914 17.4594 16.1398 17.5187 16.2735 17.6035C16.3827 17.6868 16.4874 17.7759 16.5871 17.8704C16.5987 17.8792 16.625 17.866 16.6381 17.8573C16.7339 17.7653 16.8004 17.6471 16.8292 17.5175C16.8481 17.3919 16.8189 17.2638 16.7475 17.1588C16.679 17.0348 16.5783 16.8963 16.4996 16.765C16.3928 16.6272 16.2944 16.483 16.205 16.3333C16.1566 16.2328 16.1478 16.1178 16.1802 16.011C16.208 15.932 16.2634 15.8657 16.3362 15.8244C16.3523 15.8142 16.3683 15.8331 16.361 15.855C16.3402 15.9069 16.3361 15.964 16.3494 16.0183C16.3739 16.0966 16.4187 16.167 16.4792 16.2225C16.4981 16.2371 16.5477 16.2152 16.5594 16.1919C16.5856 16.1292 16.5696 16.0315 16.5929 15.9673C16.6224 15.8478 16.676 15.7357 16.7504 15.6377C16.9112 15.5184 17.0879 15.4222 17.2754 15.3519C17.3235 15.3242 17.3542 15.1988 17.4081 15.2192C17.4621 15.2381 17.4329 15.365 17.3921 15.4263C17.3337 15.5167 17.2652 15.5721 17.201 15.6538C17.1134 15.7663 17.0368 15.8869 16.9721 16.014C16.9368 16.0742 16.922 16.1443 16.9298 16.2138C16.9364 16.243 16.9493 16.2705 16.9677 16.2942C16.9861 16.3179 17.0095 16.3372 17.0362 16.3508C17.0683 16.3654 17.1092 16.3362 17.1383 16.3144C17.1944 16.2735 17.2423 16.2225 17.2798 16.1642C17.3133 16.1088 17.2944 16.0344 17.3265 15.9775C17.3352 15.9644 17.3702 15.9673 17.3804 15.9775C17.4155 16.0096 17.4382 16.0529 17.4446 16.1C17.4477 16.1553 17.4428 16.2109 17.43 16.2648C17.4256 16.2765 17.395 16.3042 17.3848 16.3304C17.3769 16.3507 17.3671 16.3702 17.3556 16.3888C17.3031 16.4806 17.2419 16.5579 17.1733 16.5725C17.1587 16.574 17.1485 16.6031 17.1587 16.6163C17.1985 16.692 17.2549 16.7578 17.3235 16.8088C17.3577 16.8257 17.3949 16.8357 17.4329 16.8382C17.471 16.8407 17.5091 16.8357 17.5452 16.8233C17.5846 16.8117 17.6152 16.784 17.6604 16.7694C17.6794 16.7635 17.6677 16.7752 17.6677 16.7942C17.6673 16.8369 17.6599 16.8792 17.6458 16.9196C17.6223 16.97 17.5842 17.0122 17.5365 17.0406C17.4622 17.0826 17.3795 17.1075 17.2944 17.1135C17.255 17.1208 17.1952 17.15 17.2098 17.1879C17.2223 17.2327 17.2431 17.2747 17.271 17.3119C17.3014 17.3448 17.343 17.3652 17.3877 17.3687C17.4526 17.3715 17.5165 17.3531 17.57 17.3162C17.6283 17.2783 17.659 17.2083 17.71 17.1588C17.7202 17.15 17.7479 17.1588 17.7479 17.1733C17.7459 17.2537 17.7254 17.3325 17.6881 17.4038C17.6393 17.4821 17.5759 17.5504 17.5015 17.605C17.4796 17.624 17.4533 17.6473 17.4533 17.6765C17.4646 17.7218 17.4866 17.7639 17.5175 17.799C17.5463 17.8397 17.5896 17.8679 17.6385 17.8777C17.6867 17.8868 17.7362 17.8868 17.7844 17.8777C17.8033 17.8777 17.799 17.9112 17.7829 17.9229C17.7361 17.9709 17.6771 18.0051 17.6123 18.0221C17.5521 18.0421 17.4878 18.0462 17.4256 18.0338C17.3075 18.0046 17.2302 17.9608 17.1135 17.9273C17.0507 17.9033 16.9821 17.8987 16.9167 17.9142C16.8541 17.938 16.8002 17.9802 16.7621 18.0352C16.7393 18.0618 16.7242 18.0941 16.7183 18.1285C16.7096 18.2204 16.7548 18.3181 16.7256 18.4085C16.6963 18.5255 16.6568 18.6397 16.6075 18.7498C16.5578 18.8342 16.5018 18.9146 16.4398 18.9904C16.3815 19.0692 16.3042 19.0983 16.2648 19.1844C16.2481 19.216 16.2296 19.2467 16.2094 19.2763C16.1557 19.3795 16.1267 19.4938 16.1248 19.6102C16.1397 19.7207 16.1823 19.8255 16.2487 19.915L16.4719 20.2606C16.4877 20.2989 16.4922 20.3409 16.485 20.3817C16.4835 20.4026 16.4768 20.4229 16.4657 20.4407C16.4545 20.4585 16.4391 20.4733 16.4208 20.4837C16.1247 20.6504 15.9054 20.9262 15.8098 21.2523L15.8069 21.2713V21.2771C15.8014 21.2995 15.7909 21.3205 15.7762 21.3383C15.7016 21.414 15.6043 21.4631 15.4992 21.4783C15.419 21.5002 15.3387 21.5206 15.2585 21.5454C15.2324 21.5523 15.2096 21.5683 15.1944 21.5906C15.1807 21.6124 15.1745 21.638 15.1769 21.6636C15.1793 21.6892 15.19 21.7132 15.2075 21.7321C15.2317 21.7617 15.2469 21.7976 15.2512 21.8356C15.2525 21.8577 15.2458 21.8794 15.2323 21.8969C15.2205 21.9098 15.2067 21.9206 15.1915 21.929C15.0927 21.9853 14.9867 22.0279 14.8765 22.0558C14.8035 22.0719 14.751 22.0529 14.7744 21.9698C14.8148 21.8251 14.8625 21.6824 14.9173 21.5425C14.9652 21.4603 15.0316 21.3904 15.1112 21.3383C15.2096 21.2536 15.3129 21.1748 15.4204 21.1021C15.4907 21.0539 15.5498 20.9912 15.594 20.9183C15.6795 20.7801 15.772 20.6462 15.871 20.5173C15.8908 20.4906 15.9048 20.4601 15.9121 20.4277C15.9194 20.3953 15.9198 20.3617 15.9133 20.3292C15.9038 20.2706 15.8799 20.2153 15.8438 20.1682C15.8077 20.1211 15.7604 20.0837 15.7062 20.0594C15.6657 20.0411 15.6243 20.0245 15.5823 20.0098C15.4406 19.961 15.3161 19.8724 15.2235 19.7546C15.2134 19.739 15.2002 19.7258 15.1846 19.7157C15.169 19.7057 15.1515 19.699 15.1331 19.6962C15.0412 19.6992 15.015 19.8275 15.0121 19.8975C15.0047 20.0005 15.0066 20.104 15.0179 20.2067C15.0269 20.2409 15.0289 20.2766 15.0237 20.3117C15.0191 20.324 15.0114 20.3349 15.0015 20.3436C14.9916 20.3522 14.9797 20.3583 14.9669 20.3612C14.6775 20.4647 14.401 20.6013 14.1429 20.7681C14.1058 20.7958 14.0746 20.8304 14.051 20.8702L14.0262 20.9125C13.9939 20.9665 13.9438 21.0076 13.8845 21.0289C13.8252 21.0502 13.7604 21.0503 13.701 21.0292C13.6799 21.0229 13.6585 21.0175 13.6369 21.0131C13.6038 21.0098 13.5706 21.0186 13.5435 21.0379C13.5208 21.0519 13.5006 21.0697 13.4837 21.0904C13.4773 21.0987 13.4723 21.1081 13.4692 21.1181V21.1269C13.4689 21.1308 13.4689 21.1347 13.4692 21.1385C13.4701 21.147 13.472 21.1553 13.475 21.1633L13.5071 21.2508C13.5143 21.2634 13.5186 21.2774 13.5196 21.2918C13.5207 21.3063 13.5184 21.3207 13.5131 21.3342C13.5078 21.3476 13.4995 21.3597 13.4889 21.3695C13.4782 21.3793 13.4655 21.3866 13.4517 21.3908C13.3565 21.4293 13.2572 21.4562 13.1556 21.471C13.0973 21.4783 13.0462 21.4565 13.0608 21.3879C13.0818 21.2692 13.116 21.1533 13.1629 21.0423C13.1692 21.0223 13.1799 21.0041 13.1943 20.9889C13.2087 20.9737 13.2264 20.9621 13.246 20.9548C13.3424 20.8997 13.4304 20.8309 13.5071 20.7506C13.5739 20.6869 13.6613 20.6492 13.7535 20.6442C13.892 20.6321 14.0243 20.5816 14.1356 20.4983C14.2524 20.4173 14.3622 20.3266 14.4637 20.2271C14.5382 20.1307 14.5779 20.0119 14.5763 19.8901C14.5747 19.7683 14.532 19.6507 14.455 19.5562L14.4258 19.5052C14.3981 19.4615 14.3821 19.3988 14.3587 19.3535C14.3282 19.3081 14.3087 19.2562 14.3019 19.2019C14.3019 19.1027 14.3412 19.0079 14.3471 18.9088C14.3478 18.9009 14.346 18.8931 14.3417 18.8865C14.3375 18.8799 14.3312 18.8749 14.3237 18.8723C14.2596 18.8482 14.1923 18.8334 14.124 18.8285C13.8528 18.86 13.5791 18.8629 13.3073 18.8373C13.1055 18.7791 12.9137 18.6906 12.7385 18.5748C12.6612 18.5267 12.6146 18.4727 12.5358 18.4275C12.5154 18.4158 12.514 18.4202 12.495 18.4363C12.3016 18.5766 12.0635 18.6414 11.8256 18.6185H11.8227C11.6768 18.5935 11.5334 18.5559 11.394 18.5063C11.2875 18.4669 11.1169 18.3983 11.0148 18.4844C10.9725 18.5208 10.9827 18.5719 10.9827 18.62C10.9961 18.7683 10.9912 18.9177 10.9681 19.0648C10.9654 19.0724 10.9644 19.0805 10.9651 19.0886C10.9659 19.0967 10.9684 19.1045 10.9725 19.1115C10.9751 19.1146 10.9781 19.1176 10.9812 19.1202C10.9972 19.1325 11.0149 19.1424 11.0337 19.1494L11.0483 19.1552C11.0892 19.1698 11.0965 19.1888 11.1212 19.2398C11.1339 19.2684 11.1418 19.299 11.1446 19.3302C11.1491 19.3603 11.1476 19.3911 11.1402 19.4206C11.1365 19.4397 11.1322 19.4587 11.1271 19.4775C11.1088 19.5426 11.1129 19.6119 11.1387 19.6744C11.151 19.7057 11.1723 19.7326 11.2 19.7517C11.2047 19.754 11.2096 19.7559 11.2146 19.7575C11.2193 19.7594 11.2242 19.7608 11.2292 19.7619C11.234 19.7622 11.2389 19.7622 11.2437 19.7619H11.2583C11.2686 19.7594 11.2784 19.7555 11.2875 19.7502L11.2933 19.7473C11.3075 19.7351 11.3257 19.7289 11.3444 19.7298C11.3494 19.7307 11.3543 19.7322 11.359 19.7342C11.384 19.7396 11.4066 19.7531 11.4232 19.7726C11.4398 19.7921 11.4495 19.8165 11.4508 19.8421C11.4542 19.9533 11.4312 20.0637 11.3837 20.1644C11.3793 20.1747 11.3729 20.184 11.3648 20.1918C11.3567 20.1996 11.3472 20.2057 11.3368 20.2098C11.3263 20.2138 11.3152 20.2158 11.3039 20.2155C11.2927 20.2152 11.2817 20.2127 11.2715 20.2081L11.2452 20.1979C11.1661 20.1558 11.0966 20.0977 11.041 20.0273C10.9999 19.9822 10.9748 19.9248 10.9696 19.864C10.9713 19.8204 10.9568 19.7778 10.9287 19.7444C10.9149 19.7336 10.899 19.7256 10.8821 19.721C10.8422 19.7093 10.8066 19.6859 10.78 19.654C10.745 19.6094 10.72 19.5578 10.7069 19.5026C10.6938 19.4475 10.6929 19.3901 10.7042 19.3346C10.7494 19.0223 10.7265 18.7039 10.6371 18.4013C10.6183 18.3502 10.6194 18.294 10.64 18.2438L10.6633 18.181C10.6663 18.1731 10.6697 18.1653 10.6735 18.1577C10.6795 18.1458 10.6881 18.1354 10.6988 18.1273C10.7094 18.1192 10.7217 18.1136 10.7348 18.111C10.7487 18.1084 10.7629 18.1069 10.7771 18.1067C10.9997 18.1059 11.221 18.0715 11.4333 18.0046C11.4621 17.9935 11.4929 17.9885 11.5237 17.99C11.5592 17.9924 11.5947 17.9934 11.6302 17.9929C11.674 17.9929 11.7177 17.9535 11.6652 17.92C11.6214 17.8807 11.5805 17.8383 11.5427 17.7931C11.5354 17.7801 11.524 17.7699 11.5103 17.7641C11.4966 17.7583 11.4813 17.7572 11.4669 17.761C11.4618 17.7631 11.457 17.7655 11.4523 17.7683L11.4392 17.7756C11.4228 17.79 11.4034 17.8005 11.3824 17.8062C11.3614 17.8119 11.3394 17.8128 11.318 17.8087C11.2966 17.8046 11.2764 17.7957 11.259 17.7826C11.2416 17.7696 11.2274 17.7527 11.2175 17.7333C11.1622 17.6412 11.1196 17.5422 11.0906 17.4388C11.0661 17.312 11.0116 17.193 10.9317 17.0917C10.8951 17.0569 10.8513 17.0306 10.8034 17.0148C10.7555 16.9989 10.7047 16.9938 10.6546 16.9998C10.5752 17.0209 10.5071 17.0722 10.465 17.1427L10.3731 17.271C10.3498 17.2991 10.3342 17.3328 10.3279 17.3687C10.3273 17.3765 10.3273 17.3843 10.3279 17.3921C10.33 17.408 10.3339 17.4237 10.3396 17.4388C10.3555 17.4773 10.3586 17.52 10.3484 17.5605C10.3381 17.6009 10.3151 17.637 10.2827 17.6633L10.1456 17.7727C10.1329 17.7837 10.1225 17.7971 10.115 17.8121C10.1075 17.8271 10.103 17.8435 10.1019 17.8602C10.0977 17.8897 10.0919 17.9189 10.0844 17.9477C10.0791 17.9692 10.0776 17.9914 10.08 18.0133C10.0806 18.0192 10.0815 18.0251 10.0829 18.0308C10.0914 18.0546 10.1072 18.075 10.1281 18.0892C10.1348 18.0946 10.1411 18.1005 10.1471 18.1067C10.1541 18.1141 10.1599 18.1224 10.1646 18.1315C10.1729 18.1481 10.1757 18.167 10.1726 18.1854C10.1694 18.2037 10.1605 18.2206 10.1471 18.2335C10.1362 18.2446 10.1245 18.2548 10.1121 18.2642C10.0279 18.3299 9.93453 18.3829 9.835 18.4217C9.82282 18.4263 9.81006 18.4292 9.79708 18.4304C9.74167 18.4348 9.72417 18.3925 9.72125 18.3429C9.71687 18.2787 9.71688 18.2131 9.71688 18.1475C9.71894 18.0729 9.74855 18.0017 9.8 17.9477C9.87091 17.8533 9.9079 17.7377 9.905 17.6196C9.90132 17.5515 9.922 17.4843 9.96333 17.43C9.99853 17.3915 10.0267 17.347 10.0465 17.2988C10.0605 17.264 10.0797 17.2316 10.1033 17.2025C10.2513 17.0244 10.3882 16.8374 10.5131 16.6425C10.5919 16.5171 10.7392 16.3625 10.8587 16.536C10.8898 16.5827 10.9282 16.6241 10.9725 16.6585C11.0932 16.7462 11.2193 16.8261 11.3502 16.8977C11.4873 16.975 11.5092 16.8365 11.5325 16.7213V16.7169C11.5441 16.6696 11.5628 16.6244 11.5879 16.5827C11.6704 16.4506 11.7694 16.3296 11.8825 16.2225C11.9452 16.1671 12.0356 16.1117 12.1012 16.0577C12.1275 16.0344 12.1348 16.0315 12.145 15.9994C12.1581 15.9673 12.18 15.9265 12.1946 15.8856C12.2092 15.8462 12.2165 15.8054 12.2296 15.7748C12.2583 15.7308 12.28 15.6826 12.2937 15.6319V15.6275C12.294 15.6251 12.294 15.6226 12.2937 15.6202V15.61L12.2894 15.5998C12.2833 15.5851 12.2725 15.5728 12.2587 15.5648C12.2141 15.5376 12.1623 15.5244 12.11 15.5269H12.1056C12.0314 15.5275 11.958 15.5429 11.8898 15.5721C11.8547 15.5876 11.8266 15.6157 11.811 15.6508C11.7959 15.6847 11.7752 15.7157 11.7498 15.7427C11.7247 15.7671 11.6916 15.7815 11.6567 15.7831C11.6217 15.7847 11.5874 15.7735 11.5602 15.7515C11.5252 15.7281 11.5398 15.6888 11.5602 15.6596C11.579 15.6366 11.5961 15.6122 11.6112 15.5867C11.6174 15.5756 11.6199 15.5628 11.6185 15.5502V15.5444L11.6156 15.5371C11.6136 15.5339 11.6111 15.5309 11.6083 15.5283C11.5992 15.5211 11.5884 15.5163 11.5769 15.5145C11.5654 15.5127 11.5536 15.514 11.5427 15.5181C11.5018 15.5294 11.4614 15.5426 11.4217 15.5575C11.4084 15.5647 11.3937 15.5686 11.3786 15.5689C11.3636 15.5692 11.3487 15.5658 11.3352 15.5591C11.3217 15.5523 11.3101 15.5424 11.3013 15.5302C11.2925 15.518 11.2867 15.5039 11.2846 15.489C11.2789 15.4626 11.2774 15.4355 11.2802 15.4088C11.2811 15.392 11.2872 15.376 11.2977 15.3629C11.3081 15.3499 11.3224 15.3404 11.3385 15.3358C11.3677 15.3271 11.4115 15.311 11.4056 15.2746C11.404 15.2635 11.404 15.2522 11.4056 15.241C11.4083 15.228 11.4143 15.216 11.4231 15.206C11.4359 15.1919 11.4507 15.1796 11.4669 15.1696C11.6282 15.0639 11.7839 14.95 11.9335 14.8283C11.9448 14.8152 11.9604 14.8066 11.9775 14.8039C11.9946 14.8012 12.0121 14.8047 12.0269 14.8138L12.0415 14.8225C12.1092 14.8578 12.1871 14.8681 12.2617 14.8517C12.2748 14.8511 12.2875 14.8466 12.2981 14.8388C12.3088 14.831 12.3169 14.8203 12.3215 14.8079C12.3217 14.8055 12.3217 14.8031 12.3215 14.8006V14.7933L12.3185 14.7846L12.3142 14.7788C12.3005 14.7638 12.2828 14.7531 12.2631 14.7481L12.1785 14.7175C12.152 14.7081 12.1266 14.6959 12.1027 14.681C12.0881 14.6726 12.0766 14.6597 12.07 14.6442C12.0634 14.6286 12.0621 14.6114 12.0662 14.595C12.0998 14.4302 12.2806 14.4288 12.4177 14.4419H12.4235C12.4928 14.4408 12.5615 14.43 12.6277 14.4098C12.7152 14.3792 12.7823 14.3121 12.8654 14.2727C12.9485 14.2333 13.036 14.1896 13.1221 14.156C13.1483 14.1473 13.1702 14.1531 13.1935 14.1429C13.2132 14.135 13.2307 14.1225 13.2446 14.1065C13.3045 14.0197 13.374 13.94 13.4517 13.8688C13.5588 13.8065 13.6749 13.7613 13.7958 13.7346C13.8099 13.7296 13.8247 13.7266 13.8396 13.7258H13.8381ZM13.2183 14.5381C13.1649 14.5378 13.1123 14.5508 13.0652 14.576C13.0521 14.5833 13.0433 14.5994 13.0535 14.611C13.0798 14.6417 13.125 14.6548 13.1556 14.684C13.1766 14.703 13.1939 14.7258 13.2067 14.751C13.2198 14.7787 13.2417 14.8094 13.2548 14.8385C13.2797 14.8972 13.3016 14.9571 13.3204 15.0179C13.3536 15.1172 13.378 15.2192 13.3933 15.3227C13.4079 15.4058 13.4035 15.4933 13.4079 15.5779V15.696C13.4065 15.7296 13.4065 15.7646 13.4035 15.7981C13.3996 15.8457 13.3976 15.8933 13.3977 15.941V16.0577C13.4006 16.1598 13.4167 16.2327 13.4619 16.2327C13.5043 16.2335 13.5464 16.224 13.5844 16.205C13.6217 16.1826 13.6528 16.151 13.6744 16.1132C13.6961 16.0754 13.7078 16.0327 13.7083 15.9892C13.7469 15.7104 13.7454 15.4275 13.704 15.1492C13.697 15.047 13.6691 14.9474 13.622 14.8566C13.5748 14.7658 13.5094 14.6856 13.4298 14.6213C13.3723 14.5689 13.2976 14.5393 13.2198 14.5381H13.2183ZM18.9933 14.7729H26.5431C26.5183 15.976 26.4935 17.1063 26.4702 18.0731H18.989L18.9948 15.3577L18.9933 14.7729ZM18.9846 18.4829H26.4556C26.4096 19.9303 26.1416 21.3621 25.6608 22.7281C25.0882 24.3298 24.3244 25.8566 23.3858 27.2752C22.4066 28.7364 21.2203 30.0475 19.864 31.1675C19.3342 31.6161 18.7754 32.0292 18.1912 32.4042C17.2765 32.961 16.321 33.448 15.3329 33.861C15.0062 34.001 14.7233 34.1323 14.4637 34.2212C14.1823 34.316 13.9417 34.4035 13.7725 34.4487V34.281L13.7769 23.6425C13.9309 23.6382 14.0847 23.627 14.2377 23.609C14.245 23.6308 14.261 23.6921 14.2829 23.7548C14.3159 23.8155 14.3614 23.8686 14.4165 23.9103C14.4715 23.9521 14.5349 23.9816 14.6023 23.9969C14.6838 24.0134 14.7683 24.0077 14.8469 23.9802C14.9254 23.9527 14.9951 23.9046 15.0485 23.8408C15.1244 23.9083 15.2175 23.9532 15.3175 23.9704C15.4175 23.9877 15.5203 23.9767 15.6144 23.9385C15.6875 23.9192 15.7521 23.8763 15.7983 23.8164C15.8444 23.7566 15.8695 23.6831 15.8696 23.6075C15.8789 23.504 15.8624 23.3997 15.8215 23.3042L15.769 23.2079C16.1512 23.0485 16.515 22.848 16.854 22.61L16.8831 22.6013C17.4271 22.4642 19.6131 21.681 20.9533 21.6635C21.7801 21.6448 22.5976 21.8408 23.326 22.2323C23.6988 22.4501 24.0345 22.7257 24.3206 23.049C24.3294 23.0621 24.3396 23.0898 24.3746 23.0956C24.3851 23.0959 24.3955 23.0929 24.4043 23.0872C24.4132 23.0815 24.4201 23.0732 24.4242 23.0635C24.5203 22.825 24.5597 22.5674 24.5394 22.311C24.5102 21.8998 24.1019 21.6023 23.9808 21.4798C23.9765 21.4754 23.9663 21.4492 24.01 21.42C24.0568 21.3737 24.1081 21.3321 24.1631 21.296C24.3974 21.11 24.6839 21.0019 24.9827 20.9869C25.0265 20.9913 25.0119 20.9285 25.0002 20.876C24.9156 20.5115 24.395 20.2752 23.8481 20.3598C23.6663 20.3971 23.4937 20.47 23.3403 20.5744C23.1868 20.6788 23.0556 20.8125 22.9542 20.9679C22.944 20.984 22.8929 21.0073 22.8725 20.9869C22.6967 20.9231 22.517 20.871 22.3344 20.8308C22.2687 20.8163 22.3037 20.7667 22.3067 20.7579C22.415 20.5624 22.5666 20.3943 22.75 20.2665C22.9599 20.1004 23.2072 19.9883 23.4704 19.9398C23.5025 19.9398 23.5025 19.896 23.4937 19.8815C23.442 19.7714 23.3658 19.6745 23.2711 19.5982C23.1763 19.5219 23.0655 19.4682 22.9469 19.441C22.755 19.3794 22.551 19.3657 22.3527 19.4013C22.1543 19.4369 21.9678 19.5207 21.8094 19.6452C21.5012 19.9014 21.2755 20.2428 21.1604 20.6267C21.14 20.6558 21.1342 20.6792 21.1079 20.6733C20.9635 20.6442 20.6048 20.6631 20.5727 20.6413C20.5508 20.631 20.5552 20.5975 20.5596 20.5756C20.6205 20.3672 20.7317 20.1769 20.8833 20.0215C21.02 19.8376 21.2032 19.6937 21.4142 19.6044C21.4268 19.5986 21.4377 19.5896 21.4458 19.5783C21.4539 19.567 21.459 19.5538 21.4604 19.54C21.4619 19.5262 21.4598 19.5122 21.4542 19.4994C21.4486 19.4867 21.4399 19.4756 21.4287 19.4673C21.1338 19.3145 20.7949 19.2692 20.4702 19.3392C20.1455 19.4092 19.8554 19.5901 19.6496 19.8508C19.4439 20.1608 19.2938 20.5043 19.2062 20.8658C19.2033 20.879 19.1815 20.9183 19.1537 20.9183L18.4129 21.0817L18.2919 21.1094L18.2598 21.1429C18.7109 20.4195 18.9611 19.5889 18.9846 18.7367V18.4829ZM0.828333 18.6069H8.39708V18.7381C8.41104 19.874 8.84599 20.9642 9.61771 21.7977H1.32562C1.03861 20.7565 0.871275 19.686 0.826875 18.6069H0.828333ZM1.43354 22.1696H9.98375C10.0368 22.2198 10.0912 22.2684 10.1471 22.3154C11.0422 23.067 12.1472 23.5243 13.3117 23.625V25.3896H2.7825C2.32981 24.5308 1.9399 23.6403 1.61583 22.7252C1.55152 22.5417 1.49075 22.3569 1.43354 22.171V22.1696ZM16.8685 22.5925L16.854 22.61H16.851L16.8481 22.6071C16.8554 22.6022 16.8627 22.5974 16.87 22.5925H16.8685ZM19.4031 22.8623C19.1397 22.8627 18.8823 22.9414 18.6637 23.0883C18.4158 23.2236 18.216 23.4325 18.0921 23.6863C17.9522 24.0483 17.8676 24.4293 17.8412 24.8165C17.8361 24.8284 17.8286 24.8391 17.819 24.8479C17.8095 24.8567 17.7982 24.8634 17.7858 24.8675C17.6206 24.9 17.4575 24.9424 17.2973 24.9944C17.2893 24.9937 17.2818 24.9905 17.2758 24.9852C17.2698 24.98 17.2656 24.973 17.2637 24.9652C17.2122 24.5972 17.2895 24.2226 17.4825 23.905C17.5626 23.7577 17.6706 23.6275 17.8004 23.5215C17.8099 23.5154 17.8172 23.5064 17.8214 23.4959C17.8256 23.4855 17.8263 23.4739 17.8236 23.463C17.8208 23.452 17.8147 23.4422 17.8061 23.4349C17.7975 23.4276 17.7869 23.4232 17.7756 23.4223C17.4509 23.3672 17.1171 23.4259 16.8306 23.5885C16.6518 23.6872 16.4989 23.8268 16.3844 23.9958C16.2698 24.1649 16.1969 24.3586 16.1715 24.5612C16.1371 24.8513 16.1579 25.1452 16.2327 25.4275C16.2327 25.4363 16.2415 25.4669 16.2094 25.4727C16.0985 25.5267 15.7981 25.6842 15.6917 25.7352C15.6844 25.7381 15.664 25.7425 15.6596 25.7265C15.6322 25.6179 15.5836 25.5159 15.5165 25.4262C15.4494 25.3366 15.3652 25.2612 15.2687 25.2044C15.1646 25.1617 15.0524 25.1424 14.94 25.148C14.8276 25.1535 14.7178 25.1837 14.6183 25.2365C14.484 25.3126 14.3746 25.4261 14.3033 25.5631C14.2534 25.6782 14.2446 25.8069 14.2783 25.9277C14.312 26.0485 14.3863 26.1541 14.4885 26.2267C14.4973 26.2354 14.5133 26.2558 14.4885 26.2631C14.3573 26.3346 14.3544 26.3506 14.2552 26.4979C14.2052 26.6034 14.1858 26.7209 14.1992 26.8369C14.2126 26.9529 14.2583 27.0628 14.331 27.1542C14.3857 27.235 14.4571 27.3031 14.5405 27.3538C14.6238 27.4046 14.7171 27.4367 14.814 27.448C14.9109 27.4594 15.0092 27.4497 15.102 27.4196C15.1948 27.3895 15.28 27.3398 15.3519 27.2738C15.3577 27.2694 15.3781 27.281 15.3883 27.3029C15.4432 27.389 15.5139 27.4637 15.5969 27.5231C15.6981 27.5802 15.8124 27.6103 15.9286 27.6103C16.0449 27.6103 16.1592 27.5802 16.2604 27.5231C16.3663 27.4647 16.4522 27.3757 16.5068 27.2677C16.5615 27.1598 16.5823 27.0379 16.5667 26.9179C16.5645 26.7743 16.5065 26.6372 16.4048 26.5358C16.3858 26.5125 16.4048 26.5008 16.4544 26.4688C17.3357 25.9638 18.3062 25.634 19.3127 25.4975C19.8337 25.4172 20.3646 25.4281 20.8819 25.5296C21.2193 25.6068 21.5336 25.7627 21.7992 25.9846C22.0157 26.1596 22.2141 26.356 22.3912 26.5708C22.4507 26.5806 22.5116 26.5676 22.5619 26.5344C22.6159 26.4166 22.6455 26.289 22.649 26.1595C22.6525 26.0299 22.6298 25.901 22.5823 25.7804C22.4616 25.4557 22.2704 25.1618 22.0223 24.92C22.0179 24.9171 22.0179 24.901 22.0179 24.8908C22.0121 24.8471 22.0398 24.8252 22.0938 24.7756C22.3235 24.5608 22.6064 24.4113 22.9133 24.3425C22.9527 24.3396 22.9687 24.3104 22.9425 24.2652C22.8316 24.0628 22.6512 23.9074 22.4346 23.8275C22.2181 23.7476 21.98 23.7487 21.7642 23.8306H21.7627C21.4786 23.9504 21.2447 24.1647 21.1006 24.4373C21.0919 24.4533 21.0685 24.5102 21.0467 24.4927C20.9154 24.481 20.6937 24.446 20.564 24.4344C20.5042 24.4315 20.5275 24.3775 20.529 24.3687C20.5829 24.1937 20.6802 24.0352 20.8119 23.9079C20.9883 23.7047 21.2101 23.5458 21.4594 23.4442C21.4644 23.4436 21.4691 23.4418 21.4733 23.4389C21.4774 23.4361 21.4808 23.4323 21.4831 23.4278C21.4854 23.4233 21.4866 23.4184 21.4865 23.4133C21.4864 23.4083 21.4851 23.4034 21.4827 23.399C21.4 23.2982 21.2967 23.2162 21.1798 23.1586C21.0628 23.101 20.9349 23.0691 20.8046 23.065C20.6386 23.0563 20.4727 23.0827 20.3177 23.1425C20.1626 23.2023 20.0219 23.2942 19.9048 23.4121C19.6257 23.7073 19.4528 24.087 19.4133 24.4913C19.4002 24.5248 19.3842 24.5423 19.3594 24.5423C19.2252 24.5639 19.0898 24.5761 18.954 24.5788C18.9321 24.5729 18.9335 24.5496 18.9335 24.5263C18.936 24.3201 18.9864 24.1174 19.0808 23.9342C19.2658 23.5834 19.5432 23.2899 19.8829 23.0854C19.9354 23.049 19.9383 22.9746 19.9208 22.9658C19.7569 22.897 19.5809 22.8618 19.4031 22.8623V22.8623ZM3.00417 25.8008H13.3131V28.9946H5.20042C4.72642 28.45 4.28894 27.8746 3.89083 27.2723C3.57728 26.7921 3.28104 26.3008 3.00271 25.7994L3.00417 25.8008ZM17.6983 27.5158C17.5587 27.5103 17.4204 27.5452 17.3002 27.6165C16.9724 27.7889 16.7241 28.0816 16.6075 28.4331C16.5392 28.7073 16.5453 28.9948 16.625 29.2658C16.6294 29.276 16.6425 29.3008 16.6221 29.3096C16.5083 29.3533 16.4237 29.4044 16.3115 29.4496C16.3056 29.4496 16.2765 29.4569 16.2706 29.4423C16.176 29.2727 16.1375 29.0776 16.1606 28.8848C16.1836 28.692 16.2671 28.5114 16.399 28.369C16.4237 28.3471 16.4383 28.3179 16.3873 28.3004C16.245 28.2785 16.0994 28.2929 15.9641 28.342C15.8287 28.3912 15.708 28.4737 15.6129 28.5819C15.5036 28.7135 15.4304 28.8714 15.4005 29.0398C15.3706 29.2083 15.385 29.3817 15.4423 29.5429C15.4708 29.6764 15.5195 29.8047 15.5867 29.9235C15.591 29.9308 15.6304 29.9542 15.6071 29.9644L15.3883 30.1321C15.384 30.1365 15.3679 30.1438 15.3606 30.1321C15.3166 30.0491 15.2566 29.9757 15.184 29.9161C15.1114 29.8565 15.0277 29.8119 14.9377 29.785C14.8561 29.7657 14.7709 29.7673 14.6901 29.7897C14.6092 29.8122 14.5354 29.8547 14.4754 29.9133C14.4106 29.9773 14.3634 30.0569 14.3386 30.1445C14.3137 30.2321 14.312 30.3246 14.3336 30.4131C14.3552 30.5015 14.3994 30.5829 14.4618 30.6492C14.5242 30.7154 14.6028 30.7644 14.6898 30.7913C14.7 30.7956 14.7146 30.8088 14.6971 30.8204C14.5808 30.8992 14.4856 31.0054 14.42 31.1296C14.3805 31.2296 14.3712 31.339 14.3932 31.4442C14.4153 31.5494 14.4677 31.6459 14.544 31.7217C14.6013 31.772 14.6686 31.8095 14.7415 31.8319C14.8144 31.8543 14.8912 31.8609 14.9669 31.8515C15.0799 31.8144 15.1844 31.7549 15.2738 31.6764C15.3633 31.598 15.436 31.5023 15.4875 31.395C15.4904 31.3906 15.5181 31.3702 15.5327 31.3862C15.6267 31.522 15.7616 31.6242 15.9177 31.6779C15.9975 31.7057 16.0833 31.7115 16.1662 31.6949C16.249 31.6782 16.3259 31.6396 16.3887 31.5831C16.4744 31.5159 16.5364 31.423 16.5655 31.318C16.5946 31.2131 16.5894 31.1016 16.5506 30.9998C16.4802 30.8724 16.3795 30.7642 16.2575 30.6848C16.2385 30.6702 16.2531 30.6338 16.291 30.6046C16.8818 30.1296 17.5868 29.8178 18.3356 29.7004C18.8468 29.6326 19.3667 29.7168 19.8304 29.9425C20.0116 30.0488 20.177 30.1798 20.3219 30.3319C20.3408 30.3421 20.3948 30.361 20.4137 30.3435C20.5236 30.2426 20.5902 30.1031 20.5997 29.9542C20.6092 29.8053 20.5609 29.6585 20.4648 29.5444C20.382 29.4446 20.2798 29.3627 20.1644 29.3038C20.1596 29.2972 20.1561 29.2898 20.1542 29.2819C20.2444 29.0538 20.3964 28.8553 20.5931 28.7088C20.7277 28.6224 20.8722 28.5524 21.0233 28.5002C21.0554 28.4915 21.0496 28.471 21.0335 28.4317C20.8469 28.0044 20.1075 27.9883 19.759 28.2129C19.5461 28.3613 19.3728 28.5596 19.2544 28.7904C19.2471 28.805 19.2369 28.8488 19.2179 28.8356L18.9073 28.7423C18.9015 28.7423 18.9015 28.7073 18.9044 28.7015C19.0073 28.5014 19.1507 28.3248 19.3254 28.183C19.5001 28.0412 19.7024 27.9371 19.9194 27.8775C19.9412 27.8688 19.934 27.8483 19.9296 27.8367C19.7692 27.4458 18.9656 27.4794 18.5733 27.7288C18.2088 27.9705 17.9513 28.3434 17.8544 28.77C17.85 28.7992 17.8631 28.824 17.8442 28.8283C17.7352 28.8657 17.6229 28.8926 17.5087 28.9085C17.5002 28.9078 17.4923 28.904 17.4863 28.8979C17.4804 28.8917 17.477 28.8835 17.4767 28.875C17.4479 28.6789 17.4821 28.4787 17.5744 28.3033C17.7053 28.0852 17.8641 27.8852 18.0469 27.7083C18.0529 27.7022 18.0576 27.6948 18.0607 27.6868C18.0638 27.6787 18.0652 27.6701 18.0647 27.6614C18.0643 27.6528 18.0621 27.6444 18.0583 27.6366C18.0545 27.6289 18.0491 27.622 18.0425 27.6165C17.9382 27.5541 17.8198 27.519 17.6983 27.5144V27.5158ZM13.3146 29.4058V34.389C13.1717 34.3423 13.0025 34.281 12.8158 34.2183C12.5562 34.1308 12.2719 33.9981 11.9452 33.8581C10.9571 33.4447 10.0016 32.9572 9.08687 32.3998C8.50274 32.0253 7.94396 31.6127 7.41417 31.1646C6.75956 30.6209 6.14272 30.0333 5.56792 29.4058H13.3117H13.3146Z" fill="#121212"/>
</svg>
