<svg viewBox="0 0 25 25" fill="none" xmlns="http://www.w3.org/2000/svg"> <path d="M12.5 0C5.58333 0 0 5.58333 0 12.5C0 19.4167 5.58333 25 12.5 25C19.4167 25 25 19.4167 25 12.5C25 5.58333 19.4167 0 12.5 0ZM12.5 1.46875C13.75 1.46875 14.9583 1.69792 16.0729 2.08333L12.6354 9.51042C12.5938 9.55208 12.5938 9.64583 12.5 9.64583C12.4063 9.64583 12.4063 9.55208 12.3646 9.51042L8.92708 2.08333C10.0417 1.69792 11.25 1.47917 12.5 1.47917V1.46875ZM7.1875 2.85417L11.1667 11.4271C11.25 11.6042 11.3438 11.6563 11.4583 11.6563H13.5417C13.6667 11.6563 13.75 11.6042 13.8438 11.4271L17.7708 2.85417C19.4167 3.79167 20.8333 5.13542 21.8333 6.73958L16.25 17.5417C16.2083 17.6354 16.1458 17.6771 16.1146 17.6771C16.0313 17.6771 16.0313 17.5938 15.9792 17.5417L13.8438 12.8125C13.75 12.6354 13.6667 12.5938 13.5417 12.5938H11.4583C11.3438 12.5938 11.25 12.6354 11.1563 12.8125L9.02083 17.5417C8.96875 17.5938 8.97917 17.6771 8.88542 17.6771C8.79167 17.6771 8.79167 17.5938 8.75 17.5417L3.125 6.73958C4.10417 5.13542 5.54167 3.79167 7.1875 2.85417ZM2.14583 8.88542L8.57292 21.3854C8.65625 21.5625 8.75 21.6979 8.97917 21.6979C9.19792 21.6979 9.28125 21.5625 9.375 21.3854L12.3646 14.7292C12.4063 14.6458 12.4583 14.5833 12.5 14.5833C12.5938 14.5833 12.5938 14.6875 12.6354 14.7292L15.6667 21.3854C15.7604 21.5625 15.8438 21.6979 16.0729 21.6979C16.2917 21.6979 16.3854 21.5625 16.4688 21.3854L22.9167 8.88542C23.3021 10 23.5313 11.2083 23.5313 12.5C23.4792 18.5313 18.5313 23.5313 12.5 23.5313C6.46875 23.5313 1.52083 18.5313 1.52083 12.5C1.52083 11.25 1.73958 10.0521 2.14583 8.88542Z" fill="#121212"/> </svg>
