<?xml version="1.0" encoding="UTF-8" standalone="no"?>
<!-- Created with Inkscape (http://www.inkscape.org/) -->

<svg
   xmlns:dc="http://purl.org/dc/elements/1.1/"
   xmlns:cc="http://creativecommons.org/ns#"
   xmlns:rdf="http://www.w3.org/1999/02/22-rdf-syntax-ns#"
   xmlns:svg="http://www.w3.org/2000/svg"
   xmlns="http://www.w3.org/2000/svg"
   xmlns:sodipodi="http://sodipodi.sourceforge.net/DTD/sodipodi-0.dtd"
   xmlns:inkscape="http://www.inkscape.org/namespaces/inkscape"
   id="svg2985"
   version="1.1"
   inkscape:version="0.48.4 r9939"
   width="100%"
   height="100%"
   xml:space="preserve"
   sodipodi:docname="BBS.svg"><metadata
     id="metadata2991"><rdf:RDF><cc:Work
         rdf:about=""><dc:format>image/svg+xml</dc:format><dc:type
           rdf:resource="http://purl.org/dc/dcmitype/StillImage" /></cc:Work></rdf:RDF></metadata><defs
     id="defs2989" /><sodipodi:namedview
     pagecolor="#ffffff"
     bordercolor="#666666"
     borderopacity="1"
     objecttolerance="10"
     gridtolerance="10"
     guidetolerance="10"
     inkscape:pageopacity="0"
     inkscape:pageshadow="2"
     inkscape:window-width="1280"
     inkscape:window-height="904"
     id="namedview2987"
     showgrid="false"
     inkscape:zoom="1.4142136"
     inkscape:cx="82.750469"
     inkscape:cy="77.903394"
     inkscape:window-x="-4"
     inkscape:window-y="-4"
     inkscape:window-maximized="1"
     inkscape:current-layer="g2993" /><g
     id="g2993"
     inkscape:groupmode="layer"
     inkscape:label="BBS"
     transform="matrix(1.25,0,0,-1.25,0,242.5)"><path
       style="fill:#000000;fill-opacity:1;fill-rule:evenodd;stroke:none"
       d="m 159.0823,192.06763 c -11.62367,-0.19027 -20.99337,-2.48648 -26.99311,-10.44788 -6.11461,8.88834 -8.45471,9.03977 -14.93455,9.03977 l -37.524026,-0.0664 c -1.803855,-0.0942 -2.583177,-1.54308 -2.779682,-2.11548 0,0 -1.952931,-5.68991 -2.474144,-7.55196 l -1.899614,2.50072 c -4.488812,6.08585 -6.969565,7.32925 -12.141592,7.14015 -12.805289,0.027 -25.61205,0.017 -38.417367,0.0199 -2.163744,0.0743 -3.158617,-1.2936 -3.875613,-3.72617 -5.217912,-16.19316 -14.8267626,-44.8991 -14.8415614,-44.94314 -0.616714,-1.83543 -1.3753945,-3.66952 0.2690006,-5.16748 l 8.4386668,-7.63167 c 0.416579,-0.38112 0.760724,-1.02104 2.135405,-1.00294 l 40.131011,-0.0731 c 3.45113,0 7.814362,1.42225 10.095854,4.09479 1.899641,-1.9658 3.728588,-4.17117 5.934632,-3.99848 0,0 42.52892,-0.0346 42.56198,0.0299 6.62565,0 11.1635,5.54119 12.55672,9.2191 6.24254,-10.2675 17.98796,-10.75008 32.81151,-10.75008 31.43973,0.98579 33.32962,27.78697 23.13411,35.48159 l 5.42321,0.0399 c 3.28361,0 3.98625,7.76049 3.99516,10.5475 -0.86417,11.28196 -8.91631,19.28353 -26.59128,19.34486 l -5.01472,0.0166 z m 1.60405,-2.69998 c 9.80989,0 16.96155,-1.23172 19.58728,-5.02135 1.17651,-1.7112 2.41315,-3.93811 1.19556,-9.21247 -0.30056,-1.12171 -0.46786,-2.71658 -2.43761,-2.71658 l -8.10325,0 c -1.22015,0.0798 -1.20641,0.5807 -0.78044,1.66714 0.92047,3.49484 -0.20262,6.01434 -10.85304,6.01434 -4.58278,0 -13.87892,-0.16378 -15.94081,-6.05419 -1.01098,-4.5888 2.26302,-4.32656 8.17298,-4.78556 8.24143,-0.53648 16.76156,-0.43779 21.66291,-2.37452 2.11021,-1.087 5.37495,-3.59744 4.52653,-10.52094 -0.73606,-7.16212 -2.64297,-9.5076 -4.89848,-12.28771 -7.65539,-7.65539 -18.06899,-6.4195 -27.42485,-6.4195 -4.31251,0 -13.90913,-0.87847 -19.69355,4.56638 -3.40261,3.54197 -0.68797,10.69024 -0.39852,11.36779 0.34812,0.87018 0.77095,1.08929 1.71032,1.08929 l 9.24567,0 c 0.65029,0 1.06657,0.0794 0.44501,-1.43135 -1.41551,-3.10993 1.41061,-4.29635 1.86309,-4.48003 3.59378,-1.2141 7.57145,-0.99298 12.92534,-0.99298 10.10225,0 12.24306,2.12045 13.64269,5.8516 1.21962,4.55168 -3.68632,4.69258 -3.68632,4.69258 0,0 -20.39006,1.42262 -20.25812,1.5177 -12.4275,1.55474 -10.65934,8.74221 -9.6774,13.29398 4.59039,14.60446 17.21318,16.23638 29.17501,16.23638 z m -138.273308,-1.1856 c -0.0071,0.002 38.095237,0 38.095237,0 7.415135,-0.22467 7.982939,-7.22838 6.539054,-13.09471 -1.967319,-6.86265 -4.97347,-10.14105 -11.47075,-10.96264 -0.363734,0 -0.359613,-0.46941 0.02328,-0.47158 3.43536,-0.18956 8.235125,-2.56273 6.280026,-11.65673 C 58.777348,139.29406 50.346387,138.8884 45.002547,138.8884 l -37.9125762,0 c -1.918721,0 -1.8157004,0.69881 -1.6339404,1.4081 l 15.3231156,46.47745 c 0.260348,0.79207 0.446291,1.36161 1.633931,1.4081 z m 58.452989,-0.006 c -0.0071,0.002 38.091909,0 38.091909,0 7.41513,-0.22468 7.98295,-7.2284 6.53905,-13.09472 -1.96731,-6.86265 -4.97014,-10.14104 -11.46742,-10.96264 -0.36373,0 -0.36294,-0.4694 0.0199,-0.47158 3.43536,-0.18956 8.23513,-2.56272 6.28002,-11.65672 -3.10254,-12.70233 -11.53016,-13.108 -16.87402,-13.108 l -37.912581,0 c -1.918703,0 -1.815682,0.69882 -1.633931,1.40811 l 15.323116,46.47744 c 0.260321,0.79207 0.446273,1.36163 1.633931,1.40811 z m -49.987747,-8.63793 c -2.106708,0.0141 -2.451977,-0.71838 -2.587066,-0.98966 -0.833754,-2.32545 -1.490743,-5.23551 -2.324702,-7.56193 -0.173179,-0.43329 -0.167149,-1.44132 0.807002,-1.44132 l 21.623061,0.006 c 6.939299,0 7.575209,5.10486 7.575209,5.92467 0,2.95124 -1.661388,4.06159 -3.795909,4.06159 l -21.297595,0 z m 58.449661,-0.006 c -2.106717,0.0141 -2.448632,-0.71837 -2.583739,-0.98967 -0.833736,-2.32544 -1.490725,-5.23549 -2.324702,-7.56192 -0.173169,-0.43328 -0.170475,-1.44131 0.803684,-1.44131 l 21.623052,0.006 c 6.9393,0 7.57521,5.10487 7.57521,5.92467 0,2.95125 -1.65805,4.06159 -3.79258,4.06159 l -21.300925,0 z M 25.000108,159.57573 c -2.167215,0.0141 -2.521163,-0.71837 -2.660124,-0.98967 -0.857705,-2.32545 -1.53654,-5.2355 -2.39445,-7.56192 -0.178156,-0.43329 -0.171876,-1.43799 0.830258,-1.43799 l 22.244075,0.004 c 7.138596,0 7.794399,5.10819 7.794399,5.92799 0,2.95125 -1.709674,4.05827 -3.905495,4.05827 l -21.908663,0 z m 58.449662,-0.006 c -2.167206,0.0141 -2.521163,-0.71837 -2.660124,-0.98965 -0.857696,-2.32545 -1.533212,-5.23551 -2.391122,-7.56193 -0.178165,-0.43329 -0.175204,-1.438 0.82693,-1.438 l 22.244086,0.004 c 7.13858,0 7.7944,5.1082 7.7944,5.928 0,2.95125 -1.70637,4.05826 -3.90219,4.05826 l -21.91198,0 z"
       id="path3196"
       inkscape:connector-curvature="0" /></g></svg>
